<svg xmlns="http://www.w3.org/2000/svg" xmlns:xlink="http://www.w3.org/1999/xlink" width="1366" zoomAndPan="magnify" viewBox="0 0 1024.5 576" height="768" preserveAspectRatio="xMidYMid meet" version="1.0"><defs><clipPath id="7454ff5c18"><path d="M 374 397 L 412 397 L 412 575.859375 L 374 575.859375 Z M 374 397 " clip-rule="nonzero"/></clipPath><clipPath id="06f8ed0a63"><path d="M 604 512 L 659.046875 512 L 659.046875 567 L 604 567 Z M 604 512 " clip-rule="nonzero"/></clipPath><clipPath id="e873e11ee8"><path d="M 365.191406 8 L 420 8 L 420 63 L 365.191406 63 Z M 365.191406 8 " clip-rule="nonzero"/></clipPath><clipPath id="f24bd19a21"><path d="M 613 0.140625 L 650 0.140625 L 650 179 L 613 179 Z M 613 0.140625 " clip-rule="nonzero"/></clipPath></defs><g clip-path="url(#7454ff5c18)"><path fill="#05516a" d="M 392.917969 397.136719 C 393.519531 397.136719 394.121094 397.167969 394.71875 397.226562 C 395.316406 397.285156 395.910156 397.371094 396.5 397.488281 C 397.089844 397.605469 397.671875 397.753906 398.25 397.925781 C 398.824219 398.101562 399.390625 398.304688 399.945312 398.535156 C 400.5 398.765625 401.042969 399.019531 401.574219 399.304688 C 402.101562 399.585938 402.617188 399.894531 403.117188 400.230469 C 403.617188 400.5625 404.101562 400.921875 404.566406 401.300781 C 405.03125 401.683594 405.476562 402.085938 405.898438 402.511719 C 406.324219 402.9375 406.730469 403.378906 407.109375 403.84375 C 407.492188 404.308594 407.847656 404.792969 408.183594 405.292969 C 408.515625 405.789062 408.824219 406.304688 409.109375 406.835938 C 409.394531 407.367188 409.648438 407.90625 409.878906 408.464844 C 410.109375 409.019531 410.3125 409.582031 410.488281 410.160156 C 410.660156 410.734375 410.808594 411.316406 410.925781 411.90625 C 411.042969 412.496094 411.128906 413.089844 411.1875 413.6875 C 411.246094 414.285156 411.277344 414.882812 411.277344 415.484375 L 411.277344 557.050781 C 411.277344 557.648438 411.246094 558.25 411.1875 558.847656 C 411.128906 559.445312 411.042969 560.039062 410.925781 560.628906 C 410.808594 561.21875 410.660156 561.800781 410.488281 562.375 C 410.3125 562.949219 410.109375 563.515625 409.878906 564.070312 C 409.648438 564.625 409.394531 565.167969 409.109375 565.699219 C 408.824219 566.226562 408.515625 566.742188 408.183594 567.242188 C 407.847656 567.742188 407.492188 568.222656 407.109375 568.6875 C 406.730469 569.152344 406.324219 569.597656 405.898438 570.023438 C 405.476562 570.445312 405.03125 570.851562 404.566406 571.230469 C 404.101562 571.613281 403.617188 571.96875 403.117188 572.304688 C 402.617188 572.636719 402.105469 572.945312 401.574219 573.230469 C 401.042969 573.511719 400.5 573.769531 399.945312 574 C 399.390625 574.230469 398.824219 574.429688 398.25 574.605469 C 397.671875 574.78125 397.089844 574.925781 396.5 575.042969 C 395.910156 575.160156 395.316406 575.25 394.71875 575.308594 C 394.121094 575.367188 393.519531 575.394531 392.917969 575.394531 C 392.320312 575.394531 391.71875 575.367188 391.121094 575.308594 C 390.523438 575.25 389.929688 575.160156 389.339844 575.042969 C 388.75 574.925781 388.167969 574.78125 387.589844 574.605469 C 387.015625 574.429688 386.449219 574.230469 385.894531 574 C 385.339844 573.769531 384.796875 573.511719 384.265625 573.230469 C 383.734375 572.945312 383.222656 572.636719 382.722656 572.304688 C 382.222656 571.96875 381.738281 571.613281 381.273438 571.230469 C 380.808594 570.851562 380.363281 570.445312 379.9375 570.023438 C 379.515625 569.597656 379.109375 569.152344 378.730469 568.6875 C 378.347656 568.222656 377.992188 567.742188 377.65625 567.242188 C 377.324219 566.742188 377.015625 566.226562 376.730469 565.699219 C 376.445312 565.167969 376.191406 564.625 375.960938 564.070312 C 375.730469 563.515625 375.527344 562.949219 375.351562 562.375 C 375.179688 561.800781 375.03125 561.21875 374.914062 560.628906 C 374.796875 560.039062 374.710938 559.445312 374.652344 558.847656 C 374.59375 558.25 374.5625 557.648438 374.5625 557.050781 L 374.5625 415.484375 C 374.5625 414.882812 374.59375 414.285156 374.652344 413.6875 C 374.710938 413.089844 374.796875 412.496094 374.914062 411.90625 C 375.03125 411.316406 375.179688 410.734375 375.351562 410.160156 C 375.527344 409.582031 375.730469 409.019531 375.960938 408.464844 C 376.191406 407.90625 376.445312 407.367188 376.730469 406.835938 C 377.015625 406.304688 377.324219 405.789062 377.65625 405.292969 C 377.992188 404.792969 378.347656 404.308594 378.730469 403.84375 C 379.109375 403.378906 379.515625 402.9375 379.9375 402.511719 C 380.363281 402.085938 380.808594 401.683594 381.273438 401.300781 C 381.738281 400.921875 382.222656 400.5625 382.722656 400.230469 C 383.222656 399.894531 383.734375 399.585938 384.265625 399.304688 C 384.796875 399.019531 385.339844 398.765625 385.894531 398.535156 C 386.449219 398.304688 387.015625 398.101562 387.589844 397.925781 C 388.167969 397.753906 388.75 397.605469 389.339844 397.488281 C 389.929688 397.371094 390.523438 397.285156 391.121094 397.226562 C 391.71875 397.167969 392.320312 397.136719 392.917969 397.136719 Z M 392.917969 397.136719 " fill-opacity="1" fill-rule="nonzero"/></g><path fill="#d29526" d="M 472.003906 306.347656 C 472.605469 306.347656 473.203125 306.375 473.804688 306.433594 C 474.402344 306.492188 474.996094 306.582031 475.585938 306.699219 C 476.175781 306.816406 476.757812 306.960938 477.332031 307.136719 C 477.90625 307.3125 478.472656 307.511719 479.027344 307.742188 C 479.582031 307.972656 480.125 308.230469 480.65625 308.511719 C 481.1875 308.796875 481.703125 309.105469 482.203125 309.4375 C 482.703125 309.773438 483.183594 310.128906 483.648438 310.511719 C 484.113281 310.890625 484.558594 311.296875 484.984375 311.71875 C 485.410156 312.144531 485.8125 312.589844 486.195312 313.054688 C 486.574219 313.519531 486.933594 314 487.265625 314.5 C 487.601562 315 487.910156 315.515625 488.191406 316.046875 C 488.476562 316.574219 488.734375 317.117188 488.964844 317.671875 C 489.191406 318.226562 489.394531 318.792969 489.570312 319.367188 C 489.746094 319.941406 489.890625 320.523438 490.007812 321.113281 C 490.125 321.703125 490.214844 322.296875 490.273438 322.894531 C 490.332031 323.492188 490.359375 324.09375 490.359375 324.695312 L 490.359375 466.257812 C 490.359375 466.859375 490.332031 467.457031 490.273438 468.058594 C 490.214844 468.65625 490.125 469.25 490.007812 469.835938 C 489.890625 470.425781 489.746094 471.007812 489.570312 471.585938 C 489.394531 472.160156 489.191406 472.722656 488.964844 473.28125 C 488.734375 473.835938 488.476562 474.378906 488.191406 474.90625 C 487.910156 475.4375 487.601562 475.953125 487.265625 476.453125 C 486.933594 476.949219 486.574219 477.433594 486.195312 477.898438 C 485.8125 478.363281 485.410156 478.808594 484.984375 479.230469 C 484.558594 479.65625 484.113281 480.058594 483.648438 480.441406 C 483.183594 480.820312 482.703125 481.179688 482.203125 481.511719 C 481.703125 481.847656 481.1875 482.15625 480.65625 482.4375 C 480.125 482.722656 479.582031 482.980469 479.027344 483.207031 C 478.472656 483.4375 477.90625 483.640625 477.332031 483.816406 C 476.757812 483.988281 476.175781 484.136719 475.585938 484.253906 C 474.996094 484.371094 474.402344 484.457031 473.804688 484.515625 C 473.203125 484.574219 472.605469 484.605469 472.003906 484.605469 C 471.402344 484.605469 470.800781 484.574219 470.203125 484.515625 C 469.605469 484.457031 469.011719 484.371094 468.421875 484.253906 C 467.832031 484.136719 467.25 483.988281 466.675781 483.816406 C 466.097656 483.640625 465.535156 483.4375 464.976562 483.207031 C 464.421875 482.980469 463.878906 482.722656 463.351562 482.4375 C 462.820312 482.15625 462.304688 481.847656 461.804688 481.511719 C 461.304688 481.179688 460.824219 480.820312 460.359375 480.441406 C 459.894531 480.058594 459.449219 479.65625 459.023438 479.230469 C 458.597656 478.808594 458.195312 478.363281 457.8125 477.898438 C 457.433594 477.433594 457.074219 476.949219 456.738281 476.453125 C 456.40625 475.953125 456.097656 475.4375 455.8125 474.90625 C 455.53125 474.378906 455.273438 473.835938 455.042969 473.28125 C 454.8125 472.722656 454.613281 472.160156 454.4375 471.585938 C 454.261719 471.007812 454.117188 470.425781 454 469.835938 C 453.882812 469.25 453.792969 468.65625 453.734375 468.058594 C 453.675781 467.457031 453.644531 466.859375 453.644531 466.257812 L 453.644531 324.695312 C 453.644531 324.09375 453.675781 323.492188 453.734375 322.894531 C 453.792969 322.296875 453.882812 321.703125 454 321.113281 C 454.117188 320.523438 454.261719 319.941406 454.4375 319.367188 C 454.613281 318.792969 454.8125 318.226562 455.042969 317.671875 C 455.273438 317.117188 455.53125 316.574219 455.8125 316.046875 C 456.097656 315.515625 456.40625 315 456.738281 314.5 C 457.074219 314 457.433594 313.519531 457.8125 313.054688 C 458.195312 312.589844 458.597656 312.144531 459.023438 311.71875 C 459.449219 311.296875 459.894531 310.890625 460.359375 310.511719 C 460.824219 310.128906 461.304688 309.773438 461.804688 309.4375 C 462.304688 309.105469 462.820312 308.796875 463.351562 308.511719 C 463.878906 308.230469 464.421875 307.972656 464.976562 307.742188 C 465.535156 307.511719 466.097656 307.3125 466.675781 307.136719 C 467.25 306.960938 467.832031 306.816406 468.421875 306.699219 C 469.011719 306.582031 469.605469 306.492188 470.203125 306.433594 C 470.800781 306.375 471.402344 306.347656 472.003906 306.347656 Z M 472.003906 306.347656 " fill-opacity="1" fill-rule="nonzero"/><path fill="#e17e23" d="M 420.523438 334.898438 C 420.523438 335.785156 420.480469 336.667969 420.394531 337.550781 C 420.308594 338.433594 420.175781 339.308594 420.003906 340.175781 C 419.832031 341.046875 419.617188 341.90625 419.359375 342.753906 C 419.101562 343.601562 418.800781 344.4375 418.460938 345.253906 C 418.125 346.074219 417.746094 346.875 417.328125 347.65625 C 416.90625 348.4375 416.453125 349.195312 415.960938 349.933594 C 415.46875 350.671875 414.9375 351.382812 414.375 352.066406 C 413.8125 352.753906 413.21875 353.40625 412.589844 354.035156 C 411.964844 354.660156 411.308594 355.257812 410.621094 355.820312 C 409.9375 356.378906 409.222656 356.90625 408.488281 357.402344 C 407.75 357.894531 406.988281 358.347656 406.207031 358.765625 C 405.425781 359.183594 404.625 359.5625 403.804688 359.902344 C 402.984375 360.242188 402.148438 360.539062 401.300781 360.796875 C 400.453125 361.054688 399.59375 361.269531 398.722656 361.441406 C 397.851562 361.613281 396.976562 361.746094 396.09375 361.832031 C 395.210938 361.917969 394.324219 361.960938 393.4375 361.960938 C 392.550781 361.960938 391.667969 361.917969 390.78125 361.832031 C 389.898438 361.746094 389.023438 361.613281 388.152344 361.441406 C 387.285156 361.269531 386.425781 361.054688 385.574219 360.796875 C 384.726562 360.539062 383.890625 360.242188 383.074219 359.902344 C 382.253906 359.5625 381.453125 359.183594 380.667969 358.765625 C 379.886719 358.347656 379.128906 357.894531 378.390625 357.402344 C 377.652344 356.90625 376.941406 356.378906 376.253906 355.820312 C 375.570312 355.257812 374.914062 354.660156 374.285156 354.035156 C 373.65625 353.40625 373.0625 352.753906 372.5 352.066406 C 371.9375 351.382812 371.410156 350.671875 370.917969 349.933594 C 370.421875 349.195312 369.96875 348.4375 369.550781 347.65625 C 369.132812 346.875 368.753906 346.074219 368.414062 345.253906 C 368.074219 344.4375 367.777344 343.601562 367.519531 342.753906 C 367.261719 341.90625 367.046875 341.046875 366.871094 340.175781 C 366.699219 339.308594 366.570312 338.433594 366.480469 337.550781 C 366.394531 336.667969 366.351562 335.785156 366.351562 334.898438 C 366.351562 334.011719 366.394531 333.128906 366.480469 332.246094 C 366.570312 331.363281 366.699219 330.488281 366.871094 329.617188 C 367.046875 328.75 367.261719 327.890625 367.519531 327.042969 C 367.777344 326.191406 368.074219 325.359375 368.414062 324.539062 C 368.753906 323.722656 369.132812 322.921875 369.550781 322.140625 C 369.96875 321.359375 370.421875 320.597656 370.917969 319.863281 C 371.410156 319.125 371.9375 318.414062 372.5 317.730469 C 373.0625 317.042969 373.65625 316.386719 374.285156 315.761719 C 374.914062 315.132812 375.570312 314.539062 376.253906 313.976562 C 376.941406 313.414062 377.652344 312.886719 378.390625 312.394531 C 379.128906 311.902344 379.886719 311.449219 380.667969 311.03125 C 381.453125 310.613281 382.253906 310.234375 383.074219 309.894531 C 383.890625 309.554688 384.726562 309.257812 385.574219 309 C 386.425781 308.742188 387.285156 308.527344 388.152344 308.355469 C 389.023438 308.179688 389.898438 308.050781 390.785156 307.964844 C 391.667969 307.878906 392.550781 307.832031 393.4375 307.832031 C 394.324219 307.832031 395.210938 307.878906 396.09375 307.964844 C 396.976562 308.050781 397.851562 308.179688 398.722656 308.355469 C 399.59375 308.527344 400.453125 308.742188 401.300781 309 C 402.148438 309.257812 402.984375 309.554688 403.804688 309.894531 C 404.625 310.234375 405.425781 310.613281 406.207031 311.03125 C 406.988281 311.449219 407.75 311.902344 408.488281 312.394531 C 409.222656 312.886719 409.9375 313.414062 410.621094 313.976562 C 411.308594 314.539062 411.964844 315.132812 412.589844 315.761719 C 413.21875 316.386719 413.8125 317.042969 414.375 317.730469 C 414.9375 318.414062 415.46875 319.125 415.960938 319.863281 C 416.453125 320.597656 416.90625 321.359375 417.328125 322.140625 C 417.746094 322.921875 418.125 323.722656 418.460938 324.539062 C 418.800781 325.359375 419.101562 326.191406 419.359375 327.042969 C 419.617188 327.890625 419.832031 328.75 420.003906 329.617188 C 420.175781 330.488281 420.308594 331.363281 420.394531 332.246094 C 420.480469 333.128906 420.523438 334.011719 420.523438 334.898438 Z M 420.523438 334.898438 " fill-opacity="1" fill-rule="nonzero"/><path fill="#05516a" d="M 498.324219 546.28125 C 498.324219 547.167969 498.28125 548.050781 498.195312 548.933594 C 498.109375 549.816406 497.976562 550.691406 497.804688 551.5625 C 497.632812 552.429688 497.417969 553.289062 497.160156 554.136719 C 496.902344 554.984375 496.601562 555.820312 496.261719 556.636719 C 495.925781 557.457031 495.546875 558.257812 495.128906 559.039062 C 494.707031 559.820312 494.253906 560.578125 493.761719 561.316406 C 493.265625 562.054688 492.738281 562.765625 492.175781 563.449219 C 491.613281 564.136719 491.019531 564.792969 490.390625 565.417969 C 489.765625 566.042969 489.109375 566.640625 488.421875 567.203125 C 487.738281 567.765625 487.023438 568.292969 486.289062 568.785156 C 485.550781 569.277344 484.789062 569.730469 484.007812 570.148438 C 483.226562 570.566406 482.425781 570.945312 481.605469 571.285156 C 480.785156 571.625 479.949219 571.921875 479.101562 572.179688 C 478.253906 572.4375 477.394531 572.652344 476.523438 572.824219 C 475.652344 572.996094 474.777344 573.128906 473.894531 573.214844 C 473.011719 573.300781 472.125 573.34375 471.238281 573.34375 C 470.351562 573.34375 469.464844 573.300781 468.582031 573.214844 C 467.699219 573.128906 466.824219 572.996094 465.953125 572.824219 C 465.085938 572.652344 464.226562 572.4375 463.375 572.179688 C 462.527344 571.921875 461.691406 571.625 460.875 571.285156 C 460.054688 570.945312 459.253906 570.566406 458.46875 570.148438 C 457.6875 569.730469 456.929688 569.277344 456.191406 568.785156 C 455.453125 568.292969 454.742188 567.765625 454.054688 567.203125 C 453.371094 566.640625 452.714844 566.042969 452.085938 565.417969 C 451.457031 564.792969 450.863281 564.136719 450.300781 563.449219 C 449.738281 562.765625 449.210938 562.054688 448.71875 561.316406 C 448.222656 560.578125 447.769531 559.820312 447.351562 559.039062 C 446.933594 558.257812 446.554688 557.457031 446.214844 556.636719 C 445.875 555.820312 445.574219 554.984375 445.320312 554.136719 C 445.0625 553.289062 444.847656 552.429688 444.671875 551.5625 C 444.5 550.691406 444.371094 549.816406 444.28125 548.933594 C 444.195312 548.050781 444.152344 547.167969 444.152344 546.28125 C 444.152344 545.394531 444.195312 544.511719 444.28125 543.628906 C 444.371094 542.746094 444.5 541.871094 444.671875 541 C 444.847656 540.132812 445.0625 539.273438 445.320312 538.425781 C 445.574219 537.578125 445.875 536.742188 446.214844 535.925781 C 446.554688 535.105469 446.933594 534.304688 447.351562 533.523438 C 447.769531 532.742188 448.222656 531.980469 448.71875 531.246094 C 449.210938 530.507812 449.738281 529.796875 450.300781 529.113281 C 450.863281 528.425781 451.457031 527.769531 452.085938 527.144531 C 452.714844 526.515625 453.371094 525.921875 454.054688 525.359375 C 454.742188 524.796875 455.453125 524.269531 456.191406 523.777344 C 456.929688 523.285156 457.6875 522.832031 458.46875 522.414062 C 459.253906 521.996094 460.054688 521.617188 460.875 521.277344 C 461.691406 520.9375 462.527344 520.640625 463.375 520.382812 C 464.226562 520.125 465.085938 519.910156 465.953125 519.738281 C 466.824219 519.5625 467.699219 519.433594 468.582031 519.347656 C 469.464844 519.261719 470.351562 519.21875 471.238281 519.21875 C 472.125 519.21875 473.011719 519.261719 473.894531 519.347656 C 474.777344 519.433594 475.652344 519.5625 476.523438 519.738281 C 477.394531 519.910156 478.253906 520.125 479.101562 520.382812 C 479.949219 520.640625 480.785156 520.9375 481.605469 521.277344 C 482.425781 521.617188 483.226562 521.996094 484.007812 522.414062 C 484.789062 522.832031 485.550781 523.285156 486.289062 523.777344 C 487.023438 524.269531 487.738281 524.796875 488.421875 525.359375 C 489.109375 525.921875 489.765625 526.515625 490.390625 527.144531 C 491.019531 527.769531 491.613281 528.425781 492.175781 529.113281 C 492.738281 529.796875 493.265625 530.507812 493.761719 531.246094 C 494.253906 531.980469 494.707031 532.742188 495.128906 533.523438 C 495.546875 534.304688 495.925781 535.105469 496.261719 535.925781 C 496.601562 536.742188 496.902344 537.578125 497.160156 538.425781 C 497.417969 539.273438 497.632812 540.132812 497.804688 541 C 497.976562 541.871094 498.109375 542.746094 498.195312 543.628906 C 498.28125 544.511719 498.324219 545.394531 498.324219 546.28125 Z M 498.324219 546.28125 " fill-opacity="1" fill-rule="nonzero"/><path fill="#e17e23" d="M 553.671875 390.472656 C 554.273438 390.472656 554.875 390.5 555.472656 390.558594 C 556.070312 390.617188 556.664062 390.707031 557.253906 390.824219 C 557.84375 390.941406 558.425781 391.085938 559.003906 391.261719 C 559.578125 391.4375 560.144531 391.636719 560.699219 391.867188 C 561.253906 392.097656 561.796875 392.355469 562.328125 392.636719 C 562.855469 392.921875 563.371094 393.230469 563.871094 393.5625 C 564.371094 393.898438 564.855469 394.253906 565.320312 394.636719 C 565.785156 395.015625 566.230469 395.421875 566.652344 395.84375 C 567.078125 396.269531 567.480469 396.714844 567.863281 397.179688 C 568.246094 397.644531 568.601562 398.125 568.9375 398.625 C 569.269531 399.125 569.578125 399.640625 569.863281 400.167969 C 570.148438 400.699219 570.402344 401.242188 570.632812 401.796875 C 570.863281 402.351562 571.066406 402.917969 571.238281 403.492188 C 571.414062 404.066406 571.5625 404.648438 571.679688 405.238281 C 571.796875 405.828125 571.882812 406.421875 571.941406 407.019531 C 572 407.617188 572.03125 408.21875 572.03125 408.816406 L 572.03125 550.382812 C 572.03125 550.984375 572 551.582031 571.941406 552.179688 C 571.882812 552.78125 571.796875 553.371094 571.679688 553.960938 C 571.5625 554.550781 571.414062 555.132812 571.238281 555.707031 C 571.066406 556.285156 570.863281 556.847656 570.632812 557.402344 C 570.402344 557.960938 570.148438 558.5 569.863281 559.03125 C 569.578125 559.5625 569.269531 560.078125 568.9375 560.574219 C 568.601562 561.074219 568.246094 561.558594 567.863281 562.023438 C 567.480469 562.488281 567.078125 562.929688 566.652344 563.355469 C 566.230469 563.78125 565.785156 564.183594 565.320312 564.566406 C 564.855469 564.945312 564.371094 565.304688 563.871094 565.636719 C 563.371094 565.972656 562.855469 566.28125 562.328125 566.5625 C 561.796875 566.847656 561.253906 567.101562 560.699219 567.332031 C 560.144531 567.5625 559.578125 567.765625 559.003906 567.941406 C 558.425781 568.113281 557.84375 568.261719 557.253906 568.378906 C 556.664062 568.496094 556.070312 568.582031 555.472656 568.640625 C 554.875 568.699219 554.273438 568.730469 553.671875 568.730469 C 553.074219 568.730469 552.472656 568.699219 551.875 568.640625 C 551.277344 568.582031 550.683594 568.496094 550.09375 568.378906 C 549.503906 568.261719 548.921875 568.113281 548.34375 567.941406 C 547.769531 567.765625 547.203125 567.5625 546.648438 567.332031 C 546.09375 567.101562 545.550781 566.847656 545.019531 566.5625 C 544.488281 566.28125 543.976562 565.972656 543.476562 565.636719 C 542.976562 565.304688 542.492188 564.945312 542.027344 564.566406 C 541.5625 564.183594 541.117188 563.78125 540.691406 563.355469 C 540.269531 562.929688 539.863281 562.488281 539.484375 562.023438 C 539.101562 561.558594 538.746094 561.074219 538.410156 560.574219 C 538.078125 560.078125 537.765625 559.5625 537.484375 559.03125 C 537.199219 558.5 536.945312 557.960938 536.714844 557.402344 C 536.484375 556.847656 536.28125 556.285156 536.105469 555.707031 C 535.933594 555.132812 535.785156 554.550781 535.667969 553.960938 C 535.550781 553.371094 535.464844 552.78125 535.40625 552.179688 C 535.347656 551.582031 535.316406 550.984375 535.316406 550.382812 L 535.316406 408.816406 C 535.316406 408.21875 535.347656 407.617188 535.40625 407.019531 C 535.464844 406.421875 535.550781 405.828125 535.667969 405.238281 C 535.785156 404.648438 535.933594 404.066406 536.105469 403.492188 C 536.28125 402.917969 536.484375 402.351562 536.714844 401.796875 C 536.945312 401.242188 537.199219 400.699219 537.484375 400.167969 C 537.765625 399.640625 538.078125 399.125 538.410156 398.625 C 538.746094 398.125 539.101562 397.644531 539.484375 397.179688 C 539.863281 396.714844 540.269531 396.269531 540.691406 395.84375 C 541.117188 395.421875 541.5625 395.015625 542.027344 394.636719 C 542.492188 394.253906 542.976562 393.898438 543.476562 393.5625 C 543.976562 393.230469 544.488281 392.921875 545.019531 392.636719 C 545.550781 392.355469 546.09375 392.097656 546.648438 391.867188 C 547.203125 391.636719 547.769531 391.4375 548.34375 391.261719 C 548.921875 391.085938 549.503906 390.941406 550.09375 390.824219 C 550.683594 390.707031 551.277344 390.617188 551.875 390.558594 C 552.472656 390.5 553.074219 390.472656 553.671875 390.472656 Z M 553.671875 390.472656 " fill-opacity="1" fill-rule="nonzero"/><path fill="#05516a" d="M 632.746094 299.679688 C 633.347656 299.679688 633.949219 299.710938 634.546875 299.769531 C 635.144531 299.828125 635.738281 299.917969 636.328125 300.035156 C 636.917969 300.152344 637.5 300.296875 638.074219 300.472656 C 638.652344 300.644531 639.214844 300.847656 639.773438 301.078125 C 640.328125 301.308594 640.871094 301.5625 641.402344 301.847656 C 641.929688 302.128906 642.445312 302.4375 642.945312 302.773438 C 643.445312 303.105469 643.929688 303.464844 644.390625 303.84375 C 644.855469 304.226562 645.300781 304.628906 645.726562 305.054688 C 646.152344 305.480469 646.554688 305.925781 646.9375 306.386719 C 647.320312 306.851562 647.675781 307.335938 648.011719 307.835938 C 648.34375 308.335938 648.652344 308.847656 648.9375 309.378906 C 649.21875 309.910156 649.476562 310.453125 649.707031 311.007812 C 649.9375 311.5625 650.140625 312.125 650.3125 312.703125 C 650.488281 313.277344 650.632812 313.859375 650.75 314.449219 C 650.867188 315.039062 650.957031 315.632812 651.015625 316.230469 C 651.074219 316.828125 651.105469 317.425781 651.105469 318.027344 L 651.105469 459.59375 C 651.105469 460.191406 651.074219 460.792969 651.015625 461.390625 C 650.957031 461.988281 650.867188 462.582031 650.75 463.171875 C 650.632812 463.761719 650.488281 464.34375 650.3125 464.917969 C 650.140625 465.492188 649.9375 466.058594 649.707031 466.613281 C 649.476562 467.167969 649.21875 467.710938 648.9375 468.242188 C 648.652344 468.769531 648.34375 469.285156 648.011719 469.785156 C 647.675781 470.285156 647.320312 470.765625 646.9375 471.230469 C 646.554688 471.695312 646.152344 472.140625 645.726562 472.566406 C 645.300781 472.992188 644.855469 473.394531 644.390625 473.773438 C 643.929688 474.15625 643.445312 474.511719 642.945312 474.847656 C 642.445312 475.179688 641.929688 475.488281 641.402344 475.773438 C 640.871094 476.054688 640.328125 476.3125 639.773438 476.542969 C 639.214844 476.773438 638.652344 476.976562 638.074219 477.148438 C 637.5 477.324219 636.917969 477.46875 636.328125 477.585938 C 635.738281 477.703125 635.144531 477.792969 634.546875 477.851562 C 633.949219 477.910156 633.347656 477.9375 632.746094 477.9375 C 632.144531 477.9375 631.546875 477.910156 630.949219 477.851562 C 630.347656 477.792969 629.753906 477.703125 629.164062 477.585938 C 628.574219 477.46875 627.992188 477.324219 627.417969 477.148438 C 626.84375 476.976562 626.277344 476.773438 625.722656 476.542969 C 625.167969 476.3125 624.625 476.054688 624.09375 475.773438 C 623.5625 475.488281 623.046875 475.179688 622.546875 474.847656 C 622.046875 474.511719 621.566406 474.15625 621.101562 473.773438 C 620.636719 473.394531 620.191406 472.992188 619.765625 472.566406 C 619.339844 472.140625 618.9375 471.695312 618.558594 471.230469 C 618.175781 470.765625 617.816406 470.285156 617.484375 469.785156 C 617.148438 469.285156 616.839844 468.769531 616.558594 468.242188 C 616.273438 467.710938 616.015625 467.167969 615.789062 466.613281 C 615.558594 466.058594 615.355469 465.492188 615.179688 464.917969 C 615.007812 464.34375 614.859375 463.761719 614.742188 463.171875 C 614.625 462.582031 614.539062 461.988281 614.476562 461.390625 C 614.417969 460.792969 614.390625 460.191406 614.390625 459.59375 L 614.390625 318.027344 C 614.390625 317.425781 614.417969 316.828125 614.476562 316.230469 C 614.539062 315.632812 614.625 315.039062 614.742188 314.449219 C 614.859375 313.859375 615.007812 313.277344 615.179688 312.703125 C 615.355469 312.125 615.558594 311.5625 615.789062 311.007812 C 616.015625 310.453125 616.273438 309.910156 616.558594 309.378906 C 616.839844 308.847656 617.148438 308.335938 617.484375 307.835938 C 617.816406 307.335938 618.175781 306.851562 618.558594 306.386719 C 618.9375 305.925781 619.339844 305.480469 619.765625 305.054688 C 620.191406 304.628906 620.636719 304.226562 621.101562 303.84375 C 621.566406 303.464844 622.046875 303.105469 622.546875 302.773438 C 623.046875 302.4375 623.5625 302.128906 624.09375 301.847656 C 624.625 301.5625 625.167969 301.308594 625.722656 301.078125 C 626.277344 300.847656 626.84375 300.644531 627.417969 300.472656 C 627.992188 300.296875 628.574219 300.152344 629.164062 300.035156 C 629.753906 299.917969 630.347656 299.828125 630.949219 299.769531 C 631.546875 299.710938 632.144531 299.679688 632.746094 299.679688 Z M 632.746094 299.679688 " fill-opacity="1" fill-rule="nonzero"/><path fill="#05516a" d="M 581.269531 328.222656 C 581.269531 329.109375 581.226562 329.992188 581.136719 330.875 C 581.050781 331.757812 580.921875 332.632812 580.746094 333.5 C 580.574219 334.371094 580.359375 335.230469 580.101562 336.078125 C 579.84375 336.925781 579.546875 337.757812 579.207031 338.578125 C 578.867188 339.398438 578.488281 340.199219 578.070312 340.980469 C 577.652344 341.761719 577.195312 342.519531 576.703125 343.257812 C 576.210938 343.996094 575.683594 344.707031 575.121094 345.390625 C 574.558594 346.074219 573.960938 346.730469 573.335938 347.359375 C 572.707031 347.984375 572.050781 348.578125 571.363281 349.140625 C 570.679688 349.703125 569.96875 350.230469 569.230469 350.722656 C 568.492188 351.214844 567.734375 351.671875 566.949219 352.089844 C 566.167969 352.507812 565.367188 352.886719 564.546875 353.226562 C 563.726562 353.5625 562.894531 353.863281 562.042969 354.121094 C 561.195312 354.378906 560.335938 354.59375 559.464844 354.765625 C 558.597656 354.9375 557.71875 355.066406 556.835938 355.15625 C 555.953125 355.242188 555.070312 355.285156 554.183594 355.285156 C 553.292969 355.285156 552.410156 355.242188 551.527344 355.15625 C 550.644531 355.066406 549.765625 354.9375 548.898438 354.765625 C 548.027344 354.59375 547.167969 354.378906 546.320312 354.121094 C 545.46875 353.863281 544.636719 353.5625 543.816406 353.226562 C 542.996094 352.886719 542.195312 352.507812 541.414062 352.089844 C 540.628906 351.671875 539.871094 351.214844 539.132812 350.722656 C 538.394531 350.230469 537.683594 349.703125 537 349.140625 C 536.3125 348.578125 535.65625 347.984375 535.027344 347.359375 C 534.402344 346.730469 533.804688 346.074219 533.242188 345.390625 C 532.679688 344.707031 532.152344 343.996094 531.660156 343.257812 C 531.167969 342.519531 530.710938 341.761719 530.292969 340.980469 C 529.875 340.199219 529.496094 339.398438 529.15625 338.578125 C 528.816406 337.757812 528.519531 336.925781 528.261719 336.078125 C 528.003906 335.230469 527.789062 334.371094 527.617188 333.5 C 527.441406 332.632812 527.3125 331.757812 527.226562 330.875 C 527.136719 329.992188 527.09375 329.109375 527.09375 328.222656 C 527.09375 327.335938 527.136719 326.449219 527.226562 325.570312 C 527.3125 324.6875 527.441406 323.8125 527.617188 322.941406 C 527.789062 322.070312 528.003906 321.214844 528.261719 320.367188 C 528.519531 319.515625 528.816406 318.683594 529.15625 317.863281 C 529.496094 317.046875 529.875 316.246094 530.292969 315.464844 C 530.710938 314.683594 531.167969 313.921875 531.660156 313.1875 C 532.152344 312.449219 532.679688 311.738281 533.242188 311.050781 C 533.804688 310.367188 534.402344 309.710938 535.027344 309.085938 C 535.65625 308.457031 536.3125 307.863281 537 307.300781 C 537.683594 306.738281 538.394531 306.210938 539.132812 305.71875 C 539.871094 305.226562 540.628906 304.769531 541.414062 304.351562 C 542.195312 303.933594 542.996094 303.558594 543.816406 303.21875 C 544.636719 302.878906 545.46875 302.582031 546.320312 302.324219 C 547.167969 302.066406 548.027344 301.851562 548.898438 301.675781 C 549.765625 301.503906 550.644531 301.375 551.527344 301.289062 C 552.410156 301.199219 553.292969 301.15625 554.183594 301.15625 C 555.070312 301.15625 555.953125 301.199219 556.835938 301.289062 C 557.71875 301.375 558.597656 301.503906 559.464844 301.675781 C 560.335938 301.851562 561.195312 302.066406 562.042969 302.324219 C 562.894531 302.582031 563.726562 302.878906 564.546875 303.21875 C 565.367188 303.558594 566.167969 303.933594 566.949219 304.351562 C 567.734375 304.769531 568.492188 305.226562 569.230469 305.71875 C 569.96875 306.210938 570.679688 306.738281 571.363281 307.300781 C 572.050781 307.863281 572.707031 308.457031 573.335938 309.085938 C 573.960938 309.710938 574.558594 310.367188 575.121094 311.050781 C 575.683594 311.738281 576.210938 312.449219 576.703125 313.183594 C 577.195312 313.921875 577.652344 314.683594 578.070312 315.464844 C 578.488281 316.246094 578.867188 317.046875 579.207031 317.863281 C 579.546875 318.683594 579.84375 319.515625 580.101562 320.367188 C 580.359375 321.214844 580.574219 322.070312 580.746094 322.941406 C 580.921875 323.8125 581.050781 324.6875 581.136719 325.570312 C 581.226562 326.449219 581.269531 327.335938 581.269531 328.222656 Z M 581.269531 328.222656 " fill-opacity="1" fill-rule="nonzero"/><g clip-path="url(#06f8ed0a63)"><path fill="#d29526" d="M 659.070312 539.613281 C 659.070312 540.5 659.027344 541.386719 658.9375 542.269531 C 658.851562 543.148438 658.722656 544.027344 658.546875 544.894531 C 658.375 545.765625 658.160156 546.621094 657.902344 547.472656 C 657.644531 548.320312 657.347656 549.152344 657.007812 549.972656 C 656.667969 550.789062 656.289062 551.589844 655.871094 552.371094 C 655.453125 553.15625 654.996094 553.914062 654.503906 554.652344 C 654.011719 555.386719 653.484375 556.097656 652.921875 556.785156 C 652.359375 557.46875 651.761719 558.125 651.136719 558.753906 C 650.507812 559.378906 649.851562 559.972656 649.164062 560.535156 C 648.480469 561.097656 647.769531 561.625 647.03125 562.117188 C 646.292969 562.609375 645.535156 563.066406 644.75 563.484375 C 643.96875 563.902344 643.167969 564.28125 642.347656 564.617188 C 641.527344 564.957031 640.695312 565.257812 639.84375 565.511719 C 638.996094 565.769531 638.136719 565.984375 637.265625 566.160156 C 636.398438 566.332031 635.519531 566.460938 634.636719 566.546875 C 633.753906 566.636719 632.871094 566.679688 631.980469 566.679688 C 631.09375 566.679688 630.210938 566.636719 629.328125 566.546875 C 628.445312 566.460938 627.566406 566.332031 626.699219 566.160156 C 625.828125 565.984375 624.96875 565.769531 624.121094 565.511719 C 623.269531 565.257812 622.4375 564.957031 621.617188 564.617188 C 620.796875 564.28125 619.996094 563.902344 619.214844 563.484375 C 618.429688 563.066406 617.671875 562.609375 616.933594 562.117188 C 616.195312 561.625 615.484375 561.097656 614.800781 560.535156 C 614.113281 559.972656 613.457031 559.378906 612.828125 558.753906 C 612.203125 558.125 611.605469 557.46875 611.042969 556.785156 C 610.480469 556.097656 609.953125 555.386719 609.460938 554.652344 C 608.96875 553.914062 608.511719 553.15625 608.09375 552.371094 C 607.675781 551.589844 607.296875 550.789062 606.957031 549.972656 C 606.617188 549.152344 606.320312 548.320312 606.0625 547.472656 C 605.804688 546.621094 605.589844 545.765625 605.417969 544.894531 C 605.242188 544.027344 605.113281 543.148438 605.027344 542.269531 C 604.9375 541.386719 604.894531 540.5 604.894531 539.613281 C 604.894531 538.730469 604.9375 537.84375 605.027344 536.960938 C 605.113281 536.082031 605.242188 535.203125 605.417969 534.335938 C 605.589844 533.464844 605.804688 532.605469 606.0625 531.757812 C 606.320312 530.910156 606.617188 530.078125 606.957031 529.257812 C 607.296875 528.4375 607.675781 527.640625 608.09375 526.855469 C 608.511719 526.074219 608.96875 525.316406 609.460938 524.578125 C 609.953125 523.84375 610.480469 523.132812 611.042969 522.445312 C 611.605469 521.761719 612.203125 521.105469 612.828125 520.476562 C 613.457031 519.851562 614.113281 519.257812 614.800781 518.695312 C 615.484375 518.132812 616.195312 517.605469 616.933594 517.113281 C 617.671875 516.621094 618.429688 516.164062 619.214844 515.746094 C 619.996094 515.328125 620.796875 514.949219 621.617188 514.609375 C 622.4375 514.273438 623.269531 513.972656 624.121094 513.714844 C 624.96875 513.460938 625.828125 513.242188 626.699219 513.070312 C 627.566406 512.898438 628.445312 512.769531 629.328125 512.679688 C 630.210938 512.59375 631.09375 512.550781 631.980469 512.550781 C 632.871094 512.550781 633.753906 512.59375 634.636719 512.679688 C 635.519531 512.769531 636.398438 512.898438 637.265625 513.070312 C 638.136719 513.242188 638.996094 513.460938 639.84375 513.714844 C 640.695312 513.972656 641.527344 514.273438 642.347656 514.609375 C 643.167969 514.949219 643.96875 515.328125 644.75 515.746094 C 645.535156 516.164062 646.292969 516.621094 647.03125 517.113281 C 647.769531 517.605469 648.480469 518.132812 649.164062 518.695312 C 649.851562 519.257812 650.507812 519.851562 651.136719 520.476562 C 651.761719 521.105469 652.359375 521.761719 652.921875 522.445312 C 653.484375 523.132812 654.011719 523.84375 654.503906 524.578125 C 654.996094 525.316406 655.453125 526.074219 655.871094 526.855469 C 656.289062 527.640625 656.667969 528.4375 657.007812 529.257812 C 657.347656 530.078125 657.644531 530.910156 657.902344 531.757812 C 658.160156 532.605469 658.375 533.464844 658.546875 534.335938 C 658.722656 535.203125 658.851562 536.082031 658.9375 536.960938 C 659.027344 537.84375 659.070312 538.730469 659.070312 539.613281 Z M 659.070312 539.613281 " fill-opacity="1" fill-rule="nonzero"/></g><path fill="#05516a" d="M 391.761719 98.070312 C 392.359375 98.070312 392.960938 98.101562 393.558594 98.160156 C 394.15625 98.21875 394.75 98.304688 395.339844 98.421875 C 395.929688 98.539062 396.511719 98.6875 397.089844 98.859375 C 397.664062 99.035156 398.230469 99.238281 398.785156 99.46875 C 399.339844 99.699219 399.882812 99.953125 400.414062 100.238281 C 400.945312 100.519531 401.457031 100.828125 401.957031 101.164062 C 402.457031 101.496094 402.941406 101.855469 403.40625 102.234375 C 403.871094 102.617188 404.316406 103.019531 404.742188 103.445312 C 405.164062 103.871094 405.570312 104.3125 405.949219 104.777344 C 406.332031 105.242188 406.6875 105.726562 407.023438 106.226562 C 407.355469 106.722656 407.667969 107.238281 407.949219 107.769531 C 408.234375 108.300781 408.488281 108.839844 408.71875 109.398438 C 408.949219 109.953125 409.152344 110.515625 409.328125 111.09375 C 409.5 111.667969 409.648438 112.25 409.765625 112.839844 C 409.882812 113.429688 409.96875 114.023438 410.027344 114.621094 C 410.085938 115.21875 410.117188 115.816406 410.117188 116.417969 L 410.117188 257.984375 C 410.117188 258.582031 410.085938 259.183594 410.027344 259.78125 C 409.96875 260.378906 409.882812 260.972656 409.765625 261.5625 C 409.648438 262.152344 409.5 262.734375 409.328125 263.308594 C 409.152344 263.882812 408.949219 264.449219 408.71875 265.003906 C 408.488281 265.558594 408.234375 266.101562 407.949219 266.632812 C 407.667969 267.160156 407.355469 267.675781 407.023438 268.175781 C 406.6875 268.675781 406.332031 269.15625 405.949219 269.621094 C 405.570312 270.085938 405.164062 270.53125 404.742188 270.957031 C 404.316406 271.378906 403.871094 271.785156 403.40625 272.164062 C 402.941406 272.546875 402.457031 272.902344 401.957031 273.238281 C 401.457031 273.570312 400.945312 273.878906 400.414062 274.164062 C 399.882812 274.445312 399.339844 274.703125 398.785156 274.933594 C 398.230469 275.164062 397.664062 275.363281 397.089844 275.539062 C 396.511719 275.714844 395.929688 275.859375 395.339844 275.976562 C 394.75 276.09375 394.15625 276.183594 393.558594 276.242188 C 392.960938 276.300781 392.359375 276.328125 391.761719 276.328125 C 391.160156 276.328125 390.558594 276.300781 389.960938 276.242188 C 389.363281 276.183594 388.769531 276.09375 388.179688 275.976562 C 387.589844 275.859375 387.007812 275.714844 386.429688 275.539062 C 385.855469 275.363281 385.289062 275.164062 384.734375 274.933594 C 384.179688 274.703125 383.636719 274.445312 383.105469 274.164062 C 382.578125 273.878906 382.0625 273.570312 381.5625 273.238281 C 381.0625 272.902344 380.578125 272.546875 380.113281 272.164062 C 379.648438 271.785156 379.203125 271.378906 378.78125 270.957031 C 378.355469 270.53125 377.953125 270.085938 377.570312 269.621094 C 377.1875 269.15625 376.832031 268.675781 376.496094 268.175781 C 376.164062 267.675781 375.855469 267.160156 375.570312 266.632812 C 375.285156 266.101562 375.03125 265.558594 374.800781 265.003906 C 374.570312 264.449219 374.367188 263.882812 374.195312 263.308594 C 374.019531 262.734375 373.871094 262.152344 373.753906 261.5625 C 373.636719 260.972656 373.550781 260.378906 373.492188 259.78125 C 373.433594 259.183594 373.402344 258.582031 373.402344 257.984375 L 373.402344 116.417969 C 373.402344 115.816406 373.433594 115.21875 373.492188 114.621094 C 373.550781 114.023438 373.636719 113.429688 373.753906 112.839844 C 373.871094 112.25 374.019531 111.667969 374.191406 111.09375 C 374.367188 110.515625 374.570312 109.953125 374.800781 109.398438 C 375.03125 108.839844 375.285156 108.300781 375.570312 107.769531 C 375.855469 107.238281 376.164062 106.722656 376.496094 106.226562 C 376.832031 105.726562 377.1875 105.242188 377.570312 104.777344 C 377.953125 104.3125 378.355469 103.871094 378.78125 103.445312 C 379.203125 103.019531 379.648438 102.617188 380.113281 102.234375 C 380.578125 101.855469 381.0625 101.496094 381.5625 101.164062 C 382.0625 100.828125 382.578125 100.519531 383.105469 100.238281 C 383.636719 99.953125 384.179688 99.699219 384.734375 99.46875 C 385.289062 99.238281 385.855469 99.035156 386.429688 98.859375 C 387.007812 98.6875 387.589844 98.539062 388.179688 98.421875 C 388.769531 98.304688 389.363281 98.21875 389.960938 98.160156 C 390.558594 98.101562 391.160156 98.070312 391.761719 98.070312 Z M 391.761719 98.070312 " fill-opacity="1" fill-rule="nonzero"/><path fill="#d29526" d="M 470.832031 7.28125 C 471.433594 7.28125 472.035156 7.308594 472.632812 7.367188 C 473.230469 7.425781 473.824219 7.515625 474.414062 7.632812 C 475.003906 7.75 475.585938 7.894531 476.164062 8.070312 C 476.738281 8.246094 477.304688 8.445312 477.859375 8.675781 C 478.414062 8.90625 478.957031 9.164062 479.488281 9.445312 C 480.015625 9.730469 480.53125 10.039062 481.03125 10.371094 C 481.53125 10.707031 482.015625 11.0625 482.480469 11.445312 C 482.945312 11.824219 483.386719 12.230469 483.8125 12.652344 C 484.238281 13.078125 484.640625 13.523438 485.023438 13.988281 C 485.40625 14.453125 485.761719 14.933594 486.097656 15.433594 C 486.429688 15.933594 486.738281 16.449219 487.023438 16.980469 C 487.304688 17.507812 487.5625 18.050781 487.792969 18.605469 C 488.023438 19.160156 488.226562 19.726562 488.398438 20.300781 C 488.574219 20.875 488.71875 21.457031 488.835938 22.046875 C 488.953125 22.636719 489.042969 23.230469 489.101562 23.828125 C 489.160156 24.425781 489.191406 25.027344 489.191406 25.628906 L 489.191406 167.191406 C 489.191406 167.792969 489.160156 168.390625 489.101562 168.992188 C 489.042969 169.589844 488.953125 170.183594 488.835938 170.769531 C 488.71875 171.359375 488.574219 171.941406 488.398438 172.519531 C 488.226562 173.09375 488.023438 173.65625 487.792969 174.214844 C 487.5625 174.769531 487.304688 175.3125 487.023438 175.839844 C 486.738281 176.371094 486.429688 176.886719 486.097656 177.386719 C 485.761719 177.882812 485.40625 178.367188 485.023438 178.832031 C 484.640625 179.296875 484.238281 179.742188 483.8125 180.164062 C 483.386719 180.589844 482.945312 180.992188 482.480469 181.375 C 482.015625 181.753906 481.53125 182.113281 481.03125 182.445312 C 480.53125 182.78125 480.015625 183.089844 479.488281 183.371094 C 478.957031 183.65625 478.414062 183.914062 477.859375 184.140625 C 477.304688 184.371094 476.738281 184.574219 476.164062 184.75 C 475.585938 184.921875 475.003906 185.070312 474.414062 185.1875 C 473.824219 185.304688 473.230469 185.390625 472.632812 185.449219 C 472.035156 185.507812 471.433594 185.539062 470.832031 185.539062 C 470.230469 185.539062 469.632812 185.507812 469.035156 185.449219 C 468.4375 185.390625 467.839844 185.304688 467.253906 185.1875 C 466.664062 185.070312 466.078125 184.921875 465.503906 184.75 C 464.929688 184.574219 464.363281 184.371094 463.808594 184.140625 C 463.253906 183.914062 462.710938 183.65625 462.179688 183.371094 C 461.648438 183.089844 461.132812 182.78125 460.632812 182.445312 C 460.136719 182.113281 459.652344 181.753906 459.1875 181.375 C 458.722656 180.992188 458.277344 180.589844 457.851562 180.164062 C 457.429688 179.742188 457.023438 179.296875 456.644531 178.832031 C 456.261719 178.367188 455.902344 177.882812 455.570312 177.386719 C 455.234375 176.886719 454.925781 176.371094 454.644531 175.839844 C 454.359375 175.3125 454.105469 174.769531 453.875 174.214844 C 453.644531 173.65625 453.441406 173.09375 453.265625 172.519531 C 453.09375 171.941406 452.945312 171.359375 452.828125 170.769531 C 452.710938 170.183594 452.625 169.589844 452.566406 168.992188 C 452.503906 168.390625 452.476562 167.792969 452.476562 167.191406 L 452.476562 25.628906 C 452.476562 25.027344 452.503906 24.425781 452.566406 23.828125 C 452.625 23.230469 452.710938 22.636719 452.828125 22.046875 C 452.945312 21.457031 453.09375 20.875 453.265625 20.300781 C 453.441406 19.726562 453.644531 19.160156 453.875 18.605469 C 454.105469 18.050781 454.359375 17.507812 454.644531 16.980469 C 454.925781 16.449219 455.234375 15.933594 455.570312 15.433594 C 455.902344 14.933594 456.261719 14.453125 456.644531 13.988281 C 457.023438 13.523438 457.429688 13.078125 457.851562 12.652344 C 458.277344 12.230469 458.722656 11.824219 459.1875 11.445312 C 459.652344 11.0625 460.136719 10.707031 460.632812 10.371094 C 461.132812 10.039062 461.648438 9.730469 462.179688 9.445312 C 462.710938 9.164062 463.253906 8.90625 463.808594 8.675781 C 464.363281 8.445312 464.929688 8.246094 465.503906 8.070312 C 466.078125 7.894531 466.664062 7.75 467.253906 7.632812 C 467.839844 7.515625 468.4375 7.425781 469.035156 7.367188 C 469.632812 7.308594 470.230469 7.28125 470.832031 7.28125 Z M 470.832031 7.28125 " fill-opacity="1" fill-rule="nonzero"/><g clip-path="url(#e873e11ee8)"><path fill="#e17e23" d="M 419.355469 35.820312 C 419.355469 36.707031 419.3125 37.589844 419.222656 38.472656 C 419.136719 39.355469 419.007812 40.230469 418.835938 41.101562 C 418.660156 41.96875 418.445312 42.828125 418.1875 43.675781 C 417.929688 44.527344 417.632812 45.359375 417.292969 46.179688 C 416.953125 46.996094 416.574219 47.796875 416.15625 48.578125 C 415.738281 49.359375 415.28125 50.121094 414.789062 50.855469 C 414.296875 51.59375 413.769531 52.304688 413.207031 52.988281 C 412.644531 53.675781 412.046875 54.332031 411.421875 54.957031 C 410.792969 55.585938 410.136719 56.179688 409.453125 56.742188 C 408.765625 57.304688 408.054688 57.832031 407.316406 58.324219 C 406.578125 58.816406 405.820312 59.269531 405.035156 59.6875 C 404.253906 60.105469 403.453125 60.484375 402.632812 60.824219 C 401.8125 61.164062 400.980469 61.460938 400.128906 61.71875 C 399.28125 61.976562 398.421875 62.191406 397.550781 62.363281 C 396.683594 62.539062 395.804688 62.667969 394.921875 62.753906 C 394.039062 62.839844 393.15625 62.886719 392.269531 62.886719 C 391.382812 62.886719 390.496094 62.839844 389.613281 62.753906 C 388.730469 62.667969 387.855469 62.539062 386.984375 62.363281 C 386.113281 62.191406 385.253906 61.976562 384.40625 61.71875 C 383.554688 61.460938 382.722656 61.164062 381.902344 60.824219 C 381.082031 60.484375 380.28125 60.105469 379.5 59.6875 C 378.71875 59.269531 377.957031 58.816406 377.21875 58.324219 C 376.480469 57.832031 375.769531 57.304688 375.085938 56.742188 C 374.398438 56.179688 373.742188 55.585938 373.113281 54.957031 C 372.488281 54.332031 371.894531 53.675781 371.328125 52.988281 C 370.765625 52.304688 370.238281 51.59375 369.746094 50.855469 C 369.253906 50.121094 368.796875 49.359375 368.378906 48.578125 C 367.960938 47.796875 367.582031 46.996094 367.242188 46.179688 C 366.902344 45.359375 366.605469 44.527344 366.347656 43.675781 C 366.089844 42.828125 365.875 41.96875 365.703125 41.101562 C 365.527344 40.230469 365.398438 39.355469 365.3125 38.472656 C 365.226562 37.589844 365.179688 36.707031 365.179688 35.820312 C 365.179688 34.933594 365.226562 34.050781 365.3125 33.167969 C 365.398438 32.285156 365.527344 31.410156 365.703125 30.542969 C 365.875 29.671875 366.089844 28.8125 366.347656 27.964844 C 366.605469 27.117188 366.902344 26.28125 367.242188 25.464844 C 367.582031 24.644531 367.960938 23.84375 368.378906 23.0625 C 368.796875 22.28125 369.253906 21.523438 369.746094 20.785156 C 370.238281 20.046875 370.765625 19.335938 371.328125 18.652344 C 371.894531 17.964844 372.488281 17.3125 373.113281 16.683594 C 373.742188 16.058594 374.398438 15.460938 375.085938 14.898438 C 375.769531 14.339844 376.480469 13.8125 377.21875 13.316406 C 377.957031 12.824219 378.71875 12.371094 379.5 11.953125 C 380.28125 11.535156 381.082031 11.15625 381.902344 10.816406 C 382.722656 10.476562 383.554688 10.179688 384.40625 9.921875 C 385.253906 9.664062 386.113281 9.449219 386.984375 9.277344 C 387.855469 9.105469 388.730469 8.972656 389.613281 8.886719 C 390.496094 8.800781 391.382812 8.757812 392.269531 8.757812 C 393.15625 8.757812 394.039062 8.800781 394.921875 8.886719 C 395.804688 8.972656 396.683594 9.105469 397.550781 9.277344 C 398.421875 9.449219 399.28125 9.664062 400.128906 9.921875 C 400.980469 10.179688 401.8125 10.476562 402.632812 10.816406 C 403.453125 11.15625 404.253906 11.535156 405.035156 11.953125 C 405.820312 12.371094 406.578125 12.824219 407.316406 13.316406 C 408.054688 13.8125 408.765625 14.339844 409.453125 14.898438 C 410.136719 15.460938 410.792969 16.058594 411.421875 16.683594 C 412.046875 17.3125 412.644531 17.964844 413.207031 18.652344 C 413.769531 19.335938 414.296875 20.046875 414.789062 20.785156 C 415.28125 21.523438 415.738281 22.28125 416.15625 23.0625 C 416.574219 23.84375 416.953125 24.644531 417.292969 25.464844 C 417.632812 26.28125 417.929688 27.117188 418.1875 27.964844 C 418.445312 28.8125 418.660156 29.671875 418.835938 30.542969 C 419.007812 31.410156 419.136719 32.285156 419.222656 33.167969 C 419.3125 34.050781 419.355469 34.933594 419.355469 35.820312 Z M 419.355469 35.820312 " fill-opacity="1" fill-rule="nonzero"/></g><path fill="#05516a" d="M 497.15625 247.214844 C 497.15625 248.101562 497.113281 248.984375 497.023438 249.867188 C 496.9375 250.75 496.808594 251.625 496.632812 252.496094 C 496.460938 253.363281 496.246094 254.222656 495.988281 255.070312 C 495.730469 255.917969 495.433594 256.753906 495.09375 257.570312 C 494.753906 258.390625 494.375 259.191406 493.957031 259.972656 C 493.539062 260.753906 493.082031 261.511719 492.589844 262.25 C 492.097656 262.988281 491.570312 263.699219 491.007812 264.382812 C 490.445312 265.070312 489.847656 265.726562 489.222656 266.351562 C 488.59375 266.976562 487.9375 267.574219 487.253906 268.136719 C 486.566406 268.699219 485.855469 269.226562 485.117188 269.71875 C 484.378906 270.210938 483.621094 270.664062 482.835938 271.082031 C 482.054688 271.5 481.253906 271.878906 480.433594 272.21875 C 479.613281 272.558594 478.78125 272.855469 477.929688 273.113281 C 477.082031 273.371094 476.222656 273.585938 475.351562 273.757812 C 474.484375 273.929688 473.605469 274.0625 472.722656 274.148438 C 471.839844 274.234375 470.957031 274.277344 470.070312 274.277344 C 469.179688 274.277344 468.296875 274.234375 467.414062 274.148438 C 466.53125 274.0625 465.65625 273.929688 464.785156 273.757812 C 463.914062 273.585938 463.054688 273.371094 462.207031 273.113281 C 461.355469 272.855469 460.523438 272.558594 459.703125 272.21875 C 458.882812 271.878906 458.082031 271.5 457.300781 271.082031 C 456.519531 270.664062 455.757812 270.210938 455.019531 269.71875 C 454.28125 269.226562 453.570312 268.699219 452.886719 268.136719 C 452.199219 267.574219 451.542969 266.976562 450.914062 266.351562 C 450.289062 265.726562 449.691406 265.070312 449.128906 264.382812 C 448.566406 263.699219 448.039062 262.988281 447.546875 262.25 C 447.054688 261.511719 446.597656 260.753906 446.179688 259.972656 C 445.761719 259.191406 445.382812 258.390625 445.042969 257.570312 C 444.703125 256.753906 444.40625 255.917969 444.148438 255.070312 C 443.890625 254.222656 443.675781 253.363281 443.503906 252.496094 C 443.328125 251.625 443.199219 250.75 443.113281 249.867188 C 443.027344 248.984375 442.980469 248.101562 442.980469 247.214844 C 442.980469 246.328125 443.027344 245.445312 443.113281 244.5625 C 443.199219 243.679688 443.328125 242.804688 443.503906 241.933594 C 443.675781 241.066406 443.890625 240.207031 444.148438 239.359375 C 444.40625 238.511719 444.703125 237.675781 445.042969 236.859375 C 445.382812 236.039062 445.761719 235.238281 446.179688 234.457031 C 446.597656 233.675781 447.054688 232.914062 447.546875 232.179688 C 448.039062 231.441406 448.566406 230.730469 449.128906 230.046875 C 449.691406 229.359375 450.289062 228.703125 450.914062 228.078125 C 451.542969 227.449219 452.199219 226.855469 452.886719 226.292969 C 453.570312 225.730469 454.28125 225.203125 455.019531 224.710938 C 455.757812 224.21875 456.519531 223.765625 457.300781 223.347656 C 458.082031 222.929688 458.882812 222.550781 459.703125 222.210938 C 460.523438 221.871094 461.355469 221.574219 462.207031 221.316406 C 463.054688 221.058594 463.914062 220.84375 464.785156 220.671875 C 465.65625 220.496094 466.53125 220.367188 467.414062 220.28125 C 468.296875 220.195312 469.179688 220.152344 470.070312 220.152344 C 470.957031 220.152344 471.839844 220.195312 472.722656 220.28125 C 473.605469 220.367188 474.484375 220.496094 475.351562 220.671875 C 476.222656 220.84375 477.082031 221.058594 477.929688 221.316406 C 478.78125 221.574219 479.613281 221.871094 480.433594 222.210938 C 481.253906 222.550781 482.054688 222.929688 482.835938 223.347656 C 483.621094 223.765625 484.378906 224.21875 485.117188 224.710938 C 485.855469 225.203125 486.566406 225.730469 487.253906 226.292969 C 487.9375 226.855469 488.59375 227.449219 489.222656 228.078125 C 489.847656 228.703125 490.445312 229.359375 491.007812 230.046875 C 491.570312 230.730469 492.097656 231.441406 492.589844 232.179688 C 493.082031 232.914062 493.539062 233.675781 493.957031 234.457031 C 494.375 235.238281 494.753906 236.039062 495.09375 236.859375 C 495.433594 237.675781 495.730469 238.511719 495.988281 239.359375 C 496.246094 240.207031 496.460938 241.066406 496.632812 241.933594 C 496.808594 242.804688 496.9375 243.679688 497.023438 244.5625 C 497.113281 245.445312 497.15625 246.328125 497.15625 247.214844 Z M 497.15625 247.214844 " fill-opacity="1" fill-rule="nonzero"/><path fill="#e17e23" d="M 552.503906 91.394531 C 553.105469 91.394531 553.703125 91.425781 554.304688 91.484375 C 554.902344 91.542969 555.496094 91.628906 556.085938 91.746094 C 556.675781 91.863281 557.257812 92.011719 557.832031 92.183594 C 558.40625 92.359375 558.972656 92.5625 559.527344 92.792969 C 560.082031 93.019531 560.625 93.277344 561.15625 93.5625 C 561.6875 93.84375 562.203125 94.152344 562.703125 94.488281 C 563.203125 94.820312 563.683594 95.179688 564.148438 95.558594 C 564.613281 95.941406 565.058594 96.34375 565.484375 96.769531 C 565.910156 97.191406 566.3125 97.636719 566.695312 98.101562 C 567.074219 98.566406 567.433594 99.050781 567.765625 99.546875 C 568.101562 100.046875 568.410156 100.5625 568.691406 101.09375 C 568.976562 101.621094 569.234375 102.164062 569.464844 102.71875 C 569.691406 103.277344 569.894531 103.839844 570.070312 104.414062 C 570.246094 104.992188 570.390625 105.574219 570.507812 106.164062 C 570.625 106.75 570.714844 107.34375 570.773438 107.941406 C 570.832031 108.542969 570.859375 109.140625 570.859375 109.742188 L 570.859375 251.304688 C 570.859375 251.90625 570.832031 252.507812 570.773438 253.105469 C 570.714844 253.703125 570.625 254.296875 570.507812 254.886719 C 570.390625 255.476562 570.246094 256.058594 570.070312 256.632812 C 569.894531 257.207031 569.691406 257.773438 569.464844 258.328125 C 569.234375 258.882812 568.976562 259.425781 568.691406 259.953125 C 568.410156 260.484375 568.101562 261 567.765625 261.5 C 567.433594 262 567.074219 262.480469 566.695312 262.945312 C 566.3125 263.410156 565.910156 263.855469 565.484375 264.28125 C 565.058594 264.703125 564.613281 265.109375 564.148438 265.488281 C 563.683594 265.871094 563.203125 266.226562 562.703125 266.5625 C 562.203125 266.894531 561.6875 267.203125 561.15625 267.488281 C 560.625 267.769531 560.082031 268.027344 559.527344 268.257812 C 558.972656 268.488281 558.40625 268.6875 557.832031 268.863281 C 557.257812 269.039062 556.675781 269.183594 556.085938 269.300781 C 555.496094 269.417969 554.902344 269.507812 554.304688 269.566406 C 553.703125 269.625 553.105469 269.652344 552.503906 269.652344 C 551.902344 269.652344 551.300781 269.625 550.703125 269.566406 C 550.105469 269.507812 549.511719 269.417969 548.921875 269.300781 C 548.332031 269.183594 547.75 269.039062 547.175781 268.863281 C 546.597656 268.6875 546.035156 268.488281 545.480469 268.257812 C 544.921875 268.027344 544.378906 267.769531 543.851562 267.488281 C 543.320312 267.203125 542.804688 266.894531 542.304688 266.5625 C 541.804688 266.226562 541.324219 265.871094 540.859375 265.488281 C 540.394531 265.109375 539.949219 264.703125 539.523438 264.28125 C 539.097656 263.855469 538.695312 263.410156 538.3125 262.945312 C 537.933594 262.480469 537.574219 262 537.238281 261.5 C 536.90625 261 536.597656 260.484375 536.3125 259.953125 C 536.03125 259.425781 535.773438 258.882812 535.542969 258.328125 C 535.3125 257.773438 535.113281 257.207031 534.9375 256.632812 C 534.761719 256.058594 534.617188 255.476562 534.5 254.886719 C 534.382812 254.296875 534.292969 253.703125 534.234375 253.105469 C 534.175781 252.507812 534.148438 251.90625 534.148438 251.304688 L 534.148438 109.742188 C 534.148438 109.140625 534.175781 108.542969 534.234375 107.941406 C 534.292969 107.34375 534.382812 106.75 534.5 106.164062 C 534.617188 105.574219 534.761719 104.992188 534.9375 104.414062 C 535.113281 103.839844 535.3125 103.277344 535.542969 102.71875 C 535.773438 102.164062 536.03125 101.621094 536.3125 101.09375 C 536.597656 100.5625 536.90625 100.046875 537.238281 99.546875 C 537.574219 99.050781 537.933594 98.566406 538.3125 98.101562 C 538.695312 97.636719 539.097656 97.191406 539.523438 96.769531 C 539.949219 96.34375 540.394531 95.941406 540.859375 95.558594 C 541.324219 95.179688 541.804688 94.820312 542.304688 94.488281 C 542.804688 94.152344 543.320312 93.84375 543.851562 93.5625 C 544.378906 93.277344 544.921875 93.019531 545.480469 92.792969 C 546.035156 92.5625 546.597656 92.359375 547.175781 92.183594 C 547.75 92.011719 548.332031 91.863281 548.921875 91.746094 C 549.511719 91.628906 550.105469 91.542969 550.703125 91.484375 C 551.300781 91.425781 551.902344 91.394531 552.503906 91.394531 Z M 552.503906 91.394531 " fill-opacity="1" fill-rule="nonzero"/><g clip-path="url(#f24bd19a21)"><path fill="#05516a" d="M 631.578125 0.605469 C 632.179688 0.605469 632.777344 0.632812 633.375 0.691406 C 633.972656 0.75 634.570312 0.839844 635.15625 0.957031 C 635.746094 1.074219 636.332031 1.21875 636.90625 1.394531 C 637.480469 1.570312 638.046875 1.769531 638.601562 2 C 639.15625 2.230469 639.699219 2.488281 640.230469 2.769531 C 640.761719 3.054688 641.277344 3.363281 641.777344 3.695312 C 642.277344 4.03125 642.757812 4.386719 643.222656 4.769531 C 643.6875 5.148438 644.132812 5.554688 644.558594 5.976562 C 644.984375 6.402344 645.386719 6.847656 645.765625 7.3125 C 646.148438 7.777344 646.507812 8.257812 646.839844 8.757812 C 647.175781 9.257812 647.484375 9.773438 647.765625 10.300781 C 648.050781 10.832031 648.304688 11.375 648.535156 11.929688 C 648.765625 12.484375 648.96875 13.050781 649.144531 13.625 C 649.316406 14.199219 649.464844 14.78125 649.582031 15.371094 C 649.699219 15.960938 649.785156 16.554688 649.84375 17.152344 C 649.90625 17.75 649.933594 18.351562 649.933594 18.949219 L 649.933594 160.515625 C 649.933594 161.117188 649.90625 161.714844 649.84375 162.3125 C 649.785156 162.910156 649.699219 163.503906 649.582031 164.09375 C 649.464844 164.683594 649.316406 165.265625 649.144531 165.839844 C 648.96875 166.417969 648.765625 166.980469 648.535156 167.535156 C 648.304688 168.09375 648.050781 168.632812 647.765625 169.164062 C 647.484375 169.695312 647.175781 170.210938 646.839844 170.707031 C 646.507812 171.207031 646.148438 171.691406 645.765625 172.15625 C 645.386719 172.621094 644.984375 173.0625 644.558594 173.488281 C 644.132812 173.914062 643.6875 174.316406 643.222656 174.699219 C 642.757812 175.078125 642.277344 175.4375 641.777344 175.769531 C 641.277344 176.105469 640.761719 176.414062 640.230469 176.695312 C 639.699219 176.980469 639.15625 177.234375 638.601562 177.464844 C 638.046875 177.695312 637.480469 177.898438 636.90625 178.074219 C 636.332031 178.246094 635.746094 178.394531 635.15625 178.511719 C 634.570312 178.628906 633.972656 178.714844 633.375 178.773438 C 632.777344 178.832031 632.179688 178.863281 631.578125 178.863281 C 630.976562 178.863281 630.375 178.832031 629.777344 178.773438 C 629.179688 178.714844 628.585938 178.628906 627.996094 178.511719 C 627.40625 178.394531 626.824219 178.246094 626.25 178.074219 C 625.671875 177.898438 625.109375 177.695312 624.550781 177.464844 C 623.996094 177.234375 623.453125 176.980469 622.921875 176.695312 C 622.394531 176.414062 621.878906 176.105469 621.378906 175.769531 C 620.878906 175.4375 620.394531 175.078125 619.929688 174.699219 C 619.464844 174.316406 619.023438 173.914062 618.597656 173.488281 C 618.171875 173.0625 617.769531 172.621094 617.386719 172.15625 C 617.003906 171.691406 616.648438 171.207031 616.3125 170.707031 C 615.980469 170.210938 615.671875 169.695312 615.386719 169.164062 C 615.105469 168.632812 614.847656 168.09375 614.617188 167.535156 C 614.386719 166.980469 614.183594 166.417969 614.011719 165.839844 C 613.835938 165.265625 613.691406 164.683594 613.574219 164.09375 C 613.457031 163.503906 613.367188 162.910156 613.308594 162.3125 C 613.25 161.714844 613.21875 161.117188 613.21875 160.515625 L 613.21875 18.949219 C 613.21875 18.351562 613.25 17.75 613.308594 17.152344 C 613.367188 16.554688 613.457031 15.960938 613.574219 15.371094 C 613.691406 14.78125 613.835938 14.199219 614.011719 13.625 C 614.183594 13.050781 614.386719 12.484375 614.617188 11.929688 C 614.847656 11.375 615.105469 10.832031 615.386719 10.300781 C 615.671875 9.773438 615.980469 9.257812 616.3125 8.757812 C 616.648438 8.257812 617.003906 7.777344 617.386719 7.3125 C 617.769531 6.847656 618.171875 6.402344 618.597656 5.976562 C 619.023438 5.554688 619.464844 5.148438 619.929688 4.769531 C 620.394531 4.386719 620.878906 4.03125 621.378906 3.695312 C 621.878906 3.363281 622.394531 3.054688 622.921875 2.769531 C 623.453125 2.488281 623.996094 2.230469 624.550781 2 C 625.109375 1.769531 625.671875 1.570312 626.25 1.394531 C 626.824219 1.21875 627.40625 1.074219 627.996094 0.957031 C 628.585938 0.839844 629.179688 0.75 629.777344 0.691406 C 630.375 0.632812 630.976562 0.605469 631.578125 0.605469 Z M 631.578125 0.605469 " fill-opacity="1" fill-rule="nonzero"/></g><path fill="#05516a" d="M 580.097656 29.15625 C 580.097656 30.042969 580.054688 30.925781 579.96875 31.808594 C 579.878906 32.691406 579.75 33.566406 579.578125 34.433594 C 579.40625 35.304688 579.1875 36.164062 578.933594 37.011719 C 578.675781 37.859375 578.375 38.691406 578.035156 39.511719 C 577.695312 40.332031 577.316406 41.132812 576.898438 41.914062 C 576.480469 42.695312 576.027344 43.453125 575.535156 44.191406 C 575.039062 44.929688 574.511719 45.640625 573.949219 46.324219 C 573.386719 47.007812 572.792969 47.664062 572.164062 48.292969 C 571.539062 48.917969 570.882812 49.511719 570.195312 50.074219 C 569.507812 50.636719 568.796875 51.164062 568.058594 51.65625 C 567.324219 52.148438 566.5625 52.605469 565.78125 53.023438 C 564.996094 53.441406 564.195312 53.820312 563.378906 54.160156 C 562.558594 54.496094 561.722656 54.796875 560.875 55.054688 C 560.027344 55.3125 559.164062 55.527344 558.296875 55.699219 C 557.425781 55.871094 556.550781 56 555.667969 56.089844 C 554.785156 56.175781 553.898438 56.21875 553.011719 56.21875 C 552.125 56.21875 551.238281 56.175781 550.355469 56.089844 C 549.472656 56 548.597656 55.871094 547.726562 55.699219 C 546.855469 55.527344 545.996094 55.3125 545.148438 55.054688 C 544.300781 54.796875 543.464844 54.496094 542.644531 54.160156 C 541.828125 53.820312 541.027344 53.441406 540.242188 53.023438 C 539.460938 52.605469 538.699219 52.148438 537.964844 51.65625 C 537.226562 51.164062 536.515625 50.636719 535.828125 50.074219 C 535.140625 49.511719 534.484375 48.917969 533.859375 48.292969 C 533.230469 47.664062 532.636719 47.007812 532.074219 46.324219 C 531.511719 45.640625 530.984375 44.929688 530.488281 44.191406 C 529.996094 43.453125 529.542969 42.695312 529.125 41.914062 C 528.707031 41.132812 528.328125 40.332031 527.988281 39.511719 C 527.648438 38.691406 527.347656 37.859375 527.089844 37.011719 C 526.832031 36.164062 526.617188 35.304688 526.445312 34.433594 C 526.273438 33.566406 526.140625 32.691406 526.054688 31.808594 C 525.96875 30.925781 525.925781 30.042969 525.925781 29.15625 C 525.925781 28.269531 525.96875 27.382812 526.054688 26.503906 C 526.140625 25.621094 526.273438 24.746094 526.445312 23.875 C 526.617188 23.003906 526.832031 22.148438 527.089844 21.296875 C 527.347656 20.449219 527.648438 19.617188 527.988281 18.796875 C 528.328125 17.980469 528.707031 17.179688 529.125 16.398438 C 529.542969 15.617188 529.996094 14.855469 530.488281 14.117188 C 530.984375 13.382812 531.511719 12.671875 532.074219 11.984375 C 532.636719 11.300781 533.230469 10.644531 533.859375 10.019531 C 534.484375 9.390625 535.140625 8.796875 535.828125 8.234375 C 536.515625 7.671875 537.226562 7.144531 537.964844 6.652344 C 538.699219 6.160156 539.460938 5.703125 540.242188 5.285156 C 541.027344 4.867188 541.828125 4.492188 542.644531 4.152344 C 543.464844 3.8125 544.300781 3.515625 545.148438 3.257812 C 545.996094 3 546.855469 2.785156 547.726562 2.609375 C 548.597656 2.4375 549.472656 2.308594 550.355469 2.222656 C 551.238281 2.132812 552.125 2.089844 553.011719 2.089844 C 553.898438 2.089844 554.785156 2.132812 555.667969 2.222656 C 556.550781 2.308594 557.425781 2.4375 558.296875 2.609375 C 559.164062 2.785156 560.027344 3 560.875 3.257812 C 561.722656 3.515625 562.558594 3.8125 563.378906 4.152344 C 564.195312 4.492188 564.996094 4.867188 565.78125 5.285156 C 566.5625 5.703125 567.324219 6.160156 568.058594 6.652344 C 568.796875 7.144531 569.507812 7.671875 570.195312 8.234375 C 570.878906 8.796875 571.539062 9.390625 572.164062 10.019531 C 572.792969 10.644531 573.386719 11.300781 573.949219 11.984375 C 574.511719 12.671875 575.039062 13.382812 575.53125 14.117188 C 576.027344 14.855469 576.480469 15.617188 576.898438 16.398438 C 577.316406 17.179688 577.695312 17.980469 578.035156 18.796875 C 578.375 19.617188 578.675781 20.449219 578.933594 21.296875 C 579.1875 22.148438 579.40625 23.003906 579.578125 23.875 C 579.75 24.746094 579.878906 25.621094 579.96875 26.503906 C 580.054688 27.382812 580.097656 28.269531 580.097656 29.15625 Z M 580.097656 29.15625 " fill-opacity="1" fill-rule="nonzero"/><path fill="#d29526" d="M 657.910156 240.546875 C 657.910156 241.433594 657.867188 242.320312 657.777344 243.203125 C 657.691406 244.082031 657.5625 244.960938 657.386719 245.828125 C 657.214844 246.699219 657 247.554688 656.742188 248.40625 C 656.484375 249.253906 656.1875 250.085938 655.847656 250.90625 C 655.507812 251.722656 655.128906 252.523438 654.710938 253.304688 C 654.292969 254.089844 653.835938 254.847656 653.34375 255.585938 C 652.851562 256.320312 652.324219 257.03125 651.761719 257.71875 C 651.199219 258.402344 650.601562 259.058594 649.976562 259.6875 C 649.347656 260.3125 648.691406 260.90625 648.007812 261.46875 C 647.320312 262.03125 646.609375 262.558594 645.871094 263.050781 C 645.132812 263.542969 644.375 264 643.589844 264.417969 C 642.808594 264.835938 642.007812 265.214844 641.1875 265.550781 C 640.367188 265.890625 639.535156 266.191406 638.683594 266.445312 C 637.835938 266.703125 636.976562 266.917969 636.105469 267.09375 C 635.238281 267.265625 634.359375 267.394531 633.476562 267.480469 C 632.59375 267.570312 631.710938 267.613281 630.824219 267.613281 C 629.933594 267.613281 629.050781 267.570312 628.167969 267.480469 C 627.285156 267.394531 626.410156 267.265625 625.539062 267.09375 C 624.667969 266.917969 623.808594 266.703125 622.960938 266.445312 C 622.109375 266.191406 621.277344 265.890625 620.457031 265.550781 C 619.636719 265.214844 618.835938 264.835938 618.054688 264.417969 C 617.273438 264 616.511719 263.542969 615.773438 263.050781 C 615.035156 262.558594 614.324219 262.03125 613.640625 261.46875 C 612.953125 260.90625 612.296875 260.3125 611.667969 259.6875 C 611.042969 259.058594 610.445312 258.402344 609.882812 257.71875 C 609.320312 257.03125 608.792969 256.320312 608.300781 255.585938 C 607.808594 254.847656 607.351562 254.089844 606.933594 253.304688 C 606.515625 252.523438 606.136719 251.722656 605.796875 250.90625 C 605.457031 250.085938 605.160156 249.253906 604.902344 248.40625 C 604.644531 247.554688 604.429688 246.699219 604.257812 245.828125 C 604.082031 244.960938 603.953125 244.082031 603.867188 243.203125 C 603.78125 242.320312 603.734375 241.433594 603.734375 240.546875 C 603.734375 239.664062 603.78125 238.777344 603.867188 237.894531 C 603.953125 237.015625 604.082031 236.136719 604.257812 235.269531 C 604.429688 234.398438 604.644531 233.539062 604.902344 232.691406 C 605.160156 231.84375 605.457031 231.011719 605.796875 230.191406 C 606.136719 229.371094 606.515625 228.574219 606.933594 227.789062 C 607.351562 227.007812 607.808594 226.25 608.300781 225.511719 C 608.792969 224.777344 609.320312 224.066406 609.882812 223.378906 C 610.445312 222.695312 611.042969 222.039062 611.667969 221.410156 C 612.296875 220.785156 612.953125 220.191406 613.640625 219.628906 C 614.324219 219.066406 615.035156 218.539062 615.773438 218.046875 C 616.511719 217.554688 617.273438 217.097656 618.054688 216.679688 C 618.835938 216.261719 619.636719 215.882812 620.457031 215.542969 C 621.277344 215.207031 622.109375 214.90625 622.960938 214.648438 C 623.808594 214.394531 624.667969 214.175781 625.539062 214.003906 C 626.410156 213.832031 627.285156 213.703125 628.167969 213.613281 C 629.050781 213.527344 629.933594 213.484375 630.824219 213.484375 C 631.710938 213.484375 632.59375 213.527344 633.476562 213.613281 C 634.359375 213.703125 635.238281 213.832031 636.105469 214.003906 C 636.976562 214.175781 637.835938 214.394531 638.683594 214.648438 C 639.535156 214.90625 640.367188 215.207031 641.1875 215.542969 C 642.007812 215.882812 642.808594 216.261719 643.589844 216.679688 C 644.375 217.097656 645.132812 217.554688 645.871094 218.046875 C 646.609375 218.539062 647.320312 219.066406 648.007812 219.628906 C 648.691406 220.191406 649.347656 220.785156 649.976562 221.410156 C 650.601562 222.039062 651.199219 222.695312 651.761719 223.378906 C 652.324219 224.066406 652.851562 224.777344 653.34375 225.511719 C 653.835938 226.25 654.292969 227.007812 654.710938 227.789062 C 655.128906 228.574219 655.507812 229.371094 655.847656 230.191406 C 656.1875 231.011719 656.484375 231.84375 656.742188 232.691406 C 657 233.539062 657.214844 234.398438 657.386719 235.269531 C 657.5625 236.136719 657.691406 237.015625 657.777344 237.894531 C 657.867188 238.777344 657.910156 239.664062 657.910156 240.546875 Z M 657.910156 240.546875 " fill-opacity="1" fill-rule="nonzero"/></svg>