<svg xmlns="http://www.w3.org/2000/svg" xmlns:xlink="http://www.w3.org/1999/xlink" width="1366" zoomAndPan="magnify" viewBox="0 0 1024.5 576" height="768" preserveAspectRatio="xMidYMid meet" version="1.0"><defs><clipPath id="f00bab1665"><path d="M 0 0.140625 L 1024 0.140625 L 1024 575.859375 L 0 575.859375 Z M 0 0.140625 " clip-rule="nonzero"/></clipPath><clipPath id="dc6faee833"><path d="M 511 0.140625 L 609 0.140625 L 609 7 L 511 7 Z M 511 0.140625 " clip-rule="nonzero"/></clipPath><clipPath id="dde1ed58f7"><path d="M 109 0.140625 L 202 0.140625 L 202 5 L 109 5 Z M 109 0.140625 " clip-rule="nonzero"/></clipPath><clipPath id="32b070c4de"><path d="M 742 0.140625 L 835 0.140625 L 835 53 L 742 53 Z M 742 0.140625 " clip-rule="nonzero"/></clipPath><clipPath id="4a8540df36"><path d="M 451 519 L 544 519 L 544 575.859375 L 451 575.859375 Z M 451 519 " clip-rule="nonzero"/></clipPath><clipPath id="638270d134"><path d="M 116 434 L 238 434 L 238 575.859375 L 116 575.859375 Z M 116 434 " clip-rule="nonzero"/></clipPath><clipPath id="0cae801bbd"><path d="M 237 434 L 359 434 L 359 575.859375 L 237 575.859375 Z M 237 434 " clip-rule="nonzero"/></clipPath><clipPath id="a2b1f9d197"><path d="M 642 434 L 763 434 L 763 575.859375 L 642 575.859375 Z M 642 434 " clip-rule="nonzero"/></clipPath><clipPath id="d6f81aa4d6"><path d="M 762 434 L 884 434 L 884 575.859375 L 762 575.859375 Z M 762 434 " clip-rule="nonzero"/></clipPath><clipPath id="bc2246737b"><path d="M 283 555 L 383 555 L 383 575.859375 L 283 575.859375 Z M 283 555 " clip-rule="nonzero"/></clipPath><clipPath id="3a195e6fdd"><path d="M 382 555 L 483 555 L 483 575.859375 L 382 575.859375 Z M 382 555 " clip-rule="nonzero"/></clipPath><clipPath id="f5fd0c9a44"><path d="M 283 0.140625 L 383 0.140625 L 383 158 L 283 158 Z M 283 0.140625 " clip-rule="nonzero"/></clipPath><clipPath id="e81ac2b139"><path d="M 382 0.140625 L 483 0.140625 L 483 158 L 382 158 Z M 382 0.140625 " clip-rule="nonzero"/></clipPath><clipPath id="1e09a54b1d"><path d="M 810 555 L 911 555 L 911 575.859375 L 810 575.859375 Z M 810 555 " clip-rule="nonzero"/></clipPath><clipPath id="6ba009844b"><path d="M 910 555 L 1009.707031 555 L 1009.707031 575.859375 L 910 575.859375 Z M 910 555 " clip-rule="nonzero"/></clipPath><clipPath id="3efe546f8f"><path d="M 910 356 L 1009.707031 356 L 1009.707031 556 L 910 556 Z M 910 356 " clip-rule="nonzero"/></clipPath><clipPath id="050e5929c6"><path d="M 910 157 L 1009.707031 157 L 1009.707031 357 L 910 357 Z M 910 157 " clip-rule="nonzero"/></clipPath><clipPath id="7bfc2df6a2"><path d="M 810 0.140625 L 911 0.140625 L 911 158 L 810 158 Z M 810 0.140625 " clip-rule="nonzero"/></clipPath><clipPath id="46a2bfa599"><path d="M 910 0.140625 L 1009.707031 0.140625 L 1009.707031 158 L 910 158 Z M 910 0.140625 " clip-rule="nonzero"/></clipPath><clipPath id="a3957ef75c"><path d="M 14.195312 9 L 80 9 L 80 141 L 14.195312 141 Z M 14.195312 9 " clip-rule="nonzero"/></clipPath><clipPath id="3470bda6f9"><path d="M 14.195312 146 L 80 146 L 80 278 L 14.195312 278 Z M 14.195312 146 " clip-rule="nonzero"/></clipPath><clipPath id="8ca607b164"><path d="M 645 0.140625 L 679 0.140625 L 679 57 L 645 57 Z M 645 0.140625 " clip-rule="nonzero"/></clipPath><clipPath id="1cb8513b1f"><path d="M 586 522 L 620 522 L 620 575.859375 L 586 575.859375 Z M 586 522 " clip-rule="nonzero"/></clipPath><clipPath id="f85f6f7aee"><path d="M 959 522 L 993 522 L 993 575.859375 L 959 575.859375 Z M 959 522 " clip-rule="nonzero"/></clipPath><clipPath id="85180e1ea8"><path d="M 14.195312 434 L 80 434 L 80 566 L 14.195312 566 Z M 14.195312 434 " clip-rule="nonzero"/></clipPath><clipPath id="d8d87f6711"><path d="M 14.195312 572 L 80 572 L 80 575.859375 L 14.195312 575.859375 Z M 14.195312 572 " clip-rule="nonzero"/></clipPath></defs><g clip-path="url(#f00bab1665)"><path fill="#ffffff" d="M 0 0.140625 L 1024 0.140625 L 1024 575.859375 L 0 575.859375 Z M 0 0.140625 " fill-opacity="1" fill-rule="nonzero"/><path fill="#ffffff" d="M 0 0.140625 L 1024 0.140625 L 1024 575.859375 L 0 575.859375 Z M 0 0.140625 " fill-opacity="1" fill-rule="nonzero"/></g><g clip-path="url(#dc6faee833)"><path fill="#c73953" d="M 511.953125 -90.132812 L 608.289062 -90.132812 L 608.289062 6.203125 L 511.953125 6.203125 Z M 511.953125 -90.132812 " fill-opacity="1" fill-rule="nonzero"/></g><g clip-path="url(#dde1ed58f7)"><path fill="#e3a01b" d="M 155.273438 -88.007812 L 201.324219 -41.957031 L 155.273438 4.09375 L 109.222656 -41.957031 Z M 155.273438 -88.007812 " fill-opacity="1" fill-rule="nonzero"/></g><path fill="#347f94" d="M 298.144531 322.824219 L 344.195312 368.875 L 298.144531 414.925781 L 252.09375 368.875 Z M 298.144531 322.824219 " fill-opacity="1" fill-rule="nonzero"/><g clip-path="url(#32b070c4de)"><path fill="#c73953" d="M 788.929688 -39.839844 L 834.980469 6.210938 L 788.929688 52.261719 L 742.878906 6.210938 Z M 788.929688 -39.839844 " fill-opacity="1" fill-rule="nonzero"/></g><g clip-path="url(#4a8540df36)"><path fill="#e3a01b" d="M 497.078125 519.640625 L 543.128906 565.691406 L 497.078125 611.742188 L 451.027344 565.691406 Z M 497.078125 519.640625 " fill-opacity="1" fill-rule="nonzero"/></g><path fill="#347f94" d="M 559.707031 155.957031 L 611.34375 104.3125 L 611.34375 63.851562 L 519.238281 155.957031 L 611.34375 248.054688 L 611.34375 207.59375 Z M 559.707031 155.957031 " fill-opacity="1" fill-rule="nonzero"/><path fill="#c73953" d="M 111.335938 356.246094 L 162.972656 304.609375 L 162.972656 264.140625 L 70.871094 356.246094 L 162.972656 448.351562 L 162.972656 407.882812 Z M 111.335938 356.246094 " fill-opacity="1" fill-rule="nonzero"/><path fill="#c73953" d="M 715.195312 368.867188 L 663.558594 317.230469 L 663.558594 276.765625 L 755.664062 368.867188 L 663.558594 460.964844 L 663.558594 420.507812 Z M 715.195312 368.867188 " fill-opacity="1" fill-rule="nonzero"/><path fill="#c3c9bd" d="M 170.003906 155.957031 L 237.738281 88.214844 L 237.738281 35.140625 L 116.921875 155.957031 L 237.738281 276.765625 L 237.738281 223.691406 Z M 170.003906 155.957031 " fill-opacity="1" fill-rule="nonzero"/><path fill="#c73953" d="M 305.472656 155.957031 L 237.738281 88.214844 L 237.738281 35.140625 L 358.542969 155.957031 L 237.738281 276.765625 L 237.738281 223.691406 Z M 305.472656 155.957031 " fill-opacity="1" fill-rule="nonzero"/><path fill="#c73953" d="M 462.105469 356.246094 L 529.839844 288.511719 L 529.839844 235.429688 L 409.027344 356.246094 L 529.839844 477.0625 L 529.839844 423.980469 Z M 462.105469 356.246094 " fill-opacity="1" fill-rule="nonzero"/><path fill="#c3c9bd" d="M 597.574219 356.246094 L 529.839844 288.511719 L 529.839844 235.429688 L 650.648438 356.246094 L 529.839844 477.0625 L 529.839844 423.980469 Z M 597.574219 356.246094 " fill-opacity="1" fill-rule="nonzero"/><g clip-path="url(#638270d134)"><path fill="#4bafa7" d="M 170.003906 555.347656 L 237.738281 487.613281 L 237.738281 434.53125 L 116.921875 555.347656 L 237.738281 676.164062 L 237.738281 623.082031 Z M 170.003906 555.347656 " fill-opacity="1" fill-rule="nonzero"/></g><g clip-path="url(#0cae801bbd)"><path fill="#e3a01b" d="M 305.472656 555.347656 L 237.738281 487.613281 L 237.738281 434.53125 L 358.542969 555.347656 L 237.738281 676.164062 L 237.738281 623.082031 Z M 305.472656 555.347656 " fill-opacity="1" fill-rule="nonzero"/></g><g clip-path="url(#a2b1f9d197)"><path fill="#e3a01b" d="M 695.214844 555.347656 L 762.949219 487.613281 L 762.949219 434.53125 L 642.136719 555.347656 L 762.949219 676.164062 L 762.949219 623.082031 Z M 695.214844 555.347656 " fill-opacity="1" fill-rule="nonzero"/></g><g clip-path="url(#d6f81aa4d6)"><path fill="#c73953" d="M 830.683594 555.347656 L 762.949219 487.613281 L 762.949219 434.53125 L 883.757812 555.347656 L 762.949219 676.164062 L 762.949219 623.082031 Z M 830.683594 555.347656 " fill-opacity="1" fill-rule="nonzero"/></g><path fill="#c73953" d="M 675.144531 157.144531 L 742.882812 89.40625 L 742.882812 36.328125 L 622.066406 157.144531 L 742.882812 277.957031 L 742.882812 224.878906 Z M 675.144531 157.144531 " fill-opacity="1" fill-rule="nonzero"/><path fill="#e3a01b" d="M 810.617188 157.144531 L 742.882812 89.40625 L 742.882812 36.328125 L 863.6875 157.144531 L 742.882812 277.957031 L 742.882812 224.878906 Z M 810.617188 157.144531 " fill-opacity="1" fill-rule="nonzero"/><g clip-path="url(#bc2246737b)"><path fill="#4bafa7" d="M 382.953125 555.347656 L 283.402344 654.898438 L 382.953125 754.449219 Z M 382.953125 555.347656 " fill-opacity="1" fill-rule="nonzero"/></g><g clip-path="url(#3a195e6fdd)"><path fill="#347f94" d="M 382.953125 555.347656 L 482.503906 654.898438 L 382.953125 754.449219 Z M 382.953125 555.347656 " fill-opacity="1" fill-rule="nonzero"/></g><path fill="#c3c9bd" d="M 382.953125 356.246094 L 283.402344 455.796875 L 382.953125 555.347656 Z M 382.953125 356.246094 " fill-opacity="1" fill-rule="nonzero"/><path fill="#e3a01b" d="M 382.953125 356.246094 L 482.503906 455.796875 L 382.953125 555.347656 Z M 382.953125 356.246094 " fill-opacity="1" fill-rule="nonzero"/><path fill="#e3a01b" d="M 382.953125 157.144531 L 283.402344 256.695312 L 382.953125 356.246094 Z M 382.953125 157.144531 " fill-opacity="1" fill-rule="nonzero"/><path fill="#347f94" d="M 382.953125 157.144531 L 482.503906 256.695312 L 382.953125 356.246094 Z M 382.953125 157.144531 " fill-opacity="1" fill-rule="nonzero"/><g clip-path="url(#f5fd0c9a44)"><path fill="#4bafa7" d="M 382.953125 -41.960938 L 283.402344 57.589844 L 382.953125 157.144531 Z M 382.953125 -41.960938 " fill-opacity="1" fill-rule="nonzero"/></g><g clip-path="url(#e81ac2b139)"><path fill="#c73953" d="M 382.953125 -41.960938 L 482.503906 57.589844 L 382.953125 157.144531 Z M 382.953125 -41.960938 " fill-opacity="1" fill-rule="nonzero"/></g><g clip-path="url(#1e09a54b1d)"><path fill="#4bafa7" d="M 910.15625 555.347656 L 810.605469 654.898438 L 910.15625 754.449219 Z M 910.15625 555.347656 " fill-opacity="1" fill-rule="nonzero"/></g><g clip-path="url(#6ba009844b)"><path fill="#347f94" d="M 910.15625 555.347656 L 1009.707031 654.898438 L 910.15625 754.449219 Z M 910.15625 555.347656 " fill-opacity="1" fill-rule="nonzero"/></g><path fill="#c3c9bd" d="M 910.15625 356.246094 L 810.605469 455.796875 L 910.15625 555.347656 Z M 910.15625 356.246094 " fill-opacity="1" fill-rule="nonzero"/><g clip-path="url(#3efe546f8f)"><path fill="#e3a01b" d="M 910.15625 356.246094 L 1009.707031 455.796875 L 910.15625 555.347656 Z M 910.15625 356.246094 " fill-opacity="1" fill-rule="nonzero"/></g><path fill="#e3a01b" d="M 910.15625 157.144531 L 810.605469 256.695312 L 910.15625 356.246094 Z M 910.15625 157.144531 " fill-opacity="1" fill-rule="nonzero"/><g clip-path="url(#050e5929c6)"><path fill="#4bafa7" d="M 910.15625 157.144531 L 1009.707031 256.695312 L 910.15625 356.246094 Z M 910.15625 157.144531 " fill-opacity="1" fill-rule="nonzero"/></g><g clip-path="url(#7bfc2df6a2)"><path fill="#4bafa7" d="M 910.15625 -41.960938 L 810.605469 57.589844 L 910.15625 157.144531 Z M 910.15625 -41.960938 " fill-opacity="1" fill-rule="nonzero"/></g><g clip-path="url(#46a2bfa599)"><path fill="#c73953" d="M 910.15625 -41.960938 L 1009.707031 57.589844 L 910.15625 157.144531 Z M 910.15625 -41.960938 " fill-opacity="1" fill-rule="nonzero"/></g><g clip-path="url(#a3957ef75c)"><path fill="#4bafa7" d="M 14.195312 9.128906 L 79.769531 74.703125 L 14.195312 140.277344 Z M 14.195312 9.128906 " fill-opacity="1" fill-rule="nonzero"/></g><g clip-path="url(#3470bda6f9)"><path fill="#4bafa7" d="M 14.195312 146.800781 L 79.769531 212.375 L 14.195312 277.957031 Z M 14.195312 146.800781 " fill-opacity="1" fill-rule="nonzero"/></g><g clip-path="url(#8ca607b164)"><path fill="#4bafa7" d="M 645.222656 -9.167969 L 678.011719 23.613281 L 645.222656 56.40625 Z M 645.222656 -9.167969 " fill-opacity="1" fill-rule="nonzero"/></g><path fill="#4bafa7" d="M 465.949219 132.644531 L 498.742188 165.425781 L 465.949219 198.21875 Z M 465.949219 132.644531 " fill-opacity="1" fill-rule="nonzero"/><path fill="#4bafa7" d="M 816.519531 336.078125 L 849.300781 368.867188 L 816.519531 401.652344 Z M 816.519531 336.078125 " fill-opacity="1" fill-rule="nonzero"/><g clip-path="url(#1cb8513b1f)"><path fill="#4bafa7" d="M 586.753906 522.554688 L 619.546875 555.347656 L 586.753906 588.140625 Z M 586.753906 522.554688 " fill-opacity="1" fill-rule="nonzero"/></g><g clip-path="url(#f85f6f7aee)"><path fill="#4bafa7" d="M 992.714844 522.554688 L 959.933594 555.347656 L 992.714844 588.140625 Z M 992.714844 522.554688 " fill-opacity="1" fill-rule="nonzero"/></g><path fill="#4bafa7" d="M 992.714844 123.164062 L 959.933594 155.957031 L 992.714844 188.742188 Z M 992.714844 123.164062 " fill-opacity="1" fill-rule="nonzero"/><path fill="#4bafa7" d="M 237.738281 315.140625 L 204.945312 347.921875 L 237.738281 380.714844 Z M 237.738281 315.140625 " fill-opacity="1" fill-rule="nonzero"/><g clip-path="url(#85180e1ea8)"><path fill="#4bafa7" d="M 14.195312 434.53125 L 79.769531 500.117188 L 14.195312 565.691406 Z M 14.195312 434.53125 " fill-opacity="1" fill-rule="nonzero"/></g><g clip-path="url(#d8d87f6711)"><path fill="#4bafa7" d="M 14.195312 572.210938 L 79.769531 637.785156 L 14.195312 703.363281 Z M 14.195312 572.210938 " fill-opacity="1" fill-rule="nonzero"/></g></svg>