<svg xmlns="http://www.w3.org/2000/svg" xmlns:xlink="http://www.w3.org/1999/xlink" width="1366" zoomAndPan="magnify" viewBox="0 0 1024.5 576" height="768" preserveAspectRatio="xMidYMid meet" version="1.0"><defs><clipPath id="0878f75ff8"><path d="M 0 0.140625 L 1024 0.140625 L 1024 575.859375 L 0 575.859375 Z M 0 0.140625 " clip-rule="nonzero"/></clipPath><clipPath id="be37e2fb89"><path d="M 2 0.140625 L 169 0.140625 L 169 94 L 2 94 Z M 2 0.140625 " clip-rule="nonzero"/></clipPath><clipPath id="e6e2e5fa34"><path d="M 190 0.140625 L 403 0.140625 L 403 85 L 190 85 Z M 190 0.140625 " clip-rule="nonzero"/></clipPath><clipPath id="f73db9d3d3"><path d="M 2 508 L 169 508 L 169 575.859375 L 2 575.859375 Z M 2 508 " clip-rule="nonzero"/></clipPath><clipPath id="b8e02233c5"><path d="M 318 544 L 380 544 L 380 575.859375 L 318 575.859375 Z M 318 544 " clip-rule="nonzero"/></clipPath><clipPath id="e5e859c276"><path d="M 380 544 L 442 544 L 442 575.859375 L 380 575.859375 Z M 380 544 " clip-rule="nonzero"/></clipPath><clipPath id="cbdd87c638"><path d="M 800 533 L 856 533 L 856 575.859375 L 800 575.859375 Z M 800 533 " clip-rule="nonzero"/></clipPath><clipPath id="c263bbb12b"><path d="M 861 0.140625 L 952 0.140625 L 952 90 L 861 90 Z M 861 0.140625 " clip-rule="nonzero"/></clipPath><clipPath id="7b585f93e7"><path d="M 957 0.140625 L 1024 0.140625 L 1024 90 L 957 90 Z M 957 0.140625 " clip-rule="nonzero"/></clipPath><clipPath id="95cd031aa9"><path d="M 957 93 L 1024 93 L 1024 184 L 957 184 Z M 957 93 " clip-rule="nonzero"/></clipPath><clipPath id="44efc521f5"><path d="M 717 0.140625 L 801 0.140625 L 801 93 L 717 93 Z M 717 0.140625 " clip-rule="nonzero"/></clipPath><clipPath id="2e05b07b69"><path d="M 634 0.140625 L 718 0.140625 L 718 93 L 634 93 Z M 634 0.140625 " clip-rule="nonzero"/></clipPath><clipPath id="9237ecf738"><path d="M 964 255 L 1024 255 L 1024 349 L 964 349 Z M 964 255 " clip-rule="nonzero"/></clipPath><clipPath id="eef7508351"><path d="M 366 0.140625 L 533 0.140625 L 533 135 L 366 135 Z M 366 0.140625 " clip-rule="nonzero"/></clipPath><clipPath id="b9e2cd6230"><path d="M 881 376 L 1024 376 L 1024 512 L 881 512 Z M 881 376 " clip-rule="nonzero"/></clipPath><clipPath id="9ac2b44d3c"><path d="M 833 511 L 1000 511 L 1000 575.859375 L 833 575.859375 Z M 833 511 " clip-rule="nonzero"/></clipPath><clipPath id="c37bd72e25"><path d="M 177 488 L 344 488 L 344 575.859375 L 177 575.859375 Z M 177 488 " clip-rule="nonzero"/></clipPath></defs><g clip-path="url(#0878f75ff8)"><path fill="#ffffff" d="M 0 0.140625 L 1024 0.140625 L 1024 575.859375 L 0 575.859375 Z M 0 0.140625 " fill-opacity="1" fill-rule="nonzero"/><path fill="#ffffff" d="M 0 0.140625 L 1024 0.140625 L 1024 575.859375 L 0 575.859375 Z M 0 0.140625 " fill-opacity="1" fill-rule="nonzero"/></g><g clip-path="url(#be37e2fb89)"><path fill="#412179" d="M 3.019531 0.140625 C 2.597656 3.5 2.382812 6.875 2.378906 10.261719 C 2.378906 11.621094 2.410156 12.976562 2.476562 14.335938 C 2.546875 15.691406 2.644531 17.046875 2.777344 18.398438 C 2.910156 19.75 3.078125 21.097656 3.277344 22.441406 C 3.476562 23.785156 3.707031 25.121094 3.972656 26.453125 C 4.238281 27.785156 4.535156 29.109375 4.867188 30.429688 C 5.195312 31.746094 5.558594 33.054688 5.953125 34.355469 C 6.347656 35.652344 6.773438 36.945312 7.230469 38.222656 C 7.6875 39.5 8.175781 40.769531 8.695312 42.023438 C 9.214844 43.277344 9.765625 44.519531 10.347656 45.746094 C 10.925781 46.976562 11.539062 48.1875 12.179688 49.386719 C 12.820312 50.582031 13.488281 51.765625 14.1875 52.929688 C 14.882812 54.09375 15.609375 55.242188 16.367188 56.371094 C 17.121094 57.5 17.902344 58.613281 18.710938 59.703125 C 19.519531 60.792969 20.355469 61.863281 21.21875 62.914062 C 22.078125 63.964844 22.964844 64.992188 23.878906 66 C 24.789062 67.003906 25.726562 67.988281 26.6875 68.949219 C 27.648438 69.910156 28.632812 70.84375 29.636719 71.757812 C 30.644531 72.667969 31.671875 73.558594 32.722656 74.417969 C 33.773438 75.28125 34.84375 76.117188 35.933594 76.925781 C 37.023438 77.734375 38.132812 78.515625 39.265625 79.269531 C 40.394531 80.023438 41.539062 80.75 42.707031 81.449219 C 43.871094 82.148438 45.050781 82.816406 46.25 83.457031 C 47.449219 84.097656 48.660156 84.707031 49.890625 85.289062 C 51.117188 85.871094 52.359375 86.421875 53.613281 86.941406 C 54.867188 87.460938 56.132812 87.949219 57.414062 88.40625 C 58.691406 88.863281 59.980469 89.289062 61.28125 89.683594 C 62.582031 90.078125 63.890625 90.441406 65.207031 90.769531 C 66.523438 91.101562 67.851562 91.398438 69.183594 91.664062 C 70.515625 91.929688 71.851562 92.160156 73.195312 92.359375 C 74.539062 92.558594 75.886719 92.726562 77.238281 92.859375 C 78.589844 92.992188 79.945312 93.089844 81.300781 93.15625 C 82.65625 93.222656 84.015625 93.257812 85.375 93.257812 C 86.730469 93.257812 88.089844 93.222656 89.445312 93.15625 C 90.804688 93.089844 92.15625 92.992188 93.507812 92.859375 C 94.859375 92.726562 96.207031 92.558594 97.550781 92.359375 C 98.894531 92.160156 100.234375 91.929688 101.566406 91.664062 C 102.898438 91.398438 104.222656 91.101562 105.539062 90.769531 C 106.859375 90.441406 108.167969 90.078125 109.464844 89.683594 C 110.765625 89.289062 112.054688 88.863281 113.335938 88.40625 C 114.613281 87.949219 115.878906 87.460938 117.136719 86.941406 C 118.390625 86.421875 119.632812 85.871094 120.859375 85.289062 C 122.085938 84.707031 123.300781 84.097656 124.496094 83.457031 C 125.695312 82.816406 126.878906 82.148438 128.042969 81.449219 C 129.207031 80.75 130.355469 80.023438 131.484375 79.269531 C 132.613281 78.515625 133.722656 77.734375 134.8125 76.925781 C 135.90625 76.117188 136.976562 75.28125 138.027344 74.417969 C 139.074219 73.558594 140.105469 72.667969 141.109375 71.757812 C 142.117188 70.84375 143.101562 69.910156 144.058594 68.949219 C 145.019531 67.988281 145.957031 67.003906 146.871094 66 C 147.78125 64.992188 148.667969 63.964844 149.53125 62.914062 C 150.390625 61.863281 151.226562 60.792969 152.035156 59.703125 C 152.84375 58.613281 153.628906 57.5 154.382812 56.371094 C 155.136719 55.242188 155.863281 54.09375 156.5625 52.929688 C 157.257812 51.765625 157.929688 50.582031 158.570312 49.386719 C 159.210938 48.1875 159.820312 46.976562 160.402344 45.746094 C 160.980469 44.519531 161.53125 43.277344 162.050781 42.023438 C 162.570312 40.769531 163.058594 39.5 163.519531 38.222656 C 163.976562 36.945312 164.402344 35.652344 164.796875 34.355469 C 165.191406 33.054688 165.550781 31.746094 165.882812 30.429688 C 166.210938 29.109375 166.507812 27.785156 166.773438 26.453125 C 167.039062 25.121094 167.273438 23.785156 167.472656 22.441406 C 167.671875 21.097656 167.835938 19.75 167.96875 18.398438 C 168.101562 17.046875 168.203125 15.691406 168.269531 14.335938 C 168.335938 12.976562 168.371094 11.621094 168.371094 10.261719 C 168.363281 6.875 168.148438 3.5 167.730469 0.140625 Z M 3.019531 0.140625 " fill-opacity="1" fill-rule="nonzero"/></g><path fill="#010b48" d="M 429.488281 478.339844 C 429.316406 479.742188 429.179688 481.144531 429.082031 482.550781 C 428.980469 483.960938 428.914062 485.367188 428.886719 486.78125 C 428.859375 488.191406 428.867188 489.601562 428.910156 491.011719 C 428.953125 492.421875 429.03125 493.828125 429.148438 495.234375 C 429.265625 496.640625 429.414062 498.042969 429.601562 499.441406 C 429.789062 500.839844 430.011719 502.234375 430.269531 503.621094 C 430.527344 505.007812 430.820312 506.386719 431.148438 507.757812 C 431.476562 509.132812 431.839844 510.496094 432.238281 511.847656 C 432.636719 513.203125 433.066406 514.542969 433.53125 515.875 C 434 517.207031 434.5 518.527344 435.03125 519.832031 C 435.566406 521.136719 436.132812 522.429688 436.730469 523.707031 C 437.332031 524.984375 437.964844 526.246094 438.625 527.492188 C 439.289062 528.734375 439.984375 529.964844 440.710938 531.171875 C 441.4375 532.382812 442.195312 533.574219 442.980469 534.742188 C 443.769531 535.914062 444.585938 537.0625 445.429688 538.195312 C 446.277344 539.324219 447.152344 540.429688 448.054688 541.515625 C 448.953125 542.601562 449.882812 543.660156 450.839844 544.699219 C 451.796875 545.734375 452.777344 546.746094 453.785156 547.734375 C 454.792969 548.722656 455.828125 549.683594 456.882812 550.617188 C 457.941406 551.550781 459.019531 552.460938 460.125 553.339844 C 461.226562 554.21875 462.351562 555.070312 463.5 555.890625 C 464.644531 556.714844 465.8125 557.503906 467 558.269531 C 468.1875 559.03125 469.390625 559.761719 470.617188 560.464844 C 471.839844 561.164062 473.082031 561.835938 474.339844 562.472656 C 475.597656 563.109375 476.871094 563.714844 478.164062 564.289062 C 479.453125 564.863281 480.753906 565.402344 482.070312 565.90625 C 483.386719 566.414062 484.71875 566.886719 486.058594 567.324219 C 487.398438 567.761719 488.75 568.167969 490.113281 568.539062 C 491.472656 568.90625 492.84375 569.242188 494.222656 569.542969 C 495.601562 569.839844 496.988281 570.105469 498.378906 570.335938 C 499.769531 570.5625 501.167969 570.757812 502.570312 570.914062 C 503.972656 571.074219 505.378906 571.195312 506.785156 571.28125 C 508.195312 571.367188 509.601562 571.417969 511.015625 571.433594 C 512.425781 571.445312 513.835938 571.425781 515.246094 571.367188 C 516.65625 571.308594 518.0625 571.214844 519.464844 571.085938 C 520.871094 570.957031 522.273438 570.792969 523.667969 570.589844 C 525.066406 570.390625 526.457031 570.152344 527.839844 569.882812 C 529.226562 569.609375 530.601562 569.304688 531.96875 568.960938 C 533.339844 568.621094 534.699219 568.242188 536.046875 567.832031 C 537.398438 567.421875 538.734375 566.976562 540.0625 566.496094 C 541.390625 566.015625 542.703125 565.503906 544.003906 564.957031 C 545.304688 564.410156 546.589844 563.832031 547.863281 563.21875 C 549.132812 562.605469 550.386719 561.960938 551.625 561.285156 C 552.863281 560.609375 554.085938 559.902344 555.285156 559.164062 C 556.488281 558.425781 557.671875 557.65625 558.835938 556.859375 C 559.996094 556.058594 561.140625 555.230469 562.261719 554.375 C 563.378906 553.519531 564.480469 552.632812 565.554688 551.71875 C 566.628906 550.808594 567.683594 549.867188 568.710938 548.902344 C 569.738281 547.933594 570.738281 546.941406 571.71875 545.925781 C 572.695312 544.90625 573.644531 543.863281 574.570312 542.796875 C 575.492188 541.730469 576.390625 540.644531 577.257812 539.53125 C 578.125 538.417969 578.964844 537.285156 579.777344 536.128906 C 580.585938 534.976562 581.367188 533.800781 582.117188 532.605469 C 582.867188 531.414062 583.589844 530.199219 584.277344 528.96875 C 584.964844 527.738281 585.625 526.488281 586.25 525.222656 C 586.875 523.960938 587.464844 522.679688 588.027344 521.382812 C 588.585938 520.089844 589.113281 518.78125 589.605469 517.457031 C 590.097656 516.136719 590.558594 514.804688 590.984375 513.457031 C 591.410156 512.113281 591.796875 510.757812 592.15625 509.390625 C 592.511719 508.027344 592.832031 506.652344 593.117188 505.273438 C 593.402344 503.890625 593.65625 502.503906 593.871094 501.109375 C 594.085938 499.714844 594.265625 498.316406 594.40625 496.910156 C 594.550781 495.507812 594.660156 494.101562 594.730469 492.691406 C 594.804688 491.285156 594.839844 489.875 594.839844 488.460938 C 594.832031 485.078125 594.625 481.703125 594.210938 478.339844 Z M 429.488281 478.339844 " fill-opacity="1" fill-rule="nonzero"/><path fill="#010b48" d="M 634.699219 477.472656 C 634.527344 478.871094 634.390625 480.277344 634.289062 481.683594 C 634.191406 483.089844 634.125 484.5 634.097656 485.910156 C 634.070312 487.320312 634.074219 488.730469 634.121094 490.140625 C 634.164062 491.550781 634.242188 492.960938 634.359375 494.367188 C 634.472656 495.773438 634.625 497.175781 634.8125 498.574219 C 635 499.972656 635.21875 501.363281 635.476562 502.75 C 635.734375 504.136719 636.03125 505.515625 636.359375 506.890625 C 636.6875 508.261719 637.050781 509.625 637.445312 510.976562 C 637.84375 512.332031 638.277344 513.675781 638.742188 515.007812 C 639.210938 516.335938 639.707031 517.65625 640.242188 518.960938 C 640.777344 520.269531 641.34375 521.5625 641.941406 522.835938 C 642.542969 524.113281 643.171875 525.375 643.835938 526.621094 C 644.5 527.867188 645.195312 529.09375 645.921875 530.304688 C 646.648438 531.511719 647.40625 532.703125 648.191406 533.875 C 648.980469 535.042969 649.796875 536.195312 650.640625 537.324219 C 651.488281 538.453125 652.359375 539.5625 653.261719 540.644531 C 654.164062 541.730469 655.09375 542.792969 656.050781 543.828125 C 657.007812 544.867188 657.988281 545.878906 658.996094 546.867188 C 660.003906 547.851562 661.035156 548.8125 662.09375 549.75 C 663.152344 550.683594 664.230469 551.589844 665.332031 552.46875 C 666.4375 553.347656 667.5625 554.199219 668.707031 555.023438 C 669.855469 555.84375 671.023438 556.636719 672.207031 557.398438 C 673.394531 558.160156 674.601562 558.894531 675.824219 559.59375 C 677.050781 560.296875 678.292969 560.964844 679.550781 561.601562 C 680.808594 562.242188 682.082031 562.847656 683.371094 563.417969 C 684.660156 563.992188 685.964844 564.53125 687.28125 565.039062 C 688.597656 565.542969 689.925781 566.015625 691.269531 566.457031 C 692.609375 566.894531 693.960938 567.296875 695.320312 567.667969 C 696.683594 568.039062 698.054688 568.371094 699.433594 568.671875 C 700.8125 568.972656 702.195312 569.234375 703.589844 569.464844 C 704.980469 569.695312 706.378906 569.886719 707.78125 570.046875 C 709.179688 570.203125 710.585938 570.324219 711.996094 570.410156 C 713.402344 570.496094 714.8125 570.546875 716.222656 570.5625 C 717.632812 570.578125 719.042969 570.554688 720.453125 570.496094 C 721.863281 570.441406 723.269531 570.347656 724.675781 570.21875 C 726.082031 570.085938 727.480469 569.921875 728.878906 569.722656 C 730.273438 569.519531 731.664062 569.285156 733.050781 569.011719 C 734.433594 568.742188 735.8125 568.433594 737.179688 568.09375 C 738.546875 567.75 739.90625 567.375 741.257812 566.960938 C 742.605469 566.550781 743.945312 566.105469 745.273438 565.625 C 746.597656 565.144531 747.914062 564.632812 749.214844 564.085938 C 750.515625 563.539062 751.800781 562.960938 753.070312 562.347656 C 754.34375 561.738281 755.597656 561.09375 756.835938 560.417969 C 758.074219 559.738281 759.292969 559.03125 760.496094 558.292969 C 761.699219 557.554688 762.878906 556.789062 764.042969 555.988281 C 765.207031 555.191406 766.347656 554.363281 767.46875 553.503906 C 768.589844 552.648438 769.6875 551.761719 770.765625 550.851562 C 771.839844 549.9375 772.890625 548.996094 773.917969 548.03125 C 774.945312 547.0625 775.949219 546.070312 776.925781 545.054688 C 777.902344 544.035156 778.855469 542.996094 779.777344 541.929688 C 780.703125 540.863281 781.597656 539.773438 782.46875 538.660156 C 783.335938 537.550781 784.175781 536.414062 784.984375 535.261719 C 785.796875 534.105469 786.578125 532.933594 787.328125 531.738281 C 788.078125 530.542969 788.796875 529.328125 789.488281 528.097656 C 790.175781 526.867188 790.832031 525.617188 791.457031 524.355469 C 792.082031 523.089844 792.675781 521.808594 793.234375 520.515625 C 793.796875 519.21875 794.320312 517.910156 794.816406 516.589844 C 795.308594 515.265625 795.765625 513.933594 796.191406 512.589844 C 796.617188 511.242188 797.007812 509.886719 797.363281 508.523438 C 797.71875 507.15625 798.042969 505.785156 798.328125 504.402344 C 798.613281 503.019531 798.863281 501.632812 799.078125 500.238281 C 799.292969 498.84375 799.472656 497.445312 799.617188 496.042969 C 799.761719 494.636719 799.871094 493.230469 799.941406 491.824219 C 800.015625 490.414062 800.050781 489.003906 800.050781 487.59375 C 800.042969 484.207031 799.832031 480.832031 799.421875 477.472656 Z M 634.699219 477.472656 " fill-opacity="1" fill-rule="nonzero"/><path fill="#ff2f43" d="M 634.699219 138.449219 C 634.527344 139.847656 634.390625 141.253906 634.289062 142.660156 C 634.191406 144.066406 634.125 145.476562 634.097656 146.886719 C 634.070312 148.296875 634.074219 149.707031 634.121094 151.117188 C 634.164062 152.527344 634.242188 153.9375 634.359375 155.34375 C 634.472656 156.75 634.625 158.152344 634.8125 159.550781 C 635 160.949219 635.21875 162.339844 635.476562 163.726562 C 635.734375 165.113281 636.03125 166.496094 636.359375 167.867188 C 636.6875 169.238281 637.050781 170.601562 637.445312 171.957031 C 637.84375 173.308594 638.277344 174.652344 638.742188 175.984375 C 639.207031 177.316406 639.707031 178.632812 640.242188 179.941406 C 640.777344 181.246094 641.34375 182.539062 641.941406 183.816406 C 642.542969 185.09375 643.171875 186.351562 643.835938 187.597656 C 644.5 188.84375 645.195312 190.070312 645.921875 191.28125 C 646.648438 192.488281 647.40625 193.679688 648.191406 194.851562 C 648.980469 196.023438 649.796875 197.171875 650.640625 198.300781 C 651.488281 199.429688 652.359375 200.539062 653.261719 201.621094 C 654.164062 202.707031 655.09375 203.769531 656.050781 204.804688 C 657.007812 205.84375 657.988281 206.855469 658.996094 207.84375 C 660.003906 208.828125 661.035156 209.789062 662.09375 210.726562 C 663.152344 211.660156 664.230469 212.566406 665.332031 213.445312 C 666.4375 214.324219 667.5625 215.175781 668.707031 216 C 669.855469 216.820312 671.023438 217.613281 672.207031 218.375 C 673.394531 219.140625 674.601562 219.871094 675.824219 220.570312 C 677.050781 221.273438 678.292969 221.941406 679.550781 222.582031 C 680.808594 223.21875 682.082031 223.824219 683.371094 224.394531 C 684.660156 224.96875 685.964844 225.507812 687.28125 226.015625 C 688.597656 226.519531 689.925781 226.992188 691.269531 227.433594 C 692.609375 227.871094 693.960938 228.273438 695.320312 228.644531 C 696.683594 229.015625 698.054688 229.347656 699.433594 229.648438 C 700.8125 229.949219 702.195312 230.214844 703.589844 230.441406 C 704.980469 230.671875 706.378906 230.863281 707.78125 231.023438 C 709.179688 231.179688 710.585938 231.304688 711.996094 231.390625 C 713.402344 231.476562 714.8125 231.527344 716.222656 231.539062 C 717.632812 231.554688 719.042969 231.53125 720.453125 231.476562 C 721.863281 231.417969 723.269531 231.324219 724.675781 231.195312 C 726.082031 231.066406 727.480469 230.898438 728.878906 230.699219 C 730.273438 230.5 731.664062 230.261719 733.050781 229.988281 C 734.433594 229.71875 735.8125 229.410156 737.179688 229.070312 C 738.546875 228.726562 739.90625 228.351562 741.257812 227.941406 C 742.605469 227.527344 743.945312 227.082031 745.273438 226.601562 C 746.597656 226.125 747.914062 225.609375 749.214844 225.0625 C 750.515625 224.515625 751.800781 223.9375 753.070312 223.324219 C 754.34375 222.714844 755.597656 222.070312 756.835938 221.394531 C 758.074219 220.71875 759.292969 220.011719 760.496094 219.273438 C 761.699219 218.535156 762.878906 217.765625 764.042969 216.964844 C 765.207031 216.167969 766.347656 215.339844 767.46875 214.484375 C 768.589844 213.625 769.6875 212.742188 770.765625 211.828125 C 771.839844 210.914062 772.890625 209.976562 773.917969 209.007812 C 774.945312 208.042969 775.949219 207.050781 776.925781 206.03125 C 777.902344 205.015625 778.855469 203.972656 779.777344 202.90625 C 780.703125 201.839844 781.597656 200.75 782.46875 199.636719 C 783.335938 198.527344 784.175781 197.394531 784.984375 196.238281 C 785.796875 195.082031 786.578125 193.910156 787.328125 192.714844 C 788.078125 191.519531 788.796875 190.308594 789.488281 189.074219 C 790.175781 187.84375 790.832031 186.597656 791.457031 185.332031 C 792.082031 184.066406 792.675781 182.785156 793.234375 181.492188 C 793.796875 180.195312 794.320312 178.886719 794.816406 177.566406 C 795.308594 176.246094 795.765625 174.910156 796.191406 173.566406 C 796.617188 172.21875 797.007812 170.863281 797.363281 169.5 C 797.71875 168.136719 798.042969 166.761719 798.328125 165.378906 C 798.613281 164 798.863281 162.609375 799.078125 161.214844 C 799.292969 159.820312 799.472656 158.421875 799.617188 157.019531 C 799.761719 155.617188 799.871094 154.210938 799.941406 152.800781 C 800.015625 151.390625 800.050781 149.980469 800.050781 148.570312 C 800.054688 145.183594 799.859375 141.8125 799.464844 138.449219 Z M 634.699219 138.449219 " fill-opacity="1" fill-rule="nonzero"/><path fill="#ff2f43" d="M 3.019531 97.15625 C 2.835938 98.609375 2.691406 100.066406 2.589844 101.53125 C 2.484375 102.992188 2.417969 104.457031 2.390625 105.921875 C 2.367188 107.386719 2.378906 108.851562 2.429688 110.316406 C 2.480469 111.78125 2.570312 113.242188 2.699219 114.703125 C 2.824219 116.164062 2.992188 117.621094 3.199219 119.070312 C 3.402344 120.523438 3.648438 121.96875 3.929688 123.40625 C 4.210938 124.84375 4.53125 126.273438 4.890625 127.695312 C 5.246094 129.117188 5.640625 130.527344 6.074219 131.925781 C 6.507812 133.328125 6.976562 134.714844 7.484375 136.089844 C 7.988281 137.46875 8.53125 138.828125 9.109375 140.175781 C 9.6875 141.523438 10.300781 142.851562 10.949219 144.167969 C 11.597656 145.480469 12.28125 146.777344 13 148.054688 C 13.714844 149.335938 14.464844 150.59375 15.25 151.832031 C 16.035156 153.070312 16.851562 154.285156 17.699219 155.480469 C 18.546875 156.675781 19.425781 157.847656 20.335938 158.996094 C 21.25 160.144531 22.1875 161.269531 23.160156 162.367188 C 24.128906 163.464844 25.128906 164.539062 26.152344 165.585938 C 27.179688 166.628906 28.234375 167.648438 29.316406 168.636719 C 30.398438 169.628906 31.503906 170.589844 32.636719 171.519531 C 33.765625 172.453125 34.921875 173.351562 36.101562 174.222656 C 37.28125 175.09375 38.484375 175.929688 39.707031 176.738281 C 40.929688 177.542969 42.175781 178.316406 43.441406 179.058594 C 44.703125 179.796875 45.988281 180.503906 47.289062 181.175781 C 48.59375 181.851562 49.910156 182.488281 51.25 183.089844 C 52.585938 183.691406 53.933594 184.261719 55.300781 184.792969 C 56.667969 185.320312 58.046875 185.816406 59.4375 186.273438 C 60.832031 186.734375 62.234375 187.152344 63.648438 187.539062 C 65.0625 187.921875 66.488281 188.265625 67.921875 188.574219 C 69.355469 188.882812 70.792969 189.152344 72.242188 189.386719 C 73.6875 189.617188 75.140625 189.8125 76.597656 189.964844 C 78.054688 190.121094 79.515625 190.238281 80.980469 190.316406 C 82.445312 190.390625 83.90625 190.429688 85.375 190.429688 C 86.839844 190.429688 88.304688 190.390625 89.769531 190.316406 C 91.230469 190.238281 92.691406 190.121094 94.148438 189.964844 C 95.605469 189.8125 97.058594 189.617188 98.507812 189.386719 C 99.953125 189.152344 101.394531 188.882812 102.828125 188.574219 C 104.261719 188.265625 105.683594 187.921875 107.097656 187.539062 C 108.511719 187.152344 109.917969 186.734375 111.308594 186.273438 C 112.699219 185.816406 114.082031 185.320312 115.445312 184.792969 C 116.8125 184.261719 118.164062 183.691406 119.5 183.089844 C 120.835938 182.488281 122.15625 181.851562 123.457031 181.175781 C 124.757812 180.503906 126.042969 179.796875 127.308594 179.058594 C 128.574219 178.316406 129.816406 177.542969 131.042969 176.738281 C 132.265625 175.929688 133.464844 175.09375 134.644531 174.222656 C 135.824219 173.351562 136.980469 172.453125 138.113281 171.519531 C 139.246094 170.589844 140.351562 169.628906 141.433594 168.636719 C 142.511719 167.648438 143.566406 166.628906 144.59375 165.585938 C 145.621094 164.539062 146.617188 163.464844 147.589844 162.367188 C 148.558594 161.269531 149.5 160.144531 150.410156 158.996094 C 151.320312 157.847656 152.199219 156.675781 153.046875 155.480469 C 153.898438 154.285156 154.714844 153.070312 155.496094 151.832031 C 156.28125 150.59375 157.03125 149.335938 157.75 148.054688 C 158.46875 146.777344 159.148438 145.480469 159.796875 144.167969 C 160.449219 142.851562 161.0625 141.523438 161.640625 140.175781 C 162.21875 138.828125 162.757812 137.46875 163.265625 136.089844 C 163.769531 134.714844 164.242188 133.328125 164.671875 131.925781 C 165.105469 130.527344 165.5 129.117188 165.859375 127.695312 C 166.214844 126.273438 166.535156 124.84375 166.820312 123.40625 C 167.101562 121.96875 167.34375 120.523438 167.550781 119.070312 C 167.753906 117.621094 167.921875 116.164062 168.050781 114.703125 C 168.179688 113.242188 168.269531 111.78125 168.320312 110.316406 C 168.371094 108.851562 168.382812 107.386719 168.355469 105.921875 C 168.328125 104.457031 168.261719 102.992188 168.160156 101.53125 C 168.054688 100.066406 167.910156 98.609375 167.730469 97.15625 Z M 3.019531 97.15625 " fill-opacity="1" fill-rule="nonzero"/><path fill="#412179" d="M 807.773438 340.011719 C 808.183594 336.652344 808.394531 333.277344 808.402344 329.890625 C 808.402344 328.476562 808.371094 327.066406 808.300781 325.65625 C 808.230469 324.242188 808.125 322.835938 807.984375 321.429688 C 807.84375 320.023438 807.667969 318.621094 807.453125 317.226562 C 807.242188 315.828125 806.992188 314.4375 806.707031 313.054688 C 806.425781 311.671875 806.105469 310.292969 805.75 308.925781 C 805.398438 307.558594 805.007812 306.203125 804.585938 304.855469 C 804.160156 303.507812 803.703125 302.167969 803.210938 300.84375 C 802.71875 299.519531 802.195312 298.210938 801.636719 296.910156 C 801.078125 295.613281 800.484375 294.332031 799.863281 293.066406 C 799.238281 291.796875 798.582031 290.546875 797.894531 289.3125 C 797.203125 288.078125 796.484375 286.863281 795.734375 285.664062 C 794.984375 284.46875 794.207031 283.292969 793.394531 282.132812 C 792.585938 280.976562 791.746094 279.839844 790.878906 278.726562 C 790.007812 277.613281 789.113281 276.519531 788.1875 275.449219 C 787.265625 274.382812 786.3125 273.339844 785.335938 272.316406 C 784.359375 271.296875 783.355469 270.304688 782.328125 269.332031 C 781.300781 268.363281 780.25 267.421875 779.171875 266.507812 C 778.09375 265.59375 776.996094 264.707031 775.875 263.847656 C 774.753906 262.988281 773.609375 262.15625 772.445312 261.355469 C 771.28125 260.554688 770.097656 259.785156 768.894531 259.042969 C 767.691406 258.304688 766.472656 257.59375 765.230469 256.917969 C 763.992188 256.238281 762.734375 255.59375 761.464844 254.980469 C 760.191406 254.367188 758.902344 253.785156 757.601562 253.238281 C 756.300781 252.6875 754.984375 252.175781 753.65625 251.691406 C 752.328125 251.210938 750.988281 250.765625 749.636719 250.351562 C 748.285156 249.941406 746.925781 249.5625 745.554688 249.21875 C 744.183594 248.878906 742.804688 248.570312 741.417969 248.296875 C 740.03125 248.023438 738.640625 247.789062 737.242188 247.585938 C 735.84375 247.382812 734.441406 247.21875 733.035156 247.089844 C 731.625 246.957031 730.21875 246.863281 728.804688 246.808594 C 727.394531 246.75 725.980469 246.726562 724.570312 246.742188 C 723.15625 246.757812 721.746094 246.804688 720.335938 246.890625 C 718.925781 246.980469 717.519531 247.101562 716.113281 247.257812 C 714.710938 247.417969 713.3125 247.613281 711.917969 247.839844 C 710.523438 248.070312 709.136719 248.335938 707.753906 248.636719 C 706.375 248.9375 705.003906 249.273438 703.640625 249.644531 C 702.277344 250.011719 700.921875 250.417969 699.582031 250.859375 C 698.238281 251.296875 696.90625 251.769531 695.589844 252.277344 C 694.269531 252.785156 692.964844 253.328125 691.675781 253.902344 C 690.382812 254.476562 689.109375 255.082031 687.847656 255.722656 C 686.589844 256.359375 685.34375 257.03125 684.121094 257.734375 C 682.894531 258.4375 681.6875 259.171875 680.5 259.9375 C 679.3125 260.699219 678.144531 261.496094 676.996094 262.316406 C 675.847656 263.140625 674.722656 263.996094 673.617188 264.875 C 672.515625 265.757812 671.433594 266.667969 670.375 267.605469 C 669.316406 268.542969 668.285156 269.503906 667.277344 270.492188 C 666.269531 271.484375 665.285156 272.496094 664.328125 273.539062 C 663.371094 274.578125 662.441406 275.640625 661.542969 276.726562 C 660.640625 277.816406 659.765625 278.925781 658.917969 280.054688 C 658.074219 281.1875 657.257812 282.339844 656.46875 283.515625 C 655.683594 284.6875 654.925781 285.878906 654.203125 287.09375 C 653.476562 288.304688 652.78125 289.535156 652.117188 290.78125 C 651.457031 292.03125 650.824219 293.292969 650.226562 294.574219 C 649.628906 295.851562 649.0625 297.148438 648.53125 298.457031 C 647.996094 299.765625 647.5 301.085938 647.035156 302.417969 C 646.570312 303.753906 646.136719 305.097656 645.742188 306.453125 C 645.34375 307.8125 644.984375 309.175781 644.65625 310.550781 C 644.332031 311.925781 644.039062 313.308594 643.785156 314.695312 C 643.527344 316.085938 643.308594 317.480469 643.121094 318.882812 C 642.9375 320.28125 642.789062 321.6875 642.675781 323.09375 C 642.5625 324.503906 642.484375 325.914062 642.445312 327.328125 C 642.402344 328.738281 642.398438 330.152344 642.429688 331.5625 C 642.460938 332.976562 642.527344 334.386719 642.632812 335.796875 C 642.734375 337.203125 642.875 338.609375 643.050781 340.011719 Z M 807.773438 340.011719 " fill-opacity="1" fill-rule="nonzero"/><g clip-path="url(#e6e2e5fa34)"><path fill="#010b48" d="M 296.910156 84.265625 L 403 0.140625 L 190.832031 0.140625 Z M 296.910156 84.265625 " fill-opacity="1" fill-rule="nonzero"/></g><path fill="#010b48" d="M 514.777344 168.488281 L 408.691406 252.617188 L 620.855469 252.617188 Z M 514.777344 168.488281 " fill-opacity="1" fill-rule="nonzero"/><path fill="#ff2f43" d="M 379.488281 293.457031 C 379.660156 292.058594 379.796875 290.65625 379.898438 289.246094 C 379.996094 287.839844 380.0625 286.429688 380.089844 285.019531 C 380.117188 283.609375 380.109375 282.199219 380.066406 280.789062 C 380.023438 279.378906 379.945312 277.972656 379.828125 276.566406 C 379.714844 275.160156 379.5625 273.757812 379.375 272.359375 C 379.1875 270.960938 378.964844 269.566406 378.707031 268.179688 C 378.449219 266.792969 378.15625 265.414062 377.828125 264.039062 C 377.5 262.667969 377.136719 261.304688 376.738281 259.953125 C 376.34375 258.597656 375.910156 257.253906 375.445312 255.925781 C 374.976562 254.59375 374.476562 253.273438 373.945312 251.96875 C 373.410156 250.660156 372.84375 249.371094 372.246094 248.09375 C 371.644531 246.816406 371.015625 245.554688 370.351562 244.308594 C 369.6875 243.0625 368.992188 241.835938 368.265625 240.628906 C 367.539062 239.417969 366.78125 238.226562 365.996094 237.054688 C 365.207031 235.886719 364.390625 234.734375 363.546875 233.605469 C 362.699219 232.476562 361.828125 231.371094 360.925781 230.285156 C 360.023438 229.199219 359.09375 228.140625 358.136719 227.101562 C 357.179688 226.066406 356.199219 225.050781 355.191406 224.066406 C 354.183594 223.078125 353.148438 222.117188 352.09375 221.183594 C 351.035156 220.246094 349.957031 219.339844 348.851562 218.460938 C 347.75 217.582031 346.625 216.730469 345.476562 215.910156 C 344.332031 215.085938 343.164062 214.292969 341.976562 213.53125 C 340.789062 212.769531 339.585938 212.035156 338.359375 211.335938 C 337.136719 210.632812 335.894531 209.964844 334.636719 209.328125 C 333.378906 208.691406 332.105469 208.085938 330.816406 207.511719 C 329.527344 206.9375 328.222656 206.398438 326.90625 205.890625 C 325.589844 205.386719 324.261719 204.914062 322.917969 204.476562 C 321.578125 204.035156 320.226562 203.632812 318.863281 203.261719 C 317.503906 202.894531 316.132812 202.558594 314.753906 202.257812 C 313.375 201.957031 311.992188 201.695312 310.597656 201.464844 C 309.207031 201.234375 307.808594 201.042969 306.40625 200.882812 C 305.003906 200.726562 303.601562 200.605469 302.191406 200.519531 C 300.785156 200.433594 299.375 200.382812 297.964844 200.367188 C 296.550781 200.351562 295.140625 200.375 293.734375 200.433594 C 292.324219 200.492188 290.914062 200.582031 289.511719 200.714844 C 288.105469 200.84375 286.703125 201.007812 285.308594 201.207031 C 283.910156 201.410156 282.523438 201.644531 281.136719 201.917969 C 279.753906 202.1875 278.375 202.496094 277.007812 202.839844 C 275.636719 203.179688 274.277344 203.558594 272.929688 203.96875 C 271.578125 204.378906 270.242188 204.824219 268.914062 205.304688 C 267.589844 205.785156 266.273438 206.296875 264.972656 206.84375 C 263.671875 207.390625 262.386719 207.96875 261.117188 208.582031 C 259.84375 209.195312 258.589844 209.839844 257.351562 210.515625 C 256.113281 211.191406 254.894531 211.898438 253.691406 212.636719 C 252.488281 213.375 251.304688 214.144531 250.144531 214.941406 C 248.980469 215.738281 247.839844 216.566406 246.71875 217.425781 C 245.597656 218.28125 244.5 219.167969 243.421875 220.078125 C 242.347656 220.992188 241.296875 221.933594 240.265625 222.898438 C 239.238281 223.867188 238.238281 224.859375 237.261719 225.875 C 236.28125 226.894531 235.332031 227.933594 234.410156 229 C 233.484375 230.066406 232.589844 231.15625 231.71875 232.269531 C 230.851562 233.382812 230.011719 234.515625 229.203125 235.667969 C 228.390625 236.824219 227.609375 238 226.859375 239.191406 C 226.109375 240.386719 225.390625 241.601562 224.699219 242.832031 C 224.011719 244.0625 223.355469 245.3125 222.730469 246.574219 C 222.105469 247.839844 221.511719 249.121094 220.953125 250.414062 C 220.390625 251.710938 219.863281 253.019531 219.371094 254.339844 C 218.878906 255.664062 218.417969 256.996094 217.996094 258.339844 C 217.570312 259.6875 217.179688 261.042969 216.824219 262.40625 C 216.464844 263.773438 216.144531 265.144531 215.859375 266.527344 C 215.574219 267.910156 215.324219 269.296875 215.109375 270.691406 C 214.890625 272.085938 214.714844 273.484375 214.570312 274.886719 C 214.425781 276.292969 214.316406 277.699219 214.246094 279.105469 C 214.171875 280.515625 214.136719 281.925781 214.136719 283.335938 C 214.144531 286.722656 214.355469 290.097656 214.765625 293.457031 Z M 379.488281 293.457031 " fill-opacity="1" fill-rule="nonzero"/><path fill="#010b48" d="M 296.910156 358.925781 L 379.269531 293.457031 L 214.566406 293.457031 Z M 296.910156 358.925781 " fill-opacity="1" fill-rule="nonzero"/><g clip-path="url(#f73db9d3d3)"><path fill="#010b48" d="M 167.730469 602.011719 C 167.902344 600.609375 168.039062 599.207031 168.136719 597.800781 C 168.238281 596.394531 168.304688 594.984375 168.332031 593.574219 C 168.359375 592.164062 168.351562 590.753906 168.308594 589.34375 C 168.265625 587.933594 168.1875 586.523438 168.070312 585.117188 C 167.957031 583.710938 167.804688 582.308594 167.617188 580.910156 C 167.429688 579.511719 167.207031 578.121094 166.949219 576.730469 C 166.691406 575.34375 166.398438 573.964844 166.070312 572.59375 C 165.742188 571.222656 165.378906 569.859375 164.980469 568.503906 C 164.585938 567.152344 164.152344 565.808594 163.6875 564.476562 C 163.21875 563.144531 162.71875 561.828125 162.1875 560.519531 C 161.652344 559.214844 161.085938 557.921875 160.488281 556.644531 C 159.886719 555.367188 159.253906 554.105469 158.59375 552.863281 C 157.929688 551.617188 157.234375 550.390625 156.507812 549.179688 C 155.78125 547.972656 155.023438 546.78125 154.238281 545.609375 C 153.449219 544.4375 152.632812 543.289062 151.789062 542.160156 C 150.941406 541.03125 150.066406 539.921875 149.164062 538.839844 C 148.265625 537.753906 147.335938 536.691406 146.378906 535.65625 C 145.421875 534.617188 144.441406 533.605469 143.433594 532.617188 C 142.425781 531.628906 141.390625 530.667969 140.335938 529.734375 C 139.277344 528.800781 138.199219 527.894531 137.09375 527.015625 C 135.992188 526.132812 134.867188 525.285156 133.71875 524.460938 C 132.574219 523.640625 131.40625 522.847656 130.21875 522.085938 C 129.03125 521.320312 127.828125 520.589844 126.601562 519.890625 C 125.378906 519.1875 124.136719 518.519531 122.878906 517.878906 C 121.621094 517.242188 120.347656 516.636719 119.058594 516.0625 C 117.765625 515.492188 116.464844 514.953125 115.148438 514.445312 C 113.832031 513.9375 112.5 513.464844 111.160156 513.027344 C 109.820312 512.589844 108.46875 512.183594 107.105469 511.816406 C 105.746094 511.445312 104.375 511.113281 102.996094 510.8125 C 101.617188 510.511719 100.230469 510.246094 98.839844 510.019531 C 97.449219 509.789062 96.050781 509.59375 94.648438 509.4375 C 93.246094 509.28125 91.84375 509.15625 90.433594 509.070312 C 89.023438 508.984375 87.617188 508.933594 86.203125 508.921875 C 84.792969 508.90625 83.382812 508.929688 81.972656 508.984375 C 80.566406 509.042969 79.15625 509.136719 77.753906 509.265625 C 76.347656 509.394531 74.945312 509.5625 73.550781 509.761719 C 72.152344 509.960938 70.761719 510.199219 69.378906 510.46875 C 67.996094 510.742188 66.617188 511.050781 65.25 511.390625 C 63.878906 511.734375 62.519531 512.109375 61.171875 512.519531 C 59.820312 512.933594 58.484375 513.378906 57.15625 513.855469 C 55.828125 514.335938 54.515625 514.851562 53.214844 515.398438 C 51.914062 515.941406 50.628906 516.523438 49.359375 517.132812 C 48.085938 517.746094 46.832031 518.390625 45.59375 519.066406 C 44.355469 519.742188 43.136719 520.449219 41.933594 521.1875 C 40.730469 521.925781 39.546875 522.695312 38.382812 523.496094 C 37.222656 524.292969 36.078125 525.121094 34.957031 525.976562 C 33.839844 526.835938 32.738281 527.71875 31.664062 528.632812 C 30.589844 529.546875 29.535156 530.484375 28.507812 531.453125 C 27.480469 532.417969 26.480469 533.410156 25.5 534.429688 C 24.523438 535.445312 23.574219 536.488281 22.648438 537.554688 C 21.726562 538.621094 20.832031 539.710938 19.960938 540.820312 C 19.09375 541.933594 18.253906 543.066406 17.441406 544.222656 C 16.632812 545.375 15.851562 546.550781 15.101562 547.746094 C 14.351562 548.941406 13.628906 550.152344 12.941406 551.386719 C 12.253906 552.617188 11.597656 553.863281 10.96875 555.128906 C 10.34375 556.394531 9.753906 557.671875 9.191406 558.96875 C 8.632812 560.261719 8.105469 561.570312 7.613281 562.894531 C 7.121094 564.214844 6.660156 565.550781 6.234375 566.894531 C 5.8125 568.238281 5.421875 569.59375 5.0625 570.960938 C 4.707031 572.324219 4.386719 573.699219 4.101562 575.082031 C 3.816406 576.460938 3.566406 577.851562 3.347656 579.246094 C 3.132812 580.640625 2.953125 582.039062 2.8125 583.441406 C 2.667969 584.84375 2.558594 586.25 2.488281 587.660156 C 2.414062 589.070312 2.378906 590.480469 2.378906 591.890625 C 2.382812 595.277344 2.597656 598.652344 3.019531 602.011719 Z M 167.730469 602.011719 " fill-opacity="1" fill-rule="nonzero"/></g><path fill="#ff2f43" d="M 235.480469 183.324219 L 266.066406 111.132812 L 204.882812 111.132812 Z M 235.480469 183.324219 " fill-opacity="1" fill-rule="nonzero"/><path fill="#010b48" d="M 297.132812 183.324219 L 327.71875 111.132812 L 266.535156 111.132812 Z M 297.132812 183.324219 " fill-opacity="1" fill-rule="nonzero"/><g clip-path="url(#b8e02233c5)"><path fill="#ff2f43" d="M 349.300781 616.679688 L 379.886719 544.488281 L 318.707031 544.488281 Z M 349.300781 616.679688 " fill-opacity="1" fill-rule="nonzero"/></g><g clip-path="url(#e5e859c276)"><path fill="#010b48" d="M 410.953125 616.679688 L 441.539062 544.488281 L 380.359375 544.488281 Z M 410.953125 616.679688 " fill-opacity="1" fill-rule="nonzero"/></g><path fill="#010b48" d="M 479.949219 350.40625 L 510.546875 278.214844 L 449.367188 278.214844 Z M 479.949219 350.40625 " fill-opacity="1" fill-rule="nonzero"/><path fill="#ff9f03" d="M 541.601562 350.40625 L 572.199219 278.214844 L 511.015625 278.214844 Z M 541.601562 350.40625 " fill-opacity="1" fill-rule="nonzero"/><path fill="#ff2f43" d="M 877.441406 372.652344 L 846.84375 444.84375 L 908.023438 444.84375 Z M 877.441406 372.652344 " fill-opacity="1" fill-rule="nonzero"/><path fill="#ff9f03" d="M 815.789062 372.652344 L 785.191406 444.84375 L 846.371094 444.84375 Z M 815.789062 372.652344 " fill-opacity="1" fill-rule="nonzero"/><path fill="#412179" d="M 622.765625 121.441406 C 622.765625 122.921875 622.691406 124.394531 622.546875 125.867188 C 622.402344 127.339844 622.183594 128.800781 621.898438 130.25 C 621.609375 131.699219 621.25 133.132812 620.820312 134.546875 C 620.390625 135.960938 619.894531 137.351562 619.328125 138.71875 C 618.761719 140.082031 618.132812 141.417969 617.433594 142.722656 C 616.738281 144.023438 615.976562 145.292969 615.15625 146.519531 C 614.335938 147.75 613.457031 148.9375 612.519531 150.078125 C 611.582031 151.222656 610.589844 152.316406 609.542969 153.359375 C 608.496094 154.40625 607.402344 155.398438 606.261719 156.335938 C 605.117188 157.273438 603.933594 158.152344 602.703125 158.972656 C 601.472656 159.796875 600.207031 160.554688 598.902344 161.25 C 597.601562 161.949219 596.265625 162.582031 594.898438 163.144531 C 593.535156 163.710938 592.144531 164.210938 590.726562 164.636719 C 589.3125 165.066406 587.882812 165.425781 586.429688 165.714844 C 584.980469 166.003906 583.519531 166.21875 582.050781 166.363281 C 580.578125 166.507812 579.105469 166.582031 577.625 166.582031 C 576.148438 166.582031 574.671875 166.507812 573.199219 166.363281 C 571.730469 166.21875 570.269531 166.003906 568.820312 165.714844 C 567.371094 165.425781 565.9375 165.066406 564.523438 164.636719 C 563.109375 164.210938 561.71875 163.710938 560.351562 163.144531 C 558.984375 162.582031 557.652344 161.949219 556.347656 161.25 C 555.042969 160.554688 553.777344 159.796875 552.546875 158.972656 C 551.316406 158.152344 550.132812 157.273438 548.988281 156.335938 C 547.847656 155.398438 546.753906 154.40625 545.707031 153.359375 C 544.660156 152.316406 543.671875 151.222656 542.734375 150.078125 C 541.792969 148.9375 540.914062 147.75 540.09375 146.519531 C 539.273438 145.292969 538.511719 144.023438 537.816406 142.722656 C 537.121094 141.417969 536.488281 140.082031 535.921875 138.71875 C 535.355469 137.351562 534.859375 135.960938 534.429688 134.546875 C 534 133.132812 533.640625 131.699219 533.355469 130.25 C 533.066406 128.800781 532.847656 127.339844 532.703125 125.867188 C 532.558594 124.394531 532.488281 122.921875 532.488281 121.441406 C 532.488281 119.964844 532.558594 118.488281 532.703125 117.019531 C 532.847656 115.546875 533.066406 114.085938 533.355469 112.636719 C 533.640625 111.1875 534 109.753906 534.429688 108.339844 C 534.859375 106.925781 535.355469 105.535156 535.921875 104.167969 C 536.488281 102.804688 537.121094 101.46875 537.816406 100.164062 C 538.511719 98.859375 539.273438 97.59375 540.09375 96.367188 C 540.914062 95.136719 541.792969 93.949219 542.734375 92.808594 C 543.671875 91.664062 544.660156 90.570312 545.707031 89.523438 C 546.753906 88.480469 547.847656 87.488281 548.988281 86.550781 C 550.132812 85.613281 551.316406 84.734375 552.546875 83.910156 C 553.777344 83.089844 555.042969 82.332031 556.347656 81.632812 C 557.652344 80.9375 558.984375 80.304688 560.351562 79.742188 C 561.71875 79.175781 563.109375 78.675781 564.523438 78.246094 C 565.9375 77.820312 567.371094 77.460938 568.820312 77.171875 C 570.269531 76.882812 571.730469 76.667969 573.199219 76.523438 C 574.671875 76.375 576.148438 76.304688 577.625 76.304688 C 579.105469 76.304688 580.578125 76.375 582.050781 76.523438 C 583.519531 76.667969 584.980469 76.882812 586.429688 77.171875 C 587.882812 77.460938 589.3125 77.820312 590.726562 78.246094 C 592.144531 78.675781 593.535156 79.175781 594.898438 79.742188 C 596.265625 80.304688 597.601562 80.9375 598.902344 81.632812 C 600.207031 82.332031 601.472656 83.089844 602.703125 83.910156 C 603.933594 84.734375 605.117188 85.613281 606.261719 86.550781 C 607.402344 87.488281 608.496094 88.480469 609.542969 89.523438 C 610.589844 90.570312 611.582031 91.664062 612.519531 92.808594 C 613.457031 93.949219 614.335938 95.136719 615.15625 96.367188 C 615.976562 97.59375 616.738281 98.859375 617.433594 100.164062 C 618.132812 101.46875 618.761719 102.804688 619.328125 104.167969 C 619.894531 105.535156 620.390625 106.925781 620.820312 108.339844 C 621.25 109.753906 621.609375 111.1875 621.898438 112.636719 C 622.183594 114.085938 622.402344 115.546875 622.546875 117.019531 C 622.691406 118.488281 622.765625 119.964844 622.765625 121.441406 Z M 622.765625 121.441406 " fill-opacity="1" fill-rule="nonzero"/><g clip-path="url(#cbdd87c638)"><path fill="#010b48" d="M 855.46875 561.316406 C 855.46875 562.222656 855.421875 563.125 855.335938 564.023438 C 855.246094 564.925781 855.113281 565.820312 854.9375 566.707031 C 854.761719 567.597656 854.539062 568.472656 854.277344 569.339844 C 854.015625 570.207031 853.710938 571.058594 853.363281 571.894531 C 853.015625 572.730469 852.628906 573.546875 852.203125 574.34375 C 851.777344 575.144531 851.3125 575.917969 850.808594 576.671875 C 850.304688 577.425781 849.769531 578.152344 849.195312 578.851562 C 848.621094 579.550781 848.011719 580.21875 847.371094 580.859375 C 846.730469 581.5 846.0625 582.109375 845.363281 582.683594 C 844.664062 583.257812 843.9375 583.796875 843.183594 584.296875 C 842.429688 584.800781 841.65625 585.265625 840.855469 585.691406 C 840.058594 586.121094 839.242188 586.503906 838.40625 586.851562 C 837.566406 587.199219 836.71875 587.503906 835.851562 587.765625 C 834.984375 588.027344 834.105469 588.25 833.21875 588.425781 C 832.332031 588.601562 831.4375 588.734375 830.535156 588.824219 C 829.636719 588.910156 828.730469 588.957031 827.828125 588.957031 C 826.921875 588.957031 826.019531 588.910156 825.117188 588.824219 C 824.214844 588.734375 823.324219 588.601562 822.433594 588.425781 C 821.546875 588.25 820.667969 588.027344 819.804688 587.765625 C 818.9375 587.503906 818.085938 587.199219 817.25 586.851562 C 816.414062 586.503906 815.59375 586.121094 814.796875 585.691406 C 814 585.265625 813.222656 584.800781 812.46875 584.296875 C 811.71875 583.792969 810.992188 583.257812 810.292969 582.683594 C 809.59375 582.109375 808.921875 581.5 808.28125 580.859375 C 807.640625 580.21875 807.035156 579.550781 806.460938 578.851562 C 805.886719 578.152344 805.347656 577.425781 804.84375 576.671875 C 804.339844 575.917969 803.875 575.144531 803.449219 574.34375 C 803.023438 573.546875 802.636719 572.730469 802.289062 571.894531 C 801.945312 571.058594 801.640625 570.207031 801.375 569.339844 C 801.113281 568.472656 800.894531 567.597656 800.71875 566.707031 C 800.539062 565.820312 800.40625 564.925781 800.320312 564.023438 C 800.230469 563.125 800.1875 562.222656 800.1875 561.316406 C 800.1875 560.410156 800.230469 559.507812 800.320312 558.605469 C 800.40625 557.707031 800.539062 556.8125 800.71875 555.921875 C 800.894531 555.035156 801.113281 554.15625 801.375 553.292969 C 801.640625 552.425781 801.945312 551.574219 802.289062 550.738281 C 802.636719 549.902344 803.023438 549.085938 803.449219 548.285156 C 803.875 547.488281 804.339844 546.710938 804.84375 545.960938 C 805.347656 545.207031 805.886719 544.480469 806.460938 543.78125 C 807.035156 543.082031 807.640625 542.410156 808.28125 541.769531 C 808.921875 541.128906 809.59375 540.523438 810.292969 539.949219 C 810.992188 539.375 811.71875 538.835938 812.46875 538.332031 C 813.222656 537.832031 814 537.367188 814.796875 536.9375 C 815.59375 536.511719 816.414062 536.125 817.25 535.777344 C 818.085938 535.433594 818.9375 535.128906 819.804688 534.863281 C 820.667969 534.601562 821.546875 534.382812 822.433594 534.207031 C 823.324219 534.03125 824.214844 533.898438 825.117188 533.808594 C 826.019531 533.71875 826.921875 533.675781 827.828125 533.675781 C 828.730469 533.675781 829.636719 533.71875 830.535156 533.808594 C 831.4375 533.898438 832.332031 534.03125 833.21875 534.207031 C 834.105469 534.382812 834.984375 534.601562 835.851562 534.863281 C 836.71875 535.128906 837.566406 535.433594 838.40625 535.777344 C 839.242188 536.125 840.058594 536.511719 840.855469 536.9375 C 841.65625 537.367188 842.429688 537.832031 843.183594 538.332031 C 843.9375 538.835938 844.664062 539.375 845.363281 539.949219 C 846.0625 540.523438 846.730469 541.128906 847.371094 541.769531 C 848.011719 542.410156 848.621094 543.082031 849.195312 543.78125 C 849.769531 544.480469 850.304688 545.207031 850.808594 545.960938 C 851.3125 546.710938 851.777344 547.488281 852.203125 548.285156 C 852.628906 549.085938 853.015625 549.902344 853.363281 550.738281 C 853.710938 551.574219 854.015625 552.425781 854.277344 553.292969 C 854.539062 554.15625 854.761719 555.035156 854.9375 555.921875 C 855.113281 556.8125 855.246094 557.707031 855.335938 558.605469 C 855.421875 559.507812 855.46875 560.410156 855.46875 561.316406 Z M 855.46875 561.316406 " fill-opacity="1" fill-rule="nonzero"/></g><g clip-path="url(#c263bbb12b)"><path fill="#010b48" d="M 951.664062 44.660156 C 951.664062 46.140625 951.59375 47.613281 951.449219 49.085938 C 951.304688 50.558594 951.085938 52.015625 950.796875 53.46875 C 950.507812 54.917969 950.152344 56.347656 949.722656 57.765625 C 949.292969 59.179688 948.792969 60.570312 948.230469 61.933594 C 947.664062 63.300781 947.03125 64.636719 946.335938 65.9375 C 945.636719 67.242188 944.878906 68.507812 944.058594 69.738281 C 943.238281 70.96875 942.355469 72.152344 941.417969 73.296875 C 940.480469 74.441406 939.488281 75.535156 938.445312 76.578125 C 937.398438 77.625 936.304688 78.617188 935.164062 79.554688 C 934.019531 80.492188 932.832031 81.371094 931.605469 82.191406 C 930.375 83.015625 929.109375 83.773438 927.804688 84.46875 C 926.5 85.167969 925.164062 85.796875 923.800781 86.363281 C 922.433594 86.929688 921.042969 87.425781 919.628906 87.855469 C 918.214844 88.285156 916.78125 88.644531 915.332031 88.933594 C 913.882812 89.222656 912.421875 89.4375 910.949219 89.582031 C 909.480469 89.726562 908.003906 89.800781 906.527344 89.800781 C 905.046875 89.800781 903.574219 89.726562 902.101562 89.582031 C 900.628906 89.4375 899.171875 89.222656 897.71875 88.933594 C 896.269531 88.644531 894.839844 88.285156 893.421875 87.855469 C 892.007812 87.425781 890.617188 86.929688 889.253906 86.363281 C 887.886719 85.796875 886.550781 85.167969 885.246094 84.46875 C 883.945312 83.773438 882.679688 83.015625 881.449219 82.191406 C 880.21875 81.371094 879.035156 80.492188 877.890625 79.554688 C 876.746094 78.617188 875.652344 77.625 874.609375 76.578125 C 873.5625 75.535156 872.570312 74.441406 871.632812 73.296875 C 870.695312 72.152344 869.816406 70.96875 868.996094 69.738281 C 868.171875 68.507812 867.414062 67.242188 866.71875 65.9375 C 866.019531 64.636719 865.390625 63.300781 864.824219 61.933594 C 864.257812 60.570312 863.761719 59.179688 863.332031 57.765625 C 862.902344 56.347656 862.542969 54.917969 862.253906 53.46875 C 861.964844 52.015625 861.75 50.558594 861.605469 49.085938 C 861.460938 47.613281 861.386719 46.140625 861.386719 44.660156 C 861.386719 43.183594 861.460938 41.707031 861.605469 40.238281 C 861.75 38.765625 861.964844 37.304688 862.253906 35.855469 C 862.542969 34.40625 862.902344 32.972656 863.332031 31.558594 C 863.761719 30.144531 864.257812 28.753906 864.824219 27.386719 C 865.390625 26.019531 866.019531 24.6875 866.71875 23.382812 C 867.414062 22.078125 868.171875 20.8125 868.996094 19.582031 C 869.816406 18.355469 870.695312 17.167969 871.632812 16.023438 C 872.570312 14.882812 873.5625 13.789062 874.609375 12.742188 C 875.652344 11.699219 876.746094 10.707031 877.890625 9.769531 C 879.035156 8.832031 880.21875 7.949219 881.449219 7.128906 C 882.679688 6.308594 883.945312 5.550781 885.246094 4.851562 C 886.550781 4.15625 887.886719 3.523438 889.253906 2.957031 C 890.617188 2.390625 892.007812 1.894531 893.421875 1.464844 C 894.835938 1.035156 896.269531 0.679688 897.71875 0.390625 C 899.171875 0.101562 900.628906 -0.117188 902.101562 -0.261719 C 903.574219 -0.40625 905.046875 -0.476562 906.527344 -0.476562 C 908.003906 -0.476562 909.480469 -0.40625 910.949219 -0.261719 C 912.421875 -0.117188 913.882812 0.101562 915.332031 0.390625 C 916.78125 0.679688 918.214844 1.035156 919.628906 1.464844 C 921.042969 1.894531 922.433594 2.390625 923.800781 2.957031 C 925.164062 3.523438 926.5 4.15625 927.804688 4.851562 C 929.109375 5.550781 930.375 6.308594 931.605469 7.128906 C 932.832031 7.949219 934.019531 8.832031 935.164062 9.769531 C 936.304688 10.707031 937.398438 11.699219 938.445312 12.742188 C 939.488281 13.789062 940.480469 14.882812 941.417969 16.023438 C 942.355469 17.167969 943.238281 18.355469 944.058594 19.582031 C 944.878906 20.8125 945.636719 22.078125 946.335938 23.382812 C 947.03125 24.6875 947.664062 26.019531 948.230469 27.386719 C 948.792969 28.753906 949.292969 30.144531 949.722656 31.558594 C 950.152344 32.972656 950.507812 34.40625 950.796875 35.855469 C 951.085938 37.304688 951.304688 38.765625 951.449219 40.238281 C 951.59375 41.707031 951.664062 43.183594 951.664062 44.660156 Z M 951.664062 44.660156 " fill-opacity="1" fill-rule="nonzero"/></g><g clip-path="url(#7b585f93e7)"><path fill="#010b48" d="M 1047.789062 44.660156 C 1047.789062 46.140625 1047.71875 47.613281 1047.570312 49.085938 C 1047.425781 50.558594 1047.210938 52.015625 1046.921875 53.46875 C 1046.632812 54.917969 1046.273438 56.347656 1045.84375 57.765625 C 1045.417969 59.179688 1044.917969 60.570312 1044.351562 61.933594 C 1043.789062 63.300781 1043.15625 64.636719 1042.460938 65.9375 C 1041.761719 67.242188 1041.003906 68.507812 1040.183594 69.738281 C 1039.359375 70.96875 1038.480469 72.152344 1037.542969 73.296875 C 1036.605469 74.441406 1035.613281 75.535156 1034.570312 76.578125 C 1033.523438 77.625 1032.429688 78.617188 1031.285156 79.554688 C 1030.144531 80.492188 1028.957031 81.371094 1027.726562 82.191406 C 1026.5 83.015625 1025.234375 83.773438 1023.929688 84.46875 C 1022.625 85.167969 1021.289062 85.796875 1019.925781 86.363281 C 1018.558594 86.929688 1017.167969 87.425781 1015.753906 87.855469 C 1014.339844 88.285156 1012.90625 88.644531 1011.457031 88.933594 C 1010.007812 89.222656 1008.546875 89.4375 1007.074219 89.582031 C 1005.605469 89.726562 1004.128906 89.800781 1002.652344 89.800781 C 1001.171875 89.800781 999.699219 89.726562 998.226562 89.582031 C 996.753906 89.4375 995.292969 89.222656 993.84375 88.933594 C 992.394531 88.644531 990.960938 88.285156 989.546875 87.855469 C 988.132812 87.425781 986.742188 86.929688 985.375 86.363281 C 984.011719 85.796875 982.675781 85.167969 981.371094 84.46875 C 980.070312 83.773438 978.800781 83.015625 977.574219 82.191406 C 976.34375 81.371094 975.15625 80.492188 974.015625 79.554688 C 972.871094 78.617188 971.777344 77.625 970.734375 76.578125 C 969.6875 75.535156 968.695312 74.441406 967.757812 73.296875 C 966.820312 72.152344 965.941406 70.96875 965.117188 69.738281 C 964.296875 68.507812 963.539062 67.242188 962.839844 65.9375 C 962.144531 64.636719 961.511719 63.300781 960.949219 61.933594 C 960.382812 60.570312 959.882812 59.179688 959.457031 57.765625 C 959.027344 56.347656 958.667969 54.917969 958.378906 53.46875 C 958.089844 52.015625 957.875 50.558594 957.730469 49.085938 C 957.585938 47.613281 957.511719 46.140625 957.511719 44.660156 C 957.511719 43.183594 957.585938 41.707031 957.730469 40.238281 C 957.875 38.765625 958.089844 37.304688 958.378906 35.855469 C 958.667969 34.40625 959.027344 32.972656 959.457031 31.558594 C 959.882812 30.144531 960.382812 28.753906 960.949219 27.386719 C 961.511719 26.019531 962.144531 24.6875 962.839844 23.382812 C 963.539062 22.078125 964.296875 20.8125 965.117188 19.582031 C 965.941406 18.355469 966.820312 17.167969 967.757812 16.023438 C 968.695312 14.882812 969.6875 13.789062 970.734375 12.742188 C 971.777344 11.699219 972.871094 10.707031 974.015625 9.769531 C 975.15625 8.832031 976.34375 7.949219 977.574219 7.128906 C 978.800781 6.308594 980.070312 5.550781 981.371094 4.851562 C 982.675781 4.15625 984.011719 3.523438 985.375 2.957031 C 986.742188 2.390625 988.132812 1.894531 989.546875 1.464844 C 990.960938 1.035156 992.394531 0.679688 993.84375 0.390625 C 995.292969 0.101562 996.753906 -0.117188 998.226562 -0.261719 C 999.699219 -0.40625 1001.171875 -0.476562 1002.652344 -0.476562 C 1004.128906 -0.476562 1005.605469 -0.40625 1007.074219 -0.261719 C 1008.546875 -0.117188 1010.007812 0.101562 1011.457031 0.390625 C 1012.90625 0.679688 1014.339844 1.035156 1015.753906 1.464844 C 1017.167969 1.894531 1018.558594 2.390625 1019.925781 2.957031 C 1021.289062 3.523438 1022.625 4.15625 1023.929688 4.851562 C 1025.234375 5.550781 1026.5 6.308594 1027.726562 7.128906 C 1028.957031 7.949219 1030.144531 8.832031 1031.285156 9.769531 C 1032.429688 10.707031 1033.523438 11.699219 1034.570312 12.742188 C 1035.613281 13.789062 1036.605469 14.882812 1037.542969 16.023438 C 1038.480469 17.167969 1039.359375 18.355469 1040.183594 19.582031 C 1041.003906 20.8125 1041.761719 22.078125 1042.460938 23.382812 C 1043.15625 24.6875 1043.789062 26.019531 1044.351562 27.386719 C 1044.917969 28.753906 1045.417969 30.144531 1045.84375 31.558594 C 1046.273438 32.972656 1046.632812 34.40625 1046.921875 35.855469 C 1047.210938 37.304688 1047.425781 38.765625 1047.570312 40.238281 C 1047.71875 41.707031 1047.789062 43.183594 1047.789062 44.660156 Z M 1047.789062 44.660156 " fill-opacity="1" fill-rule="nonzero"/></g><path fill="#ff9f03" d="M 951.664062 138.394531 C 951.664062 139.875 951.59375 141.347656 951.449219 142.820312 C 951.304688 144.292969 951.085938 145.753906 950.796875 147.203125 C 950.507812 148.652344 950.152344 150.085938 949.722656 151.5 C 949.292969 152.914062 948.792969 154.304688 948.230469 155.671875 C 947.664062 157.035156 947.03125 158.371094 946.335938 159.675781 C 945.636719 160.976562 944.878906 162.246094 944.058594 163.472656 C 943.238281 164.703125 942.355469 165.890625 941.417969 167.03125 C 940.480469 168.175781 939.488281 169.269531 938.445312 170.3125 C 937.398438 171.359375 936.304688 172.351562 935.164062 173.289062 C 934.019531 174.226562 932.832031 175.105469 931.605469 175.929688 C 930.375 176.75 929.109375 177.507812 927.804688 178.207031 C 926.5 178.902344 925.164062 179.535156 923.800781 180.097656 C 922.433594 180.664062 921.042969 181.164062 919.628906 181.589844 C 918.214844 182.019531 916.78125 182.378906 915.332031 182.667969 C 913.882812 182.957031 912.421875 183.171875 910.949219 183.316406 C 909.480469 183.460938 908.003906 183.535156 906.527344 183.535156 C 905.046875 183.535156 903.574219 183.460938 902.101562 183.316406 C 900.628906 183.171875 899.171875 182.957031 897.71875 182.667969 C 896.269531 182.378906 894.839844 182.019531 893.421875 181.589844 C 892.007812 181.164062 890.617188 180.664062 889.253906 180.097656 C 887.886719 179.535156 886.550781 178.902344 885.246094 178.207031 C 883.945312 177.507812 882.679688 176.75 881.449219 175.929688 C 880.21875 175.105469 879.035156 174.226562 877.890625 173.289062 C 876.746094 172.351562 875.652344 171.359375 874.609375 170.3125 C 873.5625 169.269531 872.570312 168.175781 871.632812 167.03125 C 870.695312 165.890625 869.816406 164.703125 868.996094 163.472656 C 868.171875 162.246094 867.414062 160.976562 866.71875 159.675781 C 866.019531 158.371094 865.390625 157.035156 864.824219 155.671875 C 864.257812 154.304688 863.761719 152.914062 863.332031 151.5 C 862.902344 150.085938 862.542969 148.652344 862.253906 147.203125 C 861.964844 145.753906 861.75 144.292969 861.605469 142.820312 C 861.460938 141.347656 861.386719 139.875 861.386719 138.394531 C 861.386719 136.917969 861.460938 135.441406 861.605469 133.972656 C 861.75 132.5 861.964844 131.039062 862.253906 129.589844 C 862.542969 128.140625 862.902344 126.707031 863.332031 125.292969 C 863.761719 123.878906 864.257812 122.488281 864.824219 121.121094 C 865.390625 119.757812 866.019531 118.421875 866.71875 117.117188 C 867.414062 115.8125 868.171875 114.546875 868.996094 113.320312 C 869.816406 112.089844 870.695312 110.902344 871.632812 109.761719 C 872.570312 108.617188 873.5625 107.523438 874.609375 106.476562 C 875.652344 105.433594 876.746094 104.441406 877.890625 103.503906 C 879.035156 102.566406 880.21875 101.6875 881.449219 100.863281 C 882.679688 100.042969 883.945312 99.285156 885.246094 98.585938 C 886.550781 97.890625 887.886719 97.257812 889.253906 96.695312 C 890.617188 96.128906 892.007812 95.628906 893.421875 95.203125 C 894.835938 94.773438 896.269531 94.414062 897.71875 94.125 C 899.171875 93.835938 900.628906 93.621094 902.101562 93.476562 C 903.574219 93.328125 905.046875 93.257812 906.527344 93.257812 C 908.003906 93.257812 909.480469 93.328125 910.949219 93.476562 C 912.421875 93.621094 913.882812 93.835938 915.332031 94.125 C 916.78125 94.414062 918.214844 94.773438 919.628906 95.203125 C 921.042969 95.628906 922.433594 96.128906 923.800781 96.695312 C 925.164062 97.257812 926.5 97.890625 927.804688 98.585938 C 929.109375 99.285156 930.375 100.042969 931.605469 100.863281 C 932.832031 101.6875 934.019531 102.566406 935.164062 103.503906 C 936.304688 104.441406 937.398438 105.433594 938.445312 106.476562 C 939.488281 107.523438 940.480469 108.617188 941.417969 109.761719 C 942.355469 110.902344 943.238281 112.089844 944.058594 113.320312 C 944.878906 114.546875 945.636719 115.8125 946.335938 117.117188 C 947.03125 118.421875 947.664062 119.757812 948.230469 121.121094 C 948.792969 122.488281 949.292969 123.878906 949.722656 125.292969 C 950.152344 126.707031 950.507812 128.140625 950.796875 129.589844 C 951.085938 131.039062 951.304688 132.5 951.449219 133.972656 C 951.59375 135.441406 951.664062 136.917969 951.664062 138.394531 Z M 951.664062 138.394531 " fill-opacity="1" fill-rule="nonzero"/><path fill="#ff9f03" d="M 770.542969 340.011719 C 770.542969 341.492188 770.472656 342.964844 770.328125 344.4375 C 770.183594 345.90625 769.964844 347.367188 769.675781 348.816406 C 769.386719 350.269531 769.03125 351.699219 768.601562 353.113281 C 768.171875 354.53125 767.675781 355.921875 767.109375 357.285156 C 766.542969 358.652344 765.910156 359.988281 765.214844 361.289062 C 764.515625 362.59375 763.757812 363.859375 762.9375 365.089844 C 762.117188 366.320312 761.234375 367.503906 760.296875 368.648438 C 759.359375 369.789062 758.367188 370.882812 757.324219 371.929688 C 756.277344 372.976562 755.183594 373.964844 754.042969 374.90625 C 752.898438 375.84375 751.710938 376.722656 750.484375 377.542969 C 749.253906 378.363281 747.988281 379.125 746.683594 379.820312 C 745.378906 380.519531 744.046875 381.148438 742.679688 381.714844 C 741.3125 382.28125 739.921875 382.777344 738.507812 383.207031 C 737.09375 383.636719 735.660156 383.996094 734.210938 384.285156 C 732.761719 384.570312 731.300781 384.789062 729.828125 384.933594 C 728.359375 385.078125 726.882812 385.152344 725.40625 385.152344 C 723.925781 385.152344 722.453125 385.078125 720.980469 384.933594 C 719.511719 384.789062 718.050781 384.570312 716.597656 384.285156 C 715.148438 383.996094 713.71875 383.636719 712.300781 383.207031 C 710.886719 382.777344 709.496094 382.28125 708.132812 381.714844 C 706.765625 381.148438 705.429688 380.519531 704.128906 379.820312 C 702.824219 379.125 701.558594 378.363281 700.328125 377.542969 C 699.097656 376.722656 697.914062 375.84375 696.769531 374.90625 C 695.628906 373.964844 694.53125 372.976562 693.488281 371.929688 C 692.441406 370.882812 691.449219 369.789062 690.511719 368.648438 C 689.574219 367.503906 688.695312 366.320312 687.875 365.089844 C 687.050781 363.859375 686.292969 362.59375 685.597656 361.289062 C 684.898438 359.988281 684.269531 358.652344 683.703125 357.285156 C 683.136719 355.921875 682.640625 354.53125 682.210938 353.113281 C 681.78125 351.699219 681.421875 350.269531 681.132812 348.816406 C 680.84375 347.367188 680.628906 345.90625 680.484375 344.4375 C 680.339844 342.964844 680.265625 341.492188 680.265625 340.011719 C 680.265625 338.535156 680.339844 337.058594 680.484375 335.585938 C 680.628906 334.117188 680.84375 332.65625 681.132812 331.207031 C 681.421875 329.753906 681.78125 328.324219 682.210938 326.910156 C 682.640625 325.492188 683.136719 324.105469 683.703125 322.738281 C 684.269531 321.371094 684.898438 320.039062 685.597656 318.734375 C 686.292969 317.429688 687.050781 316.164062 687.875 314.933594 C 688.695312 313.703125 689.574219 312.519531 690.511719 311.375 C 691.449219 310.234375 692.441406 309.140625 693.488281 308.09375 C 694.53125 307.046875 695.628906 306.058594 696.769531 305.121094 C 697.914062 304.179688 699.097656 303.300781 700.328125 302.480469 C 701.558594 301.660156 702.824219 300.898438 704.128906 300.203125 C 705.429688 299.507812 706.765625 298.875 708.132812 298.308594 C 709.496094 297.742188 710.886719 297.246094 712.300781 296.816406 C 713.71875 296.386719 715.148438 296.027344 716.597656 295.742188 C 718.050781 295.453125 719.511719 295.234375 720.980469 295.089844 C 722.453125 294.945312 723.925781 294.875 725.40625 294.875 C 726.882812 294.875 728.359375 294.945312 729.828125 295.089844 C 731.300781 295.234375 732.761719 295.453125 734.210938 295.742188 C 735.660156 296.027344 737.09375 296.386719 738.507812 296.816406 C 739.921875 297.246094 741.3125 297.742188 742.679688 298.308594 C 744.046875 298.875 745.378906 299.507812 746.683594 300.203125 C 747.988281 300.898438 749.253906 301.660156 750.484375 302.480469 C 751.710938 303.300781 752.898438 304.179688 754.042969 305.121094 C 755.183594 306.058594 756.277344 307.046875 757.324219 308.09375 C 758.367188 309.140625 759.359375 310.234375 760.296875 311.375 C 761.234375 312.519531 762.117188 313.703125 762.9375 314.933594 C 763.757812 316.164062 764.515625 317.429688 765.214844 318.734375 C 765.910156 320.039062 766.542969 321.371094 767.109375 322.738281 C 767.675781 324.105469 768.171875 325.492188 768.601562 326.910156 C 769.03125 328.324219 769.386719 329.753906 769.675781 331.207031 C 769.964844 332.65625 770.183594 334.117188 770.328125 335.585938 C 770.472656 337.058594 770.542969 338.535156 770.542969 340.011719 Z M 770.542969 340.011719 " fill-opacity="1" fill-rule="nonzero"/><path fill="#010b48" d="M 770.542969 478.339844 C 770.542969 479.820312 770.472656 481.292969 770.328125 482.765625 C 770.183594 484.238281 769.964844 485.695312 769.675781 487.148438 C 769.386719 488.597656 769.03125 490.03125 768.601562 491.445312 C 768.171875 492.859375 767.675781 494.25 767.109375 495.613281 C 766.542969 496.980469 765.910156 498.316406 765.214844 499.621094 C 764.515625 500.921875 763.757812 502.191406 762.9375 503.417969 C 762.117188 504.648438 761.234375 505.835938 760.296875 506.976562 C 759.359375 508.121094 758.367188 509.214844 757.324219 510.257812 C 756.277344 511.304688 755.183594 512.296875 754.042969 513.234375 C 752.898438 514.171875 751.710938 515.050781 750.484375 515.871094 C 749.253906 516.695312 747.988281 517.453125 746.683594 518.148438 C 745.378906 518.847656 744.046875 519.476562 742.679688 520.042969 C 741.3125 520.609375 739.921875 521.105469 738.507812 521.535156 C 737.09375 521.964844 735.660156 522.324219 734.210938 522.613281 C 732.761719 522.902344 731.300781 523.117188 729.828125 523.261719 C 728.359375 523.40625 726.882812 523.480469 725.40625 523.480469 C 723.925781 523.480469 722.453125 523.40625 720.980469 523.261719 C 719.511719 523.117188 718.050781 522.902344 716.597656 522.613281 C 715.148438 522.324219 713.71875 521.964844 712.300781 521.535156 C 710.886719 521.105469 709.496094 520.609375 708.132812 520.042969 C 706.765625 519.476562 705.429688 518.847656 704.128906 518.148438 C 702.824219 517.453125 701.558594 516.695312 700.328125 515.871094 C 699.097656 515.050781 697.914062 514.171875 696.769531 513.234375 C 695.628906 512.296875 694.53125 511.304688 693.488281 510.257812 C 692.441406 509.214844 691.449219 508.121094 690.511719 506.976562 C 689.574219 505.835938 688.695312 504.648438 687.875 503.417969 C 687.050781 502.191406 686.292969 500.921875 685.597656 499.621094 C 684.898438 498.316406 684.269531 496.980469 683.703125 495.613281 C 683.136719 494.25 682.640625 492.859375 682.210938 491.445312 C 681.78125 490.03125 681.421875 488.597656 681.132812 487.148438 C 680.84375 485.695312 680.628906 484.238281 680.484375 482.765625 C 680.339844 481.292969 680.265625 479.820312 680.265625 478.339844 C 680.265625 476.863281 680.339844 475.386719 680.484375 473.917969 C 680.628906 472.445312 680.84375 470.984375 681.132812 469.535156 C 681.421875 468.085938 681.78125 466.652344 682.210938 465.238281 C 682.640625 463.824219 683.136719 462.433594 683.703125 461.066406 C 684.269531 459.703125 684.898438 458.367188 685.597656 457.0625 C 686.292969 455.757812 687.050781 454.492188 687.875 453.261719 C 688.695312 452.035156 689.574219 450.847656 690.511719 449.707031 C 691.449219 448.5625 692.441406 447.46875 693.488281 446.421875 C 694.53125 445.378906 695.628906 444.386719 696.769531 443.449219 C 697.914062 442.511719 699.097656 441.632812 700.328125 440.808594 C 701.558594 439.988281 702.824219 439.230469 704.128906 438.53125 C 705.429688 437.835938 706.765625 437.203125 708.132812 436.636719 C 709.496094 436.074219 710.886719 435.574219 712.300781 435.144531 C 713.71875 434.71875 715.148438 434.359375 716.597656 434.070312 C 718.050781 433.78125 719.511719 433.566406 720.980469 433.417969 C 722.453125 433.273438 723.925781 433.203125 725.40625 433.203125 C 726.882812 433.203125 728.359375 433.273438 729.828125 433.417969 C 731.300781 433.566406 732.761719 433.78125 734.210938 434.070312 C 735.660156 434.359375 737.09375 434.71875 738.507812 435.144531 C 739.921875 435.574219 741.3125 436.074219 742.679688 436.636719 C 744.046875 437.203125 745.378906 437.835938 746.683594 438.53125 C 747.988281 439.230469 749.253906 439.988281 750.484375 440.808594 C 751.710938 441.632812 752.898438 442.511719 754.042969 443.449219 C 755.183594 444.386719 756.277344 445.378906 757.324219 446.421875 C 758.367188 447.46875 759.359375 448.5625 760.296875 449.707031 C 761.234375 450.847656 762.117188 452.035156 762.9375 453.261719 C 763.757812 454.492188 764.515625 455.757812 765.214844 457.0625 C 765.910156 458.367188 766.542969 459.703125 767.109375 461.066406 C 767.675781 462.433594 768.171875 463.824219 768.601562 465.238281 C 769.03125 466.652344 769.386719 468.085938 769.675781 469.535156 C 769.964844 470.984375 770.183594 472.445312 770.328125 473.917969 C 770.472656 475.386719 770.542969 476.863281 770.542969 478.339844 Z M 770.542969 478.339844 " fill-opacity="1" fill-rule="nonzero"/><g clip-path="url(#95cd031aa9)"><path fill="#ff2f43" d="M 1047.789062 138.394531 C 1047.789062 139.875 1047.71875 141.347656 1047.570312 142.820312 C 1047.425781 144.292969 1047.210938 145.753906 1046.921875 147.203125 C 1046.632812 148.652344 1046.273438 150.085938 1045.84375 151.5 C 1045.417969 152.914062 1044.917969 154.304688 1044.351562 155.671875 C 1043.789062 157.035156 1043.15625 158.371094 1042.460938 159.675781 C 1041.761719 160.976562 1041.003906 162.246094 1040.183594 163.472656 C 1039.359375 164.703125 1038.480469 165.890625 1037.542969 167.03125 C 1036.605469 168.175781 1035.613281 169.269531 1034.570312 170.3125 C 1033.523438 171.359375 1032.429688 172.351562 1031.285156 173.289062 C 1030.144531 174.226562 1028.957031 175.105469 1027.726562 175.929688 C 1026.5 176.75 1025.234375 177.507812 1023.929688 178.207031 C 1022.625 178.902344 1021.289062 179.535156 1019.925781 180.097656 C 1018.558594 180.664062 1017.167969 181.164062 1015.753906 181.589844 C 1014.339844 182.019531 1012.90625 182.378906 1011.457031 182.667969 C 1010.007812 182.957031 1008.546875 183.171875 1007.074219 183.316406 C 1005.605469 183.460938 1004.128906 183.535156 1002.652344 183.535156 C 1001.171875 183.535156 999.699219 183.460938 998.226562 183.316406 C 996.753906 183.171875 995.292969 182.957031 993.84375 182.667969 C 992.394531 182.378906 990.960938 182.019531 989.546875 181.589844 C 988.132812 181.164062 986.742188 180.664062 985.375 180.097656 C 984.011719 179.535156 982.675781 178.902344 981.371094 178.207031 C 980.070312 177.507812 978.800781 176.75 977.574219 175.929688 C 976.34375 175.105469 975.15625 174.226562 974.015625 173.289062 C 972.871094 172.351562 971.777344 171.359375 970.734375 170.3125 C 969.6875 169.269531 968.695312 168.175781 967.757812 167.03125 C 966.820312 165.890625 965.941406 164.703125 965.117188 163.472656 C 964.296875 162.246094 963.539062 160.976562 962.839844 159.675781 C 962.144531 158.371094 961.511719 157.035156 960.949219 155.671875 C 960.382812 154.304688 959.882812 152.914062 959.457031 151.5 C 959.027344 150.085938 958.667969 148.652344 958.378906 147.203125 C 958.089844 145.753906 957.875 144.292969 957.730469 142.820312 C 957.585938 141.347656 957.511719 139.875 957.511719 138.394531 C 957.511719 136.917969 957.585938 135.441406 957.730469 133.972656 C 957.875 132.5 958.089844 131.039062 958.378906 129.589844 C 958.667969 128.140625 959.027344 126.707031 959.457031 125.292969 C 959.882812 123.878906 960.382812 122.488281 960.949219 121.121094 C 961.511719 119.757812 962.144531 118.421875 962.839844 117.117188 C 963.539062 115.8125 964.296875 114.546875 965.117188 113.320312 C 965.941406 112.089844 966.820312 110.902344 967.757812 109.761719 C 968.695312 108.617188 969.6875 107.523438 970.734375 106.476562 C 971.777344 105.433594 972.871094 104.441406 974.015625 103.503906 C 975.15625 102.566406 976.34375 101.6875 977.574219 100.863281 C 978.800781 100.042969 980.070312 99.285156 981.371094 98.585938 C 982.675781 97.890625 984.011719 97.257812 985.375 96.695312 C 986.742188 96.128906 988.132812 95.628906 989.546875 95.203125 C 990.960938 94.773438 992.394531 94.414062 993.84375 94.125 C 995.292969 93.835938 996.753906 93.621094 998.226562 93.476562 C 999.699219 93.328125 1001.171875 93.257812 1002.652344 93.257812 C 1004.128906 93.257812 1005.605469 93.328125 1007.074219 93.476562 C 1008.546875 93.621094 1010.007812 93.835938 1011.457031 94.125 C 1012.90625 94.414062 1014.339844 94.773438 1015.753906 95.203125 C 1017.167969 95.628906 1018.558594 96.128906 1019.925781 96.695312 C 1021.289062 97.257812 1022.625 97.890625 1023.929688 98.585938 C 1025.234375 99.285156 1026.5 100.042969 1027.726562 100.863281 C 1028.957031 101.6875 1030.144531 102.566406 1031.285156 103.503906 C 1032.429688 104.441406 1033.523438 105.433594 1034.570312 106.476562 C 1035.613281 107.523438 1036.605469 108.617188 1037.542969 109.761719 C 1038.480469 110.902344 1039.359375 112.089844 1040.183594 113.320312 C 1041.003906 114.546875 1041.761719 115.8125 1042.460938 117.117188 C 1043.15625 118.421875 1043.789062 119.757812 1044.351562 121.121094 C 1044.917969 122.488281 1045.417969 123.878906 1045.84375 125.292969 C 1046.273438 126.707031 1046.632812 128.140625 1046.921875 129.589844 C 1047.210938 131.039062 1047.425781 132.5 1047.570312 133.972656 C 1047.71875 135.441406 1047.789062 136.917969 1047.789062 138.394531 Z M 1047.789062 138.394531 " fill-opacity="1" fill-rule="nonzero"/></g><g clip-path="url(#44efc521f5)"><path fill="#010b48" d="M 800.050781 -0.476562 C 798.585938 -0.480469 797.121094 -0.441406 795.660156 -0.367188 C 794.199219 -0.292969 792.738281 -0.175781 791.28125 -0.0234375 C 789.824219 0.128906 788.375 0.320312 786.929688 0.550781 C 785.484375 0.78125 784.042969 1.050781 782.613281 1.355469 C 781.179688 1.664062 779.757812 2.007812 778.34375 2.386719 C 776.929688 2.769531 775.527344 3.1875 774.136719 3.644531 C 772.746094 4.101562 771.367188 4.59375 770 5.125 C 768.636719 5.652344 767.285156 6.21875 765.949219 6.816406 C 764.613281 7.417969 763.296875 8.054688 761.996094 8.726562 C 760.691406 9.394531 759.410156 10.101562 758.144531 10.839844 C 756.882812 11.578125 755.636719 12.351562 754.414062 13.15625 C 753.191406 13.960938 751.988281 14.796875 750.8125 15.664062 C 749.632812 16.535156 748.476562 17.433594 747.34375 18.363281 C 746.214844 19.292969 745.109375 20.25 744.027344 21.238281 C 742.949219 22.226562 741.894531 23.242188 740.867188 24.289062 C 739.839844 25.332031 738.84375 26.402344 737.871094 27.5 C 736.902344 28.597656 735.960938 29.71875 735.050781 30.867188 C 734.140625 32.011719 733.261719 33.183594 732.414062 34.375 C 731.566406 35.570312 730.75 36.785156 729.964844 38.023438 C 729.183594 39.257812 728.433594 40.515625 727.714844 41.792969 C 726.996094 43.070312 726.316406 44.363281 725.667969 45.675781 C 725.019531 46.988281 724.40625 48.316406 723.828125 49.664062 C 723.25 51.007812 722.707031 52.367188 722.199219 53.742188 C 721.695312 55.117188 721.226562 56.503906 720.792969 57.902344 C 720.359375 59.300781 719.964844 60.710938 719.605469 62.128906 C 719.25 63.550781 718.929688 64.976562 718.648438 66.414062 C 718.367188 67.851562 718.121094 69.296875 717.917969 70.746094 C 717.710938 72.195312 717.542969 73.648438 717.414062 75.109375 C 717.289062 76.566406 717.199219 78.027344 717.148438 79.492188 C 717.097656 80.953125 717.082031 82.417969 717.109375 83.882812 C 717.136719 85.347656 717.203125 86.808594 717.308594 88.269531 C 717.410156 89.730469 717.554688 91.1875 717.734375 92.640625 L 800.09375 92.640625 Z M 800.050781 -0.476562 " fill-opacity="1" fill-rule="nonzero"/></g><g clip-path="url(#2e05b07b69)"><path fill="#010b48" d="M 634.058594 -0.476562 C 635.417969 -0.476562 636.773438 -0.445312 638.132812 -0.378906 C 639.488281 -0.3125 640.84375 -0.210938 642.195312 -0.078125 C 643.546875 0.0546875 644.894531 0.222656 646.238281 0.421875 C 647.582031 0.621094 648.917969 0.851562 650.25 1.117188 C 651.582031 1.382812 652.90625 1.679688 654.226562 2.007812 C 655.542969 2.339844 656.851562 2.703125 658.152344 3.097656 C 659.453125 3.492188 660.742188 3.917969 662.019531 4.375 C 663.296875 4.832031 664.566406 5.320312 665.820312 5.839844 C 667.074219 6.359375 668.316406 6.910156 669.542969 7.492188 C 670.773438 8.070312 671.984375 8.683594 673.183594 9.324219 C 674.382812 9.960938 675.5625 10.632812 676.726562 11.332031 C 677.890625 12.027344 679.039062 12.753906 680.167969 13.507812 C 681.296875 14.265625 682.410156 15.046875 683.5 15.855469 C 684.589844 16.664062 685.660156 17.5 686.710938 18.363281 C 687.761719 19.222656 688.789062 20.109375 689.796875 21.023438 C 690.800781 21.933594 691.785156 22.871094 692.746094 23.832031 C 693.707031 24.792969 694.644531 25.773438 695.554688 26.78125 C 696.46875 27.789062 697.355469 28.816406 698.214844 29.867188 C 699.078125 30.914062 699.914062 31.988281 700.722656 33.078125 C 701.53125 34.167969 702.3125 35.277344 703.066406 36.40625 C 703.820312 37.539062 704.546875 38.683594 705.246094 39.847656 C 705.945312 41.015625 706.613281 42.195312 707.253906 43.394531 C 707.894531 44.59375 708.503906 45.804688 709.085938 47.03125 C 709.667969 48.261719 710.21875 49.5 710.738281 50.757812 C 711.257812 52.011719 711.746094 53.277344 712.203125 54.558594 C 712.660156 55.835938 713.085938 57.125 713.480469 58.425781 C 713.875 59.726562 714.238281 61.035156 714.566406 62.351562 C 714.898438 63.667969 715.195312 64.992188 715.460938 66.324219 C 715.726562 67.660156 715.957031 68.996094 716.15625 70.339844 C 716.355469 71.683594 716.523438 73.03125 716.65625 74.382812 C 716.789062 75.734375 716.886719 77.089844 716.953125 78.445312 C 717.019531 79.800781 717.054688 81.160156 717.054688 82.519531 C 717.046875 85.902344 716.835938 89.277344 716.425781 92.640625 L 634.058594 92.640625 Z M 634.058594 -0.476562 " fill-opacity="1" fill-rule="nonzero"/></g><path fill="#ff2f43" d="M 594.839844 358.894531 C 593.375 358.890625 591.910156 358.925781 590.449219 359 C 588.988281 359.078125 587.527344 359.191406 586.070312 359.34375 C 584.613281 359.496094 583.160156 359.6875 581.714844 359.914062 C 580.269531 360.144531 578.828125 360.414062 577.394531 360.71875 C 575.964844 361.023438 574.539062 361.367188 573.125 361.75 C 571.710938 362.132812 570.308594 362.550781 568.917969 363.003906 C 567.523438 363.460938 566.144531 363.953125 564.78125 364.480469 C 563.414062 365.011719 562.0625 365.574219 560.726562 366.175781 C 559.390625 366.777344 558.070312 367.410156 556.769531 368.082031 C 555.46875 368.753906 554.183594 369.457031 552.917969 370.195312 C 551.65625 370.933594 550.410156 371.707031 549.1875 372.511719 C 547.960938 373.316406 546.761719 374.152344 545.582031 375.019531 C 544.402344 375.886719 543.246094 376.789062 542.113281 377.71875 C 540.980469 378.648438 539.875 379.605469 538.792969 380.59375 C 537.710938 381.582031 536.660156 382.597656 535.632812 383.640625 C 534.605469 384.6875 533.605469 385.757812 532.636719 386.855469 C 531.664062 387.953125 530.722656 389.074219 529.8125 390.222656 C 528.902344 391.367188 528.023438 392.539062 527.175781 393.730469 C 526.324219 394.925781 525.507812 396.140625 524.722656 397.378906 C 523.941406 398.613281 523.1875 399.871094 522.472656 401.148438 C 521.753906 402.425781 521.070312 403.71875 520.421875 405.035156 C 519.773438 406.347656 519.160156 407.675781 518.582031 409.023438 C 518 410.367188 517.460938 411.726562 516.953125 413.101562 C 516.445312 414.476562 515.976562 415.863281 515.542969 417.261719 C 515.113281 418.660156 514.714844 420.070312 514.359375 421.492188 C 514 422.914062 513.679688 424.339844 513.398438 425.777344 C 513.117188 427.214844 512.871094 428.660156 512.667969 430.109375 C 512.460938 431.558594 512.292969 433.015625 512.164062 434.472656 C 512.035156 435.933594 511.945312 437.394531 511.894531 438.859375 C 511.84375 440.320312 511.832031 441.785156 511.859375 443.25 C 511.886719 444.714844 511.953125 446.175781 512.054688 447.636719 C 512.160156 449.097656 512.300781 450.558594 512.484375 452.011719 L 594.839844 452.011719 Z M 594.839844 358.894531 " fill-opacity="1" fill-rule="nonzero"/><path fill="#ff9f03" d="M 428.851562 358.894531 C 430.207031 358.894531 431.566406 358.925781 432.921875 358.992188 C 434.277344 359.058594 435.632812 359.160156 436.984375 359.292969 C 438.335938 359.425781 439.683594 359.59375 441.027344 359.792969 C 442.371094 359.992188 443.710938 360.222656 445.042969 360.488281 C 446.375 360.753906 447.699219 361.050781 449.015625 361.378906 C 450.332031 361.710938 451.640625 362.074219 452.941406 362.46875 C 454.242188 362.859375 455.53125 363.285156 456.808594 363.746094 C 458.089844 364.203125 459.355469 364.691406 460.609375 365.210938 C 461.867188 365.730469 463.105469 366.28125 464.335938 366.863281 C 465.5625 367.441406 466.777344 368.054688 467.972656 368.691406 C 469.171875 369.332031 470.351562 370.003906 471.519531 370.699219 C 472.683594 371.398438 473.828125 372.125 474.960938 372.878906 C 476.089844 373.636719 477.199219 374.417969 478.289062 375.226562 C 479.382812 376.035156 480.453125 376.871094 481.5 377.730469 C 482.550781 378.59375 483.578125 379.480469 484.585938 380.394531 C 485.59375 381.304688 486.574219 382.242188 487.535156 383.203125 C 488.496094 384.164062 489.433594 385.144531 490.34375 386.152344 C 491.257812 387.160156 492.144531 388.1875 493.007812 389.238281 C 493.867188 390.285156 494.703125 391.355469 495.511719 392.449219 C 496.320312 393.539062 497.101562 394.648438 497.859375 395.777344 C 498.613281 396.90625 499.339844 398.054688 500.039062 399.21875 C 500.734375 400.386719 501.40625 401.566406 502.046875 402.765625 C 502.683594 403.960938 503.296875 405.175781 503.875 406.402344 C 504.457031 407.632812 505.007812 408.871094 505.527344 410.128906 C 506.046875 411.382812 506.535156 412.648438 506.992188 413.929688 C 507.449219 415.207031 507.878906 416.496094 508.269531 417.796875 C 508.664062 419.097656 509.027344 420.40625 509.359375 421.722656 C 509.6875 423.039062 509.984375 424.363281 510.25 425.695312 C 510.515625 427.027344 510.746094 428.367188 510.945312 429.710938 C 511.144531 431.054688 511.3125 432.402344 511.445312 433.753906 C 511.578125 435.105469 511.679688 436.460938 511.746094 437.816406 C 511.8125 439.171875 511.84375 440.53125 511.84375 441.886719 C 511.839844 445.273438 511.628906 448.648438 511.214844 452.011719 L 428.851562 452.011719 Z M 428.851562 358.894531 " fill-opacity="1" fill-rule="nonzero"/><g clip-path="url(#9237ecf738)"><path fill="#ff2f43" d="M 1047.789062 255.71875 C 1046.324219 255.714844 1044.859375 255.75 1043.398438 255.824219 C 1041.933594 255.902344 1040.476562 256.015625 1039.019531 256.167969 C 1037.5625 256.320312 1036.109375 256.511719 1034.664062 256.738281 C 1033.21875 256.96875 1031.777344 257.238281 1030.34375 257.542969 C 1028.914062 257.847656 1027.488281 258.191406 1026.074219 258.574219 C 1024.660156 258.953125 1023.257812 259.375 1021.867188 259.828125 C 1020.472656 260.285156 1019.09375 260.777344 1017.730469 261.304688 C 1016.363281 261.835938 1015.011719 262.398438 1013.675781 263 C 1012.339844 263.601562 1011.019531 264.234375 1009.71875 264.90625 C 1008.417969 265.578125 1007.132812 266.28125 1005.867188 267.019531 C 1004.601562 267.757812 1003.359375 268.53125 1002.132812 269.335938 C 1000.910156 270.140625 999.707031 270.976562 998.53125 271.84375 C 997.351562 272.710938 996.195312 273.613281 995.0625 274.542969 C 993.929688 275.46875 992.824219 276.429688 991.742188 277.417969 C 990.660156 278.40625 989.609375 279.421875 988.582031 280.464844 C 987.554688 281.511719 986.554688 282.582031 985.585938 283.679688 C 984.613281 284.777344 983.671875 285.898438 982.761719 287.046875 C 981.851562 288.191406 980.972656 289.363281 980.121094 290.554688 C 979.273438 291.75 978.457031 292.964844 977.671875 294.203125 C 976.890625 295.4375 976.136719 296.695312 975.421875 297.972656 C 974.703125 299.25 974.019531 300.546875 973.371094 301.859375 C 972.722656 303.171875 972.109375 304.5 971.527344 305.847656 C 970.949219 307.191406 970.40625 308.550781 969.902344 309.925781 C 969.394531 311.300781 968.925781 312.6875 968.492188 314.085938 C 968.058594 315.484375 967.664062 316.894531 967.308594 318.316406 C 966.949219 319.738281 966.628906 321.164062 966.347656 322.601562 C 966.0625 324.039062 965.820312 325.484375 965.613281 326.933594 C 965.410156 328.382812 965.242188 329.839844 965.113281 331.296875 C 964.984375 332.757812 964.894531 334.21875 964.84375 335.683594 C 964.792969 337.144531 964.78125 338.609375 964.808594 340.074219 C 964.835938 341.539062 964.898438 343 965.003906 344.460938 C 965.109375 345.921875 965.25 347.382812 965.433594 348.835938 L 1047.789062 348.835938 Z M 1047.789062 255.71875 " fill-opacity="1" fill-rule="nonzero"/></g><path fill="#ff9f03" d="M 881.796875 255.71875 C 883.261719 255.714844 884.726562 255.75 886.191406 255.824219 C 887.652344 255.902344 889.113281 256.015625 890.570312 256.167969 C 892.027344 256.320312 893.476562 256.511719 894.925781 256.738281 C 896.371094 256.96875 897.808594 257.238281 899.242188 257.542969 C 900.675781 257.847656 902.097656 258.191406 903.511719 258.574219 C 904.925781 258.953125 906.328125 259.375 907.722656 259.828125 C 909.113281 260.285156 910.492188 260.777344 911.859375 261.304688 C 913.226562 261.835938 914.574219 262.398438 915.910156 263 C 917.246094 263.601562 918.566406 264.234375 919.867188 264.90625 C 921.171875 265.578125 922.453125 266.28125 923.71875 267.019531 C 924.984375 267.757812 926.230469 268.53125 927.453125 269.335938 C 928.675781 270.140625 929.878906 270.976562 931.058594 271.84375 C 932.238281 272.710938 933.394531 273.613281 934.527344 274.542969 C 935.65625 275.46875 936.765625 276.429688 937.84375 277.417969 C 938.925781 278.40625 939.980469 279.421875 941.007812 280.464844 C 942.035156 281.511719 943.035156 282.582031 944.003906 283.679688 C 944.972656 284.777344 945.914062 285.898438 946.824219 287.046875 C 947.738281 288.191406 948.617188 289.363281 949.464844 290.554688 C 950.3125 291.75 951.128906 292.964844 951.914062 294.203125 C 952.699219 295.4375 953.449219 296.695312 954.167969 297.972656 C 954.886719 299.25 955.570312 300.542969 956.21875 301.859375 C 956.867188 303.171875 957.480469 304.5 958.058594 305.847656 C 958.636719 307.191406 959.179688 308.550781 959.6875 309.925781 C 960.191406 311.300781 960.660156 312.6875 961.09375 314.085938 C 961.527344 315.484375 961.921875 316.894531 962.28125 318.316406 C 962.640625 319.738281 962.957031 321.164062 963.242188 322.601562 C 963.523438 324.039062 963.765625 325.484375 963.972656 326.933594 C 964.179688 328.382812 964.34375 329.839844 964.472656 331.296875 C 964.601562 332.757812 964.691406 334.21875 964.742188 335.683594 C 964.792969 337.144531 964.804688 338.609375 964.78125 340.074219 C 964.753906 341.539062 964.6875 343 964.582031 344.460938 C 964.480469 345.921875 964.335938 347.382812 964.15625 348.835938 L 881.796875 348.835938 Z M 881.796875 255.71875 " fill-opacity="1" fill-rule="nonzero"/><g clip-path="url(#eef7508351)"><path fill="#ff9f03" d="M 425.308594 134.96875 L 532.496094 0.140625 L 473.421875 0.140625 L 366.234375 134.96875 Z M 425.308594 134.96875 " fill-opacity="1" fill-rule="nonzero"/></g><path fill="#ff9f03" d="M 61.316406 329.011719 L 168.503906 194.179688 L 109.429688 194.179688 L 2.242188 329.011719 Z M 61.316406 329.011719 " fill-opacity="1" fill-rule="nonzero"/><path fill="#ff9f03" d="M 417.4375 211.132812 L 524.636719 76.304688 L 465.5625 76.304688 L 358.375 211.132812 Z M 417.4375 211.132812 " fill-opacity="1" fill-rule="nonzero"/><g clip-path="url(#b9e2cd6230)"><path fill="#ff9f03" d="M 940.738281 511.777344 L 1047.925781 376.945312 L 988.851562 376.945312 L 881.664062 511.777344 Z M 940.738281 511.777344 " fill-opacity="1" fill-rule="nonzero"/></g><g clip-path="url(#9ac2b44d3c)"><path fill="#ff2f43" d="M 892.769531 646.605469 L 999.957031 511.777344 L 940.894531 511.777344 L 833.695312 646.605469 Z M 892.769531 646.605469 " fill-opacity="1" fill-rule="nonzero"/></g><g clip-path="url(#c37bd72e25)"><path fill="#ff9f03" d="M 236.339844 622.875 L 343.527344 488.042969 L 284.464844 488.042969 L 177.277344 622.875 Z M 236.339844 622.875 " fill-opacity="1" fill-rule="nonzero"/></g><path fill="#ff9f03" d="M 283.34375 484.386719 L 390.53125 349.558594 L 331.46875 349.558594 L 224.28125 484.386719 Z M 283.34375 484.386719 " fill-opacity="1" fill-rule="nonzero"/><path fill="#ff2f43" d="M 3.019531 405.132812 C 2.847656 406.53125 2.710938 407.9375 2.609375 409.34375 C 2.507812 410.75 2.445312 412.160156 2.417969 413.570312 C 2.386719 414.980469 2.394531 416.390625 2.4375 417.800781 C 2.484375 419.210938 2.5625 420.621094 2.675781 422.027344 C 2.792969 423.433594 2.945312 424.835938 3.128906 426.234375 C 3.316406 427.632812 3.539062 429.023438 3.796875 430.410156 C 4.054688 431.796875 4.347656 433.179688 4.675781 434.550781 C 5.003906 435.921875 5.367188 437.285156 5.765625 438.640625 C 6.164062 439.992188 6.597656 441.335938 7.0625 442.667969 C 7.527344 444 8.027344 445.316406 8.5625 446.625 C 9.09375 447.929688 9.660156 449.222656 10.261719 450.5 C 10.859375 451.777344 11.492188 453.035156 12.15625 454.28125 C 12.820312 455.527344 13.515625 456.753906 14.242188 457.964844 C 14.96875 459.171875 15.722656 460.363281 16.511719 461.535156 C 17.296875 462.707031 18.113281 463.855469 18.960938 464.984375 C 19.804688 466.113281 20.679688 467.222656 21.582031 468.304688 C 22.484375 469.390625 23.414062 470.453125 24.371094 471.488281 C 25.324219 472.527344 26.308594 473.539062 27.316406 474.527344 C 28.324219 475.511719 29.355469 476.472656 30.414062 477.410156 C 31.46875 478.34375 32.550781 479.25 33.652344 480.128906 C 34.757812 481.007812 35.882812 481.859375 37.027344 482.683594 C 38.175781 483.503906 39.339844 484.296875 40.527344 485.058594 C 41.714844 485.820312 42.921875 486.554688 44.144531 487.253906 C 45.371094 487.957031 46.609375 488.625 47.871094 489.261719 C 49.128906 489.902344 50.402344 490.507812 51.691406 491.078125 C 52.980469 491.652344 54.285156 492.191406 55.601562 492.699219 C 56.917969 493.203125 58.246094 493.675781 59.585938 494.117188 C 60.929688 494.554688 62.28125 494.957031 63.640625 495.328125 C 65.003906 495.699219 66.371094 496.03125 67.75 496.332031 C 69.128906 496.632812 70.515625 496.898438 71.90625 497.125 C 73.300781 497.355469 74.695312 497.546875 76.097656 497.707031 C 77.5 497.863281 78.90625 497.984375 80.3125 498.070312 C 81.722656 498.160156 83.132812 498.207031 84.542969 498.222656 C 85.953125 498.238281 87.363281 498.214844 88.773438 498.15625 C 90.183594 498.101562 91.589844 498.007812 92.996094 497.878906 C 94.398438 497.75 95.800781 497.582031 97.199219 497.382812 C 98.59375 497.179688 99.984375 496.945312 101.367188 496.671875 C 102.753906 496.402344 104.128906 496.09375 105.5 495.753906 C 106.867188 495.410156 108.226562 495.035156 109.578125 494.621094 C 110.925781 494.210938 112.265625 493.765625 113.589844 493.285156 C 114.917969 492.808594 116.230469 492.292969 117.53125 491.746094 C 118.832031 491.199219 120.117188 490.621094 121.390625 490.007812 C 122.660156 489.398438 123.917969 488.753906 125.15625 488.078125 C 126.394531 487.402344 127.613281 486.691406 128.816406 485.953125 C 130.015625 485.214844 131.199219 484.449219 132.363281 483.648438 C 133.527344 482.851562 134.667969 482.023438 135.789062 481.164062 C 136.910156 480.308594 138.007812 479.421875 139.082031 478.511719 C 140.160156 477.597656 141.210938 476.65625 142.238281 475.691406 C 143.265625 474.726562 144.269531 473.734375 145.246094 472.714844 C 146.222656 471.695312 147.171875 470.65625 148.097656 469.589844 C 149.023438 468.523438 149.917969 467.433594 150.785156 466.320312 C 151.65625 465.210938 152.492188 464.078125 153.304688 462.921875 C 154.117188 461.765625 154.894531 460.59375 155.648438 459.398438 C 156.398438 458.203125 157.117188 456.988281 157.804688 455.757812 C 158.496094 454.527344 159.152344 453.28125 159.777344 452.015625 C 160.402344 450.75 160.996094 449.46875 161.554688 448.175781 C 162.113281 446.878906 162.640625 445.570312 163.132812 444.25 C 163.628906 442.929688 164.085938 441.59375 164.511719 440.25 C 164.9375 438.902344 165.328125 437.546875 165.683594 436.183594 C 166.039062 434.816406 166.359375 433.445312 166.648438 432.0625 C 166.933594 430.679688 167.183594 429.292969 167.398438 427.898438 C 167.613281 426.503906 167.792969 425.105469 167.9375 423.703125 C 168.082031 422.300781 168.1875 420.890625 168.261719 419.484375 C 168.332031 418.074219 168.367188 416.664062 168.371094 415.253906 C 168.363281 411.867188 168.152344 408.492188 167.730469 405.132812 Z M 3.019531 405.132812 " fill-opacity="1" fill-rule="nonzero"/><path fill="#010b48" d="M 85.582031 339.65625 L 3.238281 405.132812 L 167.941406 405.132812 Z M 85.582031 339.65625 " fill-opacity="1" fill-rule="nonzero"/></svg>