<svg xmlns="http://www.w3.org/2000/svg" xmlns:xlink="http://www.w3.org/1999/xlink" width="1366" zoomAndPan="magnify" viewBox="0 0 1024.5 576" height="768" preserveAspectRatio="xMidYMid meet" version="1.0"><defs><clipPath id="d2828b6d73"><path d="M 239 467 L 360 467 L 360 575.859375 L 239 575.859375 Z M 239 467 " clip-rule="nonzero"/></clipPath><clipPath id="dae3c53a29"><path d="M 0 467 L 120 467 L 120 575.859375 L 0 575.859375 Z M 0 467 " clip-rule="nonzero"/></clipPath><clipPath id="51d3cdb9e1"><path d="M 0 527 L 120 527 L 120 575.859375 L 0 575.859375 Z M 0 527 " clip-rule="nonzero"/></clipPath><clipPath id="a3ac7578be"><path d="M 119 467 L 240 467 L 240 575.859375 L 119 575.859375 Z M 119 467 " clip-rule="nonzero"/></clipPath><clipPath id="797aeb7295"><path d="M 179 467 L 240 467 L 240 575.859375 L 179 575.859375 Z M 179 467 " clip-rule="nonzero"/></clipPath><clipPath id="05de062bb9"><path d="M 359 467 L 480 467 L 480 575.859375 L 359 575.859375 Z M 359 467 " clip-rule="nonzero"/></clipPath><clipPath id="bc203dc820"><path d="M 0 0.140625 L 120 0.140625 L 120 109 L 0 109 Z M 0 0.140625 " clip-rule="nonzero"/></clipPath><clipPath id="e59ecc0f12"><path d="M 479 527 L 598.957031 527 L 598.957031 575.859375 L 479 575.859375 Z M 479 527 " clip-rule="nonzero"/></clipPath></defs><path fill="#ffbb00" d="M 359.375 347.859375 L 239.574219 347.859375 L 239.574219 228.054688 Z M 359.375 347.859375 " fill-opacity="1" fill-rule="nonzero"/><path fill="#5ec576" d="M 119.769531 347.859375 L 119.769531 228.054688 L -0.03125 228.054688 Z M 119.769531 347.859375 " fill-opacity="1" fill-rule="nonzero"/><g clip-path="url(#d2828b6d73)"><path fill="#5ec576" d="M 359.375 587.464844 L 359.375 467.660156 L 239.574219 467.660156 Z M 359.375 587.464844 " fill-opacity="1" fill-rule="nonzero"/></g><g clip-path="url(#dae3c53a29)"><path fill="#5ec576" d="M -0.03125 467.65625 L 59.867188 527.5625 L 119.769531 587.460938 L 119.769531 467.65625 Z M -0.03125 467.65625 " fill-opacity="1" fill-rule="nonzero"/></g><g clip-path="url(#51d3cdb9e1)"><path fill="#ffbb00" d="M -0.03125 587.460938 L 119.769531 587.460938 L 59.867188 527.5625 Z M -0.03125 587.460938 " fill-opacity="1" fill-rule="nonzero"/></g><path fill="#fd424b" d="M 119.769531 467.65625 L 119.769531 347.859375 L -0.03125 467.65625 Z M 119.769531 467.65625 " fill-opacity="1" fill-rule="nonzero"/><g clip-path="url(#a3ac7578be)"><path fill="#ffbb00" d="M 239.574219 467.660156 L 119.769531 587.460938 L 119.769531 467.65625 Z M 239.574219 467.660156 " fill-opacity="1" fill-rule="nonzero"/></g><path fill="#032aff" d="M 239.574219 467.660156 L 119.769531 467.65625 L 119.769531 347.859375 Z M 239.574219 467.660156 " fill-opacity="1" fill-rule="nonzero"/><path fill="#5ec576" d="M -0.03125 347.855469 L -0.03125 467.660156 L 59.867188 407.757812 Z M -0.03125 347.855469 " fill-opacity="1" fill-rule="nonzero"/><path fill="#fd424b" d="M 239.574219 347.859375 L 119.769531 347.859375 L 179.675781 407.757812 Z M 239.574219 347.859375 " fill-opacity="1" fill-rule="nonzero"/><g clip-path="url(#797aeb7295)"><path fill="#032aff" d="M 239.570312 587.464844 L 239.570312 467.660156 L 179.671875 527.566406 Z M 239.570312 587.464844 " fill-opacity="1" fill-rule="nonzero"/></g><g clip-path="url(#05de062bb9)"><path fill="#032aff" d="M 479.179688 467.660156 L 359.375 587.464844 L 359.375 467.660156 Z M 479.179688 467.660156 " fill-opacity="1" fill-rule="nonzero"/></g><path fill="#032aff" d="M 239.574219 108.253906 L 239.574219 228.054688 L 119.769531 228.054688 Z M 239.574219 108.253906 " fill-opacity="1" fill-rule="nonzero"/><g clip-path="url(#bc203dc820)"><path fill="#fd424b" d="M 119.773438 108.253906 L -0.03125 -11.546875 L -0.03125 108.253906 Z M 119.773438 108.253906 " fill-opacity="1" fill-rule="nonzero"/></g><g clip-path="url(#e59ecc0f12)"><path fill="#fd424b" d="M 479.179688 587.460938 L 598.984375 587.460938 L 539.078125 527.5625 Z M 479.179688 587.460938 " fill-opacity="1" fill-rule="nonzero"/></g><path fill="#fd424b" d="M 359.378906 108.253906 L 359.378906 228.054688 L 419.277344 168.152344 Z M 359.378906 108.253906 " fill-opacity="1" fill-rule="nonzero"/></svg>